<svg id="Layer_1" data-name="Layer 1" xmlns="http://www.w3.org/2000/svg" width="113.41" height="149.7" viewBox="0 0 113.41 149.7">
  <title>arch</title>
  <path d="M114.22,54.23c-.13-13.2-6.88-26.73-18.67-37.17a67.52,67.52,0,0,0-9.17-6.88h0A62.34,62.34,0,0,0,68.44,2.57h-.22a46.87,46.87,0,0,0-11-1.37c-13.46,0-27.52,5.9-38.6,16C7.81,27.19,1.42,40,.93,52.57a.81.81,0,0,0,0,.22v1.43A24.15,24.15,0,0,0,1,56.78H1V150.9H114.33V54.57A1,1,0,0,0,114.22,54.23ZM62.43,84.61c.31-5.94-3.63-12.91-7.46-16a13.8,13.8,0,0,0,2.75-8.26A11.35,11.35,0,0,0,46.38,49a1,1,0,1,0-.44,1.91,1.09,1.09,0,0,0,.44,0,9.43,9.43,0,0,1,9.41,9.43,12,12,0,0,1-12,12A15.27,15.27,0,0,1,28.52,57.07,19.34,19.34,0,0,1,47.83,37.76a24.44,24.44,0,0,1,24.4,24.39,30.65,30.65,0,0,1-9.84,22.46Zm-19.08,8.2A18.28,18.28,0,0,0,49,73.23a14.09,14.09,0,0,0,4.72-3.16c4.25,3.34,7.94,11.25,6.45,16.44a30.46,30.46,0,0,1-16.87,6.3ZM22.71,88c10.75-1,16.2-8.38,17.53-14.09a16.8,16.8,0,0,0,3.53.37,13.44,13.44,0,0,0,3.4-.44,16.33,16.33,0,0,1-7.18,19A38.26,38.26,0,0,1,22.68,88Zm3.88-30.75c-4.35-.2-9.74-2.79-13.71-6.67C10,47.78,6.66,43.14,6.75,36.8v0a53.43,53.43,0,0,1,7.6-12.19c-.48,16.71,6.53,23,13.12,26.4a21.2,21.2,0,0,0-.91,6.12Zm-15-5.3c4.35,4.25,10.32,7.06,15.19,7.23a16.73,16.73,0,0,0,2,6.07C24,66.44,17.08,66.71,11.58,63.79c-4.15-2.21-7.06-6-8.65-11.13a42.1,42.1,0,0,1,2.2-12,21.79,21.79,0,0,0,6.39,11.24Zm-.89,13.55A23.5,23.5,0,0,0,21.72,68a29.5,29.5,0,0,0,8-1.11A17.33,17.33,0,0,0,33,70.46c-2.12,2.16-6.81,4.54-12.32,5.18-3.74.44-9.07.2-13.35-3.34A38.55,38.55,0,0,1,3,57.86a18.68,18.68,0,0,0,7.61,7.62ZM17.9,77.72a26.39,26.39,0,0,0,3-.17c5.51-.64,11.06-3.09,13.69-6a16.74,16.74,0,0,0,3.8,1.8c-1.05,4.3-5.84,13-18.63,12.78A39.18,39.18,0,0,1,9.48,75.93,19.73,19.73,0,0,0,17.9,77.72ZM45.35,4.65a24.71,24.71,0,0,0-7.59,11.66c-2.26,7.16-1.87,15.85.89,21.62a21.27,21.27,0,0,0-6.15,4.45C26,33.54,25.18,21.89,30.32,10.93a57.05,57.05,0,0,1,15-6.28ZM68.07,4.5a59.27,59.27,0,0,1,14.84,5.9C67.8,13.35,58.62,26,55.09,36.85a26.21,26.21,0,0,0-6.7-1,.9.9,0,0,0,0-.36C48,26.81,53.51,8.29,68.08,4.5ZM100.57,25a52.74,52.74,0,0,1,8.52,14c-13.54-3.77-26.54-1-39.48,8.43a26.39,26.39,0,0,0-5.41-5.9c8.33-9.42,17.19-18.86,36-16.53a.79.79,0,0,0,.43,0ZM73.93,58.76A32.94,32.94,0,0,1,112.39,61V84.62A31.06,31.06,0,0,0,98.26,70.86c-8.8-4.33-18.52-4.67-24.57-3.15a32.92,32.92,0,0,0,.49-5.6A28.88,28.88,0,0,0,73.93,58.76ZM112.39,55v3.66A34.93,34.93,0,0,0,73.58,56.7a26,26,0,0,0-3-7.58c13-9.46,25.83-12,39.32-7.86a40.8,40.8,0,0,1,2.31,13.36,1.23,1.23,0,0,0,.08.33ZM98.86,23C80.1,21.29,70.8,31.3,62.71,40.46A26.07,26.07,0,0,0,57,37.52C58.57,32.81,66,14.32,85.56,12a64.64,64.64,0,0,1,8.73,6.53q2.37,2.15,4.52,4.52ZM64.46,3.74C57.77,6.6,53.6,12.23,51.2,16.79a38.85,38.85,0,0,0-4.62,18.8,1.28,1.28,0,0,0,.07.28,21.69,21.69,0,0,0-6.17,1.29c-2.61-5.32-2.95-13.5-.84-20.27A21.58,21.58,0,0,1,50.51,3.64a45.48,45.48,0,0,1,6.8-.51,43.35,43.35,0,0,1,7.1.61ZM20,18.67a62,62,0,0,1,7.52-5.9c-4.21,11-2.88,22.33,3.73,31.09a21.79,21.79,0,0,0-3.1,5.29c-6.63-3.52-12.9-9.72-11.73-26.88A50.66,50.66,0,0,1,20,18.67ZM2.9,66.82a39.06,39.06,0,0,0,2.75,6.46.51.51,0,0,0,.07.15A40.86,40.86,0,0,0,18.89,87.91.42.42,0,0,0,19,88a40.34,40.34,0,0,0,21,6.76h1.38a32.52,32.52,0,0,0,20-6.88l.16-.13a33.07,33.07,0,0,0,8-9.21c4.39,0,13.46,3.4,20.29,11.1,5.21,5.89,10.81,16.34,7.86,32.75-2,11.29-15,25.71-15.66,26.48l-79.24,0Zm81.84,82.09c3.42-3.93,13.16-16,15-26.15,3.09-17.16-2.82-28.16-8.32-34.4C84.68,80.77,75.78,77.15,70.7,76.67a31.86,31.86,0,0,0,2.51-6.88C79,68,88.93,68.39,97.41,72.55a29.08,29.08,0,0,1,15,16.93v59.45Z" transform="translate(-0.92 -1.2)" style="fill: #fff"/>
</svg>
