<svg id="Layer_1" data-name="Layer 1" xmlns="http://www.w3.org/2000/svg" width="152.8mm" height="157.07mm" viewBox="0 0 433.15 445.23">
  <title>logo-footer</title>
  <g>
    <g>
      <path d="M222.05,448.33l-.48.06h.05a2.06,2.06,0,0,1-.48.1.55.55,0,0,0-.38-.1c-.1,0-.37,0-.43-.06s-.37-.05-.37-.21.27-.22.37-.27h-.21a1.28,1.28,0,0,0-.27,0,2.24,2.24,0,0,1-2.2.27,1.25,1.25,0,0,1,1.08-.32,1.91,1.91,0,0,0,.53-.05H219a1.22,1.22,0,0,1-.43,0,3.51,3.51,0,0,0-1.66.05c-.21,0-.75,0-1,0a5.68,5.68,0,0,1-1.34.22,5.56,5.56,0,0,0-.91.05l-.32.22c-.05,0-.11-.06-.16-.16v0a.48.48,0,0,1-.16-.11,2.31,2.31,0,0,1-.27.06,4,4,0,0,0-.86.32,1.39,1.39,0,0,0-.7.91,6.7,6.7,0,0,0-.64.91,3.22,3.22,0,0,0-.16.38l-.27.32c-.05.16-.11.27-.16.27a1.38,1.38,0,0,0-.59.85c0,.11-.11.22-.11.27a7,7,0,0,1-.91,1.67l-.16.26a3.31,3.31,0,0,0-.27.33,5.27,5.27,0,0,0-.48.75,1.45,1.45,0,0,0-.43.53l-.38.27-.1.11a1,1,0,0,1-.22.59s-.05.11-.05.16a.27.27,0,0,0-.16.21c.05.11,0,.33-.22.49l-.16-.11a3.34,3.34,0,0,1-.69,1.18,1.43,1.43,0,0,0-.38.86,2.66,2.66,0,0,1-.21.75H204c0,.05-.05.1-.11.21a.34.34,0,0,0-.1.38h-.06a1.77,1.77,0,0,1,0,.37l-1.34,2.2-.54.38a1.3,1.3,0,0,0-.48.64v-.05a.8.8,0,0,1-.22.43.5.5,0,0,1,.06.48l-.11.21a20.78,20.78,0,0,1-1.34,1.72l-.16-.05a8,8,0,0,0-.81,1.28l.11-.1a3.83,3.83,0,0,1-.27,1.07c0,.05-.1.16-.1.27l-.49.64c.06.43-.43.91-.85,1.07l-.06.11-.53.48a.93.93,0,0,0-.54,1,15.14,15.14,0,0,0-1.07,2.3,7,7,0,0,1-.49.81,4.31,4.31,0,0,0-.64,1.12l-.48,1.29a10,10,0,0,0-.86,2.2l-.27,2.15v.26a.72.72,0,0,1,.16.43h0l.21.38-.91.16s-.27,0-.32-.16a.37.37,0,0,0,0-.22,3.08,3.08,0,0,1-.59-2.41,1.3,1.3,0,0,0,.16-.37,2.84,2.84,0,0,1,.43-1.13,3,3,0,0,0,.37-.7c.06-.11.32-.32.27-.48l.32-1a8.59,8.59,0,0,1,.48-1c-.16.05-.16.05-.16.16a.53.53,0,0,0-.16.27l-.27.64c0,.32-.26.59-.59.86l-.1-.05.16-.65a15.23,15.23,0,0,1,1-2.14,21.42,21.42,0,0,1,1.18-2.58L194,473c.05-.16.11-.43.16-.53s.21-.06.27-.06a.89.89,0,0,0,.69-.26l.16-.65c0,.11-.1.11-.16.16,0,.27-.26.49-.75.65.22-.38.49-.7.49-.91l.26-.49V471a1.35,1.35,0,0,1,.38-.59,2.9,2.9,0,0,0,.54-1.13l.42-.64.54-1a.49.49,0,0,1,.16-.43.79.79,0,0,0,.65-1h.53a.35.35,0,0,0-.11-.27c-.16-.16.06-.37.22-.64a2.84,2.84,0,0,1,.7-1.07,1.44,1.44,0,0,1,.53-.65v-.26l.11-.27a1.63,1.63,0,0,0,.27-.38,1.33,1.33,0,0,1,.64-.69l.11.1a1,1,0,0,0-.22.38.57.57,0,0,0,.22-.27,2.11,2.11,0,0,0,.7-1.56c-.06-.05-.06-.1,0-.1s0-.22.1-.32a.31.31,0,0,0,.32-.16l.27-.11a1.41,1.41,0,0,1,.33-.65,1.31,1.31,0,0,0,.32-.43c.27-.26.43-.58.8-.91a1,1,0,0,0,.11-.26c.11-.33.21-.54.11-.7l.21-.38c.05,0,.11-.1.11-.16-.11-.43.05-.43.32-.37h.11c0-.06.05-.22.05-.27a.65.65,0,0,0,.21-.43,1.51,1.51,0,0,1,.17-.75.65.65,0,0,1,.59-.38.74.74,0,0,0,.43-.69,3.64,3.64,0,0,0,.75-1.18l.26-.49c0-.16.06-.16.06-.27s.21-.32.1-.53.06-.48.17-.54a3.67,3.67,0,0,1,.59-.86l.37-.32h0a8.87,8.87,0,0,1,.64-1.18l.05-.05c-.59.05-1.12.05-1.55.05a9.12,9.12,0,0,0-2.36.32,1.27,1.27,0,0,1-.43-.05c-.05,0-.21-.05-.27,0a.38.38,0,0,1-.32-.05,1,1,0,0,1-.8.32,4.46,4.46,0,0,0-1.13.05c-1.13.22-2.31.54-3.49.65-.16.1-.43,0-.69,0h-.22a.22.22,0,0,0-.11,0,1.47,1.47,0,0,1-.53.21.62.62,0,0,0-.43,0h.05a1.6,1.6,0,0,1-.53.06c-.06,0-.16.11-.43.32-.32-.32-.7.11-1.18.54l-.7.05a3.5,3.5,0,0,0-1.23.21c-.11-.1-.43,0-.59.17a1.88,1.88,0,0,1-.75,0h-.11a8.12,8.12,0,0,1-1.72.48l-.91.21c-.21-.16-.54,0-.8.11l-.27.05c0-.05-.32.11-.48.11l-.33,0-.43.16c-.21.06-.42.22-.69.06-.11-.06-.16.05-.16.16a2,2,0,0,1-1,.11.28.28,0,0,0-.16.1,1.78,1.78,0,0,1-.54.17,7.94,7.94,0,0,1-1.07.26,7.77,7.77,0,0,1-1.18.38h-.53a2.17,2.17,0,0,1-1.13.21c-.75.11-.91-.32-.7-1.07,0-.05-.05-.11-.05-.21s.11-.54,0-.59c-.06-.22.16-.49.32-.59a2.54,2.54,0,0,1,1-.33l.59-.21v.11l.32-.33c.11-.05.16-.05.22-.32l.48.11h.21a6.34,6.34,0,0,0,1.13-.21l.64-.06c.38-.05,1.07-.16.81-.16h-.06l1-.21a2.34,2.34,0,0,1,.75-.16l.16.32-.37.32a5,5,0,0,0-1.13.21c-.05.06-.32.06-.37.06a.68.68,0,0,1-.27.1c-.11.06,0,.06,0,.06v0l1.44-.27.75-.16h-.05a3.22,3.22,0,0,0,.38-.16l1-.1a9.2,9.2,0,0,1,1-.22h.26a1.5,1.5,0,0,1,1-.05,3,3,0,0,0,.43-.11.58.58,0,0,1,.32-.11,9.13,9.13,0,0,0,1.23-.37l.76-.11c.37-.05,1,0,1.44-.05a6.72,6.72,0,0,0,1.77-.27l1.18-.27c.32,0,.81-.11,1.24-.21.26.1.32.1.37.32.27-.38.7-.38,1.13-.43l.27-.11c1.23,0,2.2-.21,3.43-.32.11.11.27,0,.37,0a3.59,3.59,0,0,0,1.13-.06,4.25,4.25,0,0,0,1.18-.05,5.65,5.65,0,0,1,1.93-.22c.27.11.54,0,.75-.1h.32c0-.38.06-.43.54-1.13.16.16.43.11.64.21a1.16,1.16,0,0,1,1,.54c.16.32.38.48.91.38h-.05a3.15,3.15,0,0,1,1.39-.11,4.65,4.65,0,0,0,1.18-.05,2.43,2.43,0,0,1,.92-.06h.26c.06,0,.11.06.17.11a3.71,3.71,0,0,0,.37-.11c.22-.05.43-.16.59-.05l1.45.05a10.74,10.74,0,0,1,1.93-.11l.75.06a2.11,2.11,0,0,1,1.29.21,3.12,3.12,0,0,0,.75.06h1.12a4.63,4.63,0,0,1,.86.05,5.58,5.58,0,0,1,1.45.21c0,.06.22.06.32.06l.91.27a8.66,8.66,0,0,1,.92.1c.37.11.85-.21,1,.11l.21.27.05-.05a4.09,4.09,0,0,1,1,1.34,2.73,2.73,0,0,1,.11,1.66,2.3,2.3,0,0,1-.86,1.07c-.11,0-.37,0-.37.05.26.81-2.31,1.08-2.26.49a5.11,5.11,0,0,1,.49-.59c-.06-.16.69-.59.16-.54l.59-.43v.06l.37-.33a.58.58,0,0,0,.27-.53c.11-.22,0-.22,0-.27a.49.49,0,0,1-.16-.05,2.59,2.59,0,0,1-.65-.54l-.1-.16c-.43.05-.54,0-.76-.22-.1.11-.21.11-.43.27,0-.21,0-.21-.1-.21-.22.11-.43.16-.54-.16.06-.06-.05-.22-.32-.11h0c-.16,0-.59-.11-1-.16s-.54-.11-1.13.21c0-.05,0-.26,0-.32,0-.21,0-.32.16-.43-.16,0-.38.06-.75.43h-.22a2.17,2.17,0,0,1-.8-.11h-.32c-.11,0-.27,0-.27-.1l0,.05C222.26,448.49,222.1,448.55,222.05,448.33Zm-38.56,2.42a2.23,2.23,0,0,1-1,.1l-.27.33c.06,0,.11-.06.16-.11A1.9,1.9,0,0,0,183.49,450.75Zm.59-.33-.48.27.59-.1Zm36.36-2.57a1.81,1.81,0,0,0,1,0,1.78,1.78,0,0,0-.7,0Z" transform="translate(-81.06 -75.02)" style="fill: #fff"/>
      <path d="M215.56,471.29l-.32.16-.48.32-.59.27-.38.16a1,1,0,0,1-.64.05c-.32.27-.48.43-.8.75a3.39,3.39,0,0,0-1.18.75c-.27.27.26.11-.11.38l-.22.21-.8.38a1.31,1.31,0,0,0,.05.21l-.05-.05c0,.16,0,.22-.27.32a.63.63,0,0,0-.59.32l-.05.17-1.67,1.18-.21.21-.05.21-.49.38-.42.27-.33.43-.43.43-.1.16-.38.32c0,.16,0,.21-.53.37l-.33.49a.57.57,0,0,1-.75-.11l-.1-.11c-.06,0-.11.06-.33.22a2.34,2.34,0,0,1-.59-.59c0-.06,0-.06,0-.11-.21-.16-.16-.48-.05-.8l.91-2.2a4.2,4.2,0,0,0,.64-1.13c.22-.54.43-1.13.65-1.66l.64-.91c0-.06.05-.22.05-.33s.11-.37.16-.53.06-.11.06-.16l.43-.49a.91.91,0,0,0,.1-.64c0-.11.11-.21.16-.32a2.62,2.62,0,0,0,.7-1.5.87.87,0,0,1,.32-.65l.06-.05a7.84,7.84,0,0,1,.43-1l.37-.43a.63.63,0,0,1,1-.16l-.05,0a1.08,1.08,0,0,1,.59.43,1.59,1.59,0,0,1-.06.91,1,1,0,0,0-.43.75.67.67,0,0,0-.16.32l-.27.7a8.78,8.78,0,0,0-.53.86c-.16.1-.22.26-.16.64a7.52,7.52,0,0,1-.81,1.18v.16c0,.16,0,.27-.1.38a3.19,3.19,0,0,0-.38.69,2.87,2.87,0,0,1-.64,1.08c-.06.05-.06.16-.11.32s0,.16,0,.21,0,.22-.06.27-.1.05-.05.11a2.85,2.85,0,0,0-.43.8l-.21.38.42-.33a1.27,1.27,0,0,0,.59-.42l.54-.43a2.07,2.07,0,0,0,1-.81l-.06.06c.06-.16.16-.22.43-.33a2,2,0,0,0,.7-.64c.37-.16.8-.64,1.18-.7a4.78,4.78,0,0,1,.86-.64c.59-.32.53-.43.59-.64a2.38,2.38,0,0,1,.75-.38l.27-.16.59-.16c.05-.11.32-.38.48-.59a.89.89,0,0,0,.21-.05l1.29-.33a2,2,0,0,1,.8.11,5.69,5.69,0,0,1,1.13.59c0,.05,0,.05.05.05.11.17.33.22.22.33a.22.22,0,0,0,0,.16c.16.27.32.64.16.75l-.32.37c.06.06,0,.11,0,.22a7.61,7.61,0,0,1-.38.91l-.21.32a2.25,2.25,0,0,1-.91,0,.7.7,0,0,1-.11-.43.93.93,0,0,0,.11-.53,1.37,1.37,0,0,1,.32-.65,1.53,1.53,0,0,1,0-.53l.05-.38h-.32Zm-.32.16-.05.05h.05S215.3,471.45,215.24,471.45Z" transform="translate(-81.06 -75.02)" style="fill: #fff"/>
      <path d="M226.94,472.9c-.17,0-.17,0-.22.37v.06a2,2,0,0,0-.38.75,1.39,1.39,0,0,0-.21,1.23c.21.43.16,1.07.59,1.34-.05.32.32.32.38.48s.26.22.53,0c.11,0,.16-.05.22-.05a6.62,6.62,0,0,0,3.21-.91,11.72,11.72,0,0,0,3-2,.76.76,0,0,0,.69-.37c.54-.48,1.67-1.24,2.53-1.83.59-.05.85-1,1.44-1.18.16-.37.59-.48.92-.64v.11l-.54.91-.7.64-2.84,2.74-2.25,2h-.16c-.11,0-.43,0-.49.16a1.43,1.43,0,0,1-.59.54,2.37,2.37,0,0,0-.69.43,15,15,0,0,1-2.95,1,2.69,2.69,0,0,1-1.93-.22c-.38-.16-.86-.38-.92-1a.56.56,0,0,0-.26-.1c-.65-.11-.7-.59-.86-1.13a.23.23,0,0,0-.16-.21.19.19,0,0,0-.27.1c-.38.54-1,.81-1.34,1.34l-.16.17-.32.16c-.17.05-.27.32-.43.48s-.33.05-.59.16c-.06.16-.33.22-.49.22s-.26.1-.26.26-.11.16-.27.16c-.7,0-1.45.22-1.88-.48-.21-.32-.64-.64-.75-1.13a4,4,0,0,1,0-.85c.06-.33.27-.49.27-.7a1.28,1.28,0,0,1,0-.27,4.23,4.23,0,0,0,.54-1,2.08,2.08,0,0,1,1-1.13,1.17,1.17,0,0,1,.38-.91,20.44,20.44,0,0,1,1.82-2l1.29-1.07a2.85,2.85,0,0,1,1.87-.32c.75.1,1.18.75,1.83,1.07.05,0,.05.11.16.11.53.21.59.8.8,1.18C227.58,471.93,227.63,472.84,226.94,472.9Zm-1.51-2c-.21-.22-.48-.38-.75-.22s-.69-.05-.86.49c-.32,0-.59.32-.8.53s-.43.49-.59.49c-.32,0-.38.05-.43.21a1.18,1.18,0,0,1-.48.7c-.27.1-.27.21-.38.48l-.53.8a14,14,0,0,0-1.45,3,.25.25,0,0,0,.27.27c.1,0,.16-.17.21-.17.7-.48,1.5-.69,2.09-1.18l.32-.16h.06c0-.21,0-.37.32-.37,0,0,.21,0,.21-.05.06-.27.27-.38.54-.43s.27-.27.32-.43a.47.47,0,0,1,.38-.32c.05,0,.11-.17.27-.22.1-.21.16-.27.16-.43s.43-.48.32-.59c0-.59.37-.91.48-1.34l.38-1A.05.05,0,0,0,225.43,470.86ZM222,477.35s-.05,0-.16.1c.11,0,.11.17.16.17a.2.2,0,0,1,.22-.22A.36.36,0,0,0,222,477.35Z" transform="translate(-81.06 -75.02)" style="fill: #fff"/>
      <path d="M263.73,475.79l0-.1c.11,0,.06-.11.06-.17l.05-.21c0-.05-.05-.11-.05-.21v-.27c0-.06-.17-.22-.17-.27a.74.74,0,0,1-.16-.7l-.32-1v-.33l-.16-1.66c.05-.21.05-1.07.11-1.39v-.06c-2.42,2.69-5.63,7.24-9.55,8.48l-.32.16-.59.32a6.8,6.8,0,0,1-1.34.32h-.43a6,6,0,0,0-1,0,1.31,1.31,0,0,0-.21-.05s-.11-.05-.16-.16h.05l-.16-.11c-.05,0,0-.05-.1-.05s-.06-.11-.11-.11-.11-.05-.43,0c-.06-.11-.16-.22-.16-.32s.05-.27-.06-.43l-.42-.91c-.11-.11-.17-.27-.43-.33l-.06-.37-.1-.8-.11-.33a.68.68,0,0,0-.16-.64h.05c0-.11,0-.21.11-.38a1.16,1.16,0,0,0-.11-.85v-.54c0-.43.7-2,.38-1.88l-.65.16.06.06a4.82,4.82,0,0,0-.81.32l-1,.7-.7.48v-.05l-.38.26-.48.49-.32.16c-.11.16-.86.8-.32.16l-.91.8c-.22.16-.38.16-.59.43a3.59,3.59,0,0,0-.49.27s0,.16,0,.21c-.11.22-.27.22-.32.17a.73.73,0,0,1-.16.26,1.71,1.71,0,0,1-.65.59l.06-.05c-.16.11-.54.05-.49.43,0,.05-.05.16-.05.21a7.37,7.37,0,0,0-1.29.86l-.43.38-.32.37a1.23,1.23,0,0,1-.05.22,3.43,3.43,0,0,1-1,.8,1.45,1.45,0,0,0-.53.59.48.48,0,0,1-.86.05c-.11-.32-.22-.32-.27-.42l-.27-.59v.05a.49.49,0,0,1,0-.38,4.6,4.6,0,0,1,.43-1.12,2.3,2.3,0,0,1,.22-.59l.32-.27h-.06l.17-.32c.16-.22.32-.7.48-1,0-.05,0-.1.16-.21l.16-.16c.16-.27.37-1,.54-1.18v.05c0-.05.1-.16.16-.21v-.06a1.8,1.8,0,0,0,.27-.53l.48-.86a10.68,10.68,0,0,0,.53-1.07l.38-.65.32-.59.27-.37,0,.05a.23.23,0,0,1,0-.16.42.42,0,0,0,.11-.22.58.58,0,0,0,.16-.37,1.52,1.52,0,0,1,.21-.54l.22-.26.26-.33-.1.06c.1-.27.27-.27.43-.11l.05,0a.7.7,0,0,1,.86.33l0,.21c0,.05,0,.16.06.16.21.22.05.43-.06.59a.78.78,0,0,0-.32.59l-.05.27-.59.43c-.06.05,0,.16,0,.37a1.29,1.29,0,0,1-.49,1,2,2,0,0,0-.43.75l-.16.27-.26.43-.16.32a5.3,5.3,0,0,0-.86,1.34l-.06.22a2,2,0,0,0-.53.75l-.16.37.26-.32.65-.48c.1,0,0-.11.43-.16l.16-.16c0-.06.11-.22.11-.27s.1-.22.37-.22a.6.6,0,0,1,.38-.53l.1-.06a.82.82,0,0,1,.54-.37l-.05.05s.26-.21.48-.43.32-.26.48-.53l.43-.32s0,0,0-.06a.72.72,0,0,1,.38-.16l.16-.11h-.05a.15.15,0,0,1,.1-.05l.38-.32h0a.68.68,0,0,1,.42-.11c0-.27.33-.43.59-.48l.33-.16.21-.06h0s0-.05,0-.1l.32-.38a.84.84,0,0,1,.65-.32l1-.43a1.13,1.13,0,0,1,.85-.27l.22.06c.05-.06.11-.06.21-.06.11.16-.1.38.06.38h.16c.1.16.27.21.37.37l.38.27.05-.05c.27.16.22,1.82.16,2.2.06.1,0,.37,0,.43l.11.59,0,.69a1.26,1.26,0,0,0,0,.91l0,.22a1.48,1.48,0,0,0,.53,1.61,3.55,3.55,0,0,0,1.18.37,2.22,2.22,0,0,0,.65-.1,1.83,1.83,0,0,1,.8-.06c.16,0,.27-.1.38-.1a1.1,1.1,0,0,1,.37-.22,1.14,1.14,0,0,1,.81-.16c0-.05,0-.05.1-.11a1.72,1.72,0,0,1,.81-.32c1.71-.8,5.68-4,8.79-7.67l.06-.32c.16-.43-.11-1.39,1.5-2,1.77-1.61,1.23,1.66.64,1.93a3.3,3.3,0,0,1-.27.91,3.06,3.06,0,0,0-.21.49,7.42,7.42,0,0,0,.37,3.21l.11,1,.11,1.45.11.53a7,7,0,0,0,1.18-.37l.32,0,.53-.49c.06,0,.11-.05.22-.05l.48.16.43-.05a.89.89,0,0,0,.43-.43c.11-.11.37,0,.54-.11a.45.45,0,0,1,.42-.32v-.06a14.1,14.1,0,0,0,3.38-1.55,7.75,7.75,0,0,1,1.45-.7c.16-.21.32-.16.48-.43l.49-.21a.86.86,0,0,1,.26-.38l.33-.16c.37-.16.48.06.48.06a8.9,8.9,0,0,1-.64.64l-.27.27-.11,0a14.12,14.12,0,0,1-1.56,1.45l-.48.11a.26.26,0,0,1-.27.16s-.1,0-.21.16l-1.18.86-.32.1c-.16-.05-.27.22-.48.16l-1.4.65s0,.11,0,.11l-.32,0c-.33.21-.65.48-1.18.8a1.66,1.66,0,0,0-.76.27h-.64a1.22,1.22,0,0,1-.8.32c-.06,0-.27.11-.27.16a1.35,1.35,0,0,1-.27.38h.11a3.79,3.79,0,0,1-.7.21,2.24,2.24,0,0,1-.05.27l-.06.06-.1.26h.05l.11.16c-.11.06-.11.11-.11.11s-.43.32-.48.38h-.16a1.12,1.12,0,0,1-.27,1.07l-.65.32c-.05-.05-.05.11,0,.22-.1.21-.26.21-.48.26,0,.06-.05.11-.05.17l-.54.42a.68.68,0,0,1-.59.38l-.48.22-.27.26h.05c0,.11-.05.11-.1.11a4.34,4.34,0,0,1-1.4.27c-.05,0-.16,0-.21,0a1.54,1.54,0,0,1-.48,0c-.06,0-.27-.06-.33-.06l-.64-.05s-.11-.32,0-.43l-.22-.53v-.27a1.19,1.19,0,0,1-.21-.7l.21-.38a3.12,3.12,0,0,1,.43-.69v-.22l.16-.43c.06,0,.27-.1.32-.1a6.22,6.22,0,0,1,1.13-.86s.32-.27.48-.27a1.18,1.18,0,0,0,.38-.11l.37-.26a3,3,0,0,1,.38-.06l.21-.16h-.05l1.07-.59Zm-.22,1.56c0-.11,0-.11-.05-.16l-.38.1-.59.43h.06c-.16.11-.27.27-.48.32l-.22.17h0c0,.05-.1.16-.64.21h-.32c-.11,0-.27.05-.43.32l-.27.22c-.27.16-.69.91-.8,1s-.22.42-.22.48.16.11.22.11.59-.06.86-.17h.42a.31.31,0,0,0,.17,0,1,1,0,0,0,.75-.59c.16-.11.64-.7,1-1.07l.27-.43.43-.32.06-.16A.85.85,0,0,1,263.51,477.35Z" transform="translate(-81.06 -75.02)" style="fill: #fff"/>
      <path d="M273.39,473l.05-.32c-.05-.05-.05-.11,0-.21s.05,0,.16-.06a.82.82,0,0,1,.59-.16c.11,0,1,.27,1.07.16a1.19,1.19,0,0,0,.81-.43h.43a3.22,3.22,0,0,1,.8-1.87,1.47,1.47,0,0,1,.38-1.24c.21-.32.21-.59.43-.69a1.06,1.06,0,0,1,.32-.65c0-.16.21-.32.1-.53a3.88,3.88,0,0,0,.65-1.08l.48-.8a2.87,2.87,0,0,1,.27-.91v.05c0-.05.05-.11.05-.16.27-.21.38-.54.59-.59v-.05a4.47,4.47,0,0,1,.16-.48c.06,0,.11-.11.11-.11a.59.59,0,0,1,.38-.54c0-.16.21-.43.26-.64-.1-.06,0-.16,0-.32l.22-.33c.32-.43.43-.59.59-.64s0,0,0,0c-.1-.27.16-.65.16-.86l.33-.11.26-.05a.35.35,0,0,0-.16-.27c.16-.16.22-.16.27-.27s.05-.37.11-.48a3,3,0,0,1,.37-.75l1-1.5.11-.43a1.58,1.58,0,0,1,.43-.54l.16-.27a1.21,1.21,0,0,1,.38-.75,3.3,3.3,0,0,1,.42-.86.79.79,0,0,0,.49-.75c.05,0,.26-.43.37-.43l.06-.1a.19.19,0,0,0-.06-.33l.16-.32a.68.68,0,0,0,.65-.64,2.33,2.33,0,0,1,.1-.32c.33-.22.43-.48.65-.7a5.94,5.94,0,0,1,.75-1.23,3.72,3.72,0,0,0,.7-1.13l.42-.54a2,2,0,0,1,.43-.37c.06,0,.06-.05,0-.11l.59-.91,1.08-1.5c.43-.7.75-1.56,1.77-2h.37a.62.62,0,0,0,.7.38c.21,0,.27.27.27.54l-.06.1a.88.88,0,0,1-.43.7.44.44,0,0,0-.32.43,2.13,2.13,0,0,1-.75.64c-.16.11-.11,0-.32.65a3.69,3.69,0,0,1-.32.59l-1.93,2.68-.32.48c-.22,0-.33.38-.54.64l-.06.27a1,1,0,0,1-.48.65c.06.05,0,.1.06.16l-.16.27a13.42,13.42,0,0,0-1.56,2.25l-.38.69-.37.49-.05.16c-.11.21-.16.48-.49.48l-.16.59a3.7,3.7,0,0,1-.75,1.23c-.27.06-.32.17-.32.22a5.06,5.06,0,0,1-.48,1.07,2.58,2.58,0,0,1-.22.54c-.32.75-.8,1.34-1.18,2-.16.21-.32.53-.48.75a5.34,5.34,0,0,1-.32.8l-.27.43c-.05.22-.27.43-.38.7s-.16.53-.48.91l-.11.05c-.05,0-.1.11-.1.38a1.44,1.44,0,0,1-.49.91,1.65,1.65,0,0,0-.21.54l-.38.64c0,.05-.05.11-.16.21s.06.38-.21.43-.32.43-.38.7a.3.3,0,0,0-.16.22l-.16.26a1.27,1.27,0,0,1-.27.75l-.21.65v-.06l-.48,1.08a1.62,1.62,0,0,1-.16.43c-.22.1-.06.42-.22.53s0,.11.11.11l-.11.11.27.16.43.37a2.07,2.07,0,0,1,.7.65l.1.16.32.27a.18.18,0,0,1,.11.05c.27.11.32.16.43,0a.79.79,0,0,1,.32-.1.88.88,0,0,0,.81-.17l.37-.1,1,.05.38.05.21-.1c.16-.16.22-.22.32-.22.22.16.43-.05.65-.16l.21-.11c.05-.05.05,0,.32.06a8.19,8.19,0,0,1,2.26-.7h.1s.06-.21.11-.11c.05-.21.05-.26.21-.21h.22c0-.05.32-.05.37-.11l.49-.16.21-.11a.26.26,0,0,1,.27,0c.16,0,.27,0,.27-.05a.65.65,0,0,1,.53-.11c.27-.1.43-.16.49-.32a.45.45,0,0,1,.48-.11l.27.06a1.22,1.22,0,0,1,.16.53,1.24,1.24,0,0,0-.43,0l.16.16-.05.17-.27.32c-.05,0-.05-.06-.05,0l-.54.32c-.16,0-.27.11-.43.32a.5.5,0,0,0-.38,0c-.21.11-.37-.11-.32-.16a4,4,0,0,0-.16.38l-.53.26.05,0-.22,0c-.21.16-.16.06-.26.11h-.16l-.17.22c0,.1-.21.16-.42.1v.06a.36.36,0,0,0-.16.16,1.15,1.15,0,0,0-.76.16.85.85,0,0,1-.43-.06c-.05,0-.05,0-.1,0a.51.51,0,0,1-.43.38.45.45,0,0,0-.43.16c-.27.05-.38-.11-.48-.06s-.22.11-.43.11a.6.6,0,0,1-.16.05c-.11.59-1.5-.21-1.67.38l-.26.21a1,1,0,0,1-.49.22h-.05l-.05-.11h-.54l-.43.22a2.08,2.08,0,0,1,.16,1.44,1.18,1.18,0,0,1,.11.38c.05.05,0,.27,0,.27l-.05.43-.17,1.28a5.56,5.56,0,0,0,0,.92c0,.05-.05.16,0,.21s-.05.38-.21.59.05.32.05.43a1.71,1.71,0,0,0-.16.8l-.05.65a2.18,2.18,0,0,0-.27.91,2.75,2.75,0,0,1-.27,1.23c.11,0,.11,0-.05.43,0,.16-.43,1.24-.54,1.66l-.59,1.83-.16.59-.16.43a7.83,7.83,0,0,0-.32.85l-.32.22.1.11-.1.53c-.22.54-.48.59-.38,1.13,0,0,0,.11-.37.32l-.11.38a.52.52,0,0,1-.32.64v.16l-.32.7-.11.32-.16.37a6.45,6.45,0,0,1-.38.86c-.05.06,0,.33,0,.33-.21.32-.32.75-.59.85-.8.91-.69,1.67-2.68,3.17-.11.32-.16.59-2.68,1.12a2.49,2.49,0,0,1-.86-.64l-.27-.38v.11l-.21-.48-.11-.11s-.11-.05-.11-.27-.1-.59-.21-.69a1.16,1.16,0,0,1-.11-.38,1,1,0,0,0-.16-.64s-.05,0-.05.1l-.11-.32a2.33,2.33,0,0,1,0-.59c.11-.37-.11-.64,0-1.28a1.72,1.72,0,0,1,.21-.38v-.21a1,1,0,0,1-.1-.59l.05-.27a5.9,5.9,0,0,1,.05-.86c.17-.54.17-1.39.38-2.15,0-.05.05-.16.16-.53-.05-.11-.05-.11,0-.16a1.41,1.41,0,0,1,.16-1c.06,0,.11-.16.11-.27a7.5,7.5,0,0,1,.38-1.61l.32-.8c0-.11.21-.59.21-.75l.16-.76c-.11,0,.11-.32.11-.32a3.46,3.46,0,0,1,.32-.91,1.06,1.06,0,0,0,.11-.48l.21-.59V484c.06-.38.22-.91.54-.91l-.11-.11c-.05,0-.05-.05-.05-.16l.16-.65a1.48,1.48,0,0,1,.21-.48l.38-.32-.16-.27a1.67,1.67,0,0,1,.21-.59c.06,0,.06-.05.11-.11s.16-.32.27-.32c-.11-.1-.11-.16-.11-.16l.27-.91.27-.27c0-.1.05-.1.16-.37a1.9,1.9,0,0,1,.11-.75l.16-.27h-.06c.06-.48.11-.48.32-.48,0,0,0-.38.11-.43l.48-1.29.65-1a.74.74,0,0,1-.7-.48l-.05-.06A.65.65,0,0,1,273.39,473Zm-5.64,25.91c0-.06-.05-.06-.05,0Zm8.1-23.65-.1.1h-.06l-.05.22c-.11.05-.16.21-.16.59a2.42,2.42,0,0,1-.65,1.12v.11c-.16.43-.69,1.07-.59,1.24s-.05.05-.05.16c-.16.1-.27.21-.21.59a.41.41,0,0,1-.22.32l-.27.86a2,2,0,0,1-.64,1.18v.1a4.6,4.6,0,0,1-.32,1.18l-.32.91a8.35,8.35,0,0,1-.59,1.56c.05.16,0,.27-.11.48v.27l-.32.75h.05c-.05.06-.05.22-.11.27a2,2,0,0,1-.26.86c-.22.21-.06.59-.27.75V489a1,1,0,0,1-.22.59c-.05.05-.05.32-.05.37s-.22.75-.27.86l-.11.37-.05.49a8.06,8.06,0,0,1-.32,1.23l-.22,1a3,3,0,0,1-.16.48,1.82,1.82,0,0,1-.05.81,1.43,1.43,0,0,0,0,.85c-.06.17,0,.22-.06.43s-.05,1-.05,1.24V498c-.11.05-.11.16-.05.32s0,.43,0,.43c-.11.53,0,.21.05.43v.1l.21.22c.11.16.16.48.27.53l.16.43h.16v0H270a.64.64,0,0,1,.37.11h.16a.42.42,0,0,1,.38-.27l.21-.11H271c.32-.21.53-.05,2.36-2.68l.91-1.66-.06.16a4.57,4.57,0,0,1,.43-1,.69.69,0,0,0,.27-.53l.38-.54a1.13,1.13,0,0,1,.32-.54,4.38,4.38,0,0,0,.59-1.66c.21-.43.64-2,.86-2.79,0-.1.27-.37.32-.48,0-.64.16-.7.48-.59a2.09,2.09,0,0,1,.38-1.34c.05-.27.05-.32,0-.38a1.57,1.57,0,0,1,.26-1s.11-.06.11-.11.06-.11.06-.16l.1-.54a6.58,6.58,0,0,1,.38-1.71v-.06a8.26,8.26,0,0,0,.11-.85c.16-.33.1-.86.21-1a1,1,0,0,1,.05-.54.31.31,0,0,0,0-.26c-.05-.06,0-.11.06-.38-.11-1.13.43-2.41.1-3.49h-.26a.84.84,0,0,1-.38.06h-.48l-.06-.06c-.1,0-.21,0-.26-.05h-.54l-.16-.05h-.11a.3.3,0,0,1-.21-.16l-.16-.11H277l0-.05c-.05.05-.05.05,0,.05a6.91,6.91,0,0,1-1.18-.59Zm-1.61-1a.21.21,0,0,0,.06-.11Zm.17-.11h-.11C274.57,474.29,274.46,474.24,274.41,474.13Zm1.23.86c-.05,0-.16-.06-.22-.06h.06l.11.06Zm0,0,.11.16Zm.91-1.4c-.05.38,0,.43.38.49l.59.1-.06.06v.1l.48.11c.11.16.33.16.54,0a.87.87,0,0,1,.54-.05l-.11-.27v.11c-.11-.27-.59-.32-.91-.49a2.32,2.32,0,0,1-.59-.05l0-.05a.15.15,0,0,1-.16-.16l-.27-.11A.47.47,0,0,0,276.55,473.59Zm.75-3.48.06-.06A.06.06,0,0,0,277.3,470.11Z" transform="translate(-81.06 -75.02)" style="fill: #fff"/>
      <path d="M313,471.13l-.43.32-.65.27-.37.16a.64.64,0,0,1-.27.05c-.05,0-.11,0-.11-.05l-.26.05a1.13,1.13,0,0,1-.49.38l.7-.27-.54.37c-.1,0-.21,0-.42.27a2.92,2.92,0,0,0-1.18.75c-.33.27-.7.43-1.08.7l-.21.21-.81.38a1.13,1.13,0,0,0,.06.21l-.06-.05c0,.16-.05.22-.26.32a.62.62,0,0,0-.59.32l-.06.17-1.66,1.18-.21.21-.06.21-.48.38-.43.27-.32.43-.43.43-.11.16-.37.32c0,.16,0,.21-.54.37l-.32.49a.57.57,0,0,1-.75-.11l-.11-.11s-.11.06-.32.22a2.06,2.06,0,0,1-.59-.59c0-.06-.06-.06-.06-.11-.21-.16-.16-.48-.05-.8l.91-2.2a4.25,4.25,0,0,0,.65-1.13c.21-.54.42-1.13.64-1.66l.64-.91c0-.06.06-.22.06-.33a4.24,4.24,0,0,1,.16-.53c0-.06.05-.11.05-.16l.43-.49a.92.92,0,0,0,.11-.64c0-.11.1-.21.16-.32a2.55,2.55,0,0,0,.69-1.5c-.05-.16.17-.54.33-.65l.05-.05a9.23,9.23,0,0,1,.43-1h-.16c.05-.05.05-.16.11-.26-2.58.48-5.63,4.07-7.67,3.54l-.06.1a1.08,1.08,0,0,0,.22.32v.06l-.32,1.18-1.24,2.41a1.94,1.94,0,0,1-.69,1.18,2.83,2.83,0,0,0-1,1.34,1.78,1.78,0,0,1-.7.7c-.27.21-.91.37-1,.59a1.85,1.85,0,0,1-1.66.54c0-.22-.11-.22-.32-.22-.49.11-.86-.05-.81-.7a.92.92,0,0,1-.43-.91,3.66,3.66,0,0,1,.22-1.82,5.13,5.13,0,0,1,1.12-2.31,14.72,14.72,0,0,1,2.85-3.38c.64-.43,1.34-1,1.93-1.39.16-.16.37,0,.53,0,.59.16,1,.54,1.5.54s.59.16.86.32c.11,0,.16.21.16.21v.06c1.51-.49,3.92-2.52,4.94-2.95,1.39-.43,2.89-.7,3.64.53h-.05l-.05.06h.05a1.61,1.61,0,0,1-.05.91,1,1,0,0,0-.43.75.58.58,0,0,0-.16.32l-.27.7a7,7,0,0,0-.54.86c-.16.1-.21.26-.16.64a7.53,7.53,0,0,1-.8,1.18v.16c-.06.16,0,.27-.11.38a3.19,3.19,0,0,0-.38.69,2.87,2.87,0,0,1-.64,1.08c-.05.05-.05.16-.11.32s0,.16-.05.21,0,.22-.05.27-.11.05-.06.11a3.13,3.13,0,0,0-.43.8l-.21.38.43-.33a1.32,1.32,0,0,0,.59-.42l.53-.43a2.07,2.07,0,0,0,1-.81l-.05.06c.05-.16.16-.22.43-.33a2,2,0,0,0,.69-.64c.38-.16.81-.64,1.18-.7a4.78,4.78,0,0,1,.86-.64l.59-.48.48-.11-.05.05a.31.31,0,0,1,.27-.1c.11,0,.27-.06.27-.32a1.53,1.53,0,0,1,.75-.38l.32-.27-.05.11.53-.16a1.45,1.45,0,0,1,.43-.38h0l.16-.21a.4.4,0,0,0,.16-.06l1.34-.32a1.67,1.67,0,0,1,.75.11,4.42,4.42,0,0,1,1.13.59c0,.05,0,.05.05.05.11.16.32.22.27.32a.23.23,0,0,0,.05.17c.11.26.32.64.11.75l-.27.37c0,.06,0,.11-.11.22a7.25,7.25,0,0,1-.32.91l-.27.32a2.7,2.7,0,0,1-.91,0,3,3,0,0,0-.11-.43,1,1,0,0,0,.17-.54,1.38,1.38,0,0,1,.26-.64,1.51,1.51,0,0,1,.06-.53l.05-.38h-.32l0,0Zm-22.37,5.2c.22-.11.65.37.86.27s.86-.75,1-.86a7.42,7.42,0,0,1,1.5-1.66c.64-.59.86-2.2,1.39-2.9a1.18,1.18,0,0,0,.11-.38c-.11-.21-.16-.32-.32-.32s-.43.11-.54.11c-.21.43-1.55.75-1.66,1a14.47,14.47,0,0,0-1,1.18c-.32.43-.7.8-.75,1.18-.43.54-.27,1.34-.64,1.93C290.44,476,290.6,476.22,290.6,476.33Zm19.79-5.79c-.21.1-.32.16-.26.16a.37.37,0,0,0,.21-.06Zm.22-.11a.46.46,0,0,1-.22.11C310.39,470.48,310.5,470.48,310.61,470.43Zm.43-.11-.43.11h.11A.45.45,0,0,0,311,470.32Zm1.93.81-.06.05H313S313,471.13,313,471.13Z" transform="translate(-81.06 -75.02)" style="fill: #fff"/>
      <path d="M322.46,476.7c.06-.1.16-.21.11-.26l.22-.75.26-.81.49-.43c-.11-.16,0-.43.21-.75v-.37l.22-.22v.05c0-.05.1-.1.1-.16a2.24,2.24,0,0,1,.32-.8,3.77,3.77,0,0,0,.33-.59.61.61,0,0,1-.22.05,4.46,4.46,0,0,1-.53.27.63.63,0,0,1-.27.32h-.33a.85.85,0,0,0-.53.27.49.49,0,0,1-.16.38,1.22,1.22,0,0,0-.64.32l-.44.27a.54.54,0,0,1-.26.21,1.5,1.5,0,0,1-.49.54v-.06l-.32.49L320,475l-.43.37c-.22.16-.49.38-.49.38a2.71,2.71,0,0,0-.69.59c0,.11-.54.43-.7.43s-.11,0-.11.16-.32.37-.48.48l-.16.16a2.18,2.18,0,0,0-.54.65,2.36,2.36,0,0,0-.16.21c-.32,0-.43.16-.59.38l-.16-.06.06.27c-.33,0-.54.16-.54.27a1,1,0,0,1-1.07.53c-.27.06-.49-.05-.49-.48,0-.05-.05-.16-.05-.21a.29.29,0,0,1,0-.16c-.38-.22,0-.92.16-1,0-.06.1-.11.16-.16l-.11-.11a2.13,2.13,0,0,0,.32-.64l.06-.16.32-.49.16-.21a.78.78,0,0,0,.27-.43.7.7,0,0,1,.05-.32l.43-.59.22-.16a7.2,7.2,0,0,0,.48-.75c0-.06.05-.11.05-.17l.32-.53.32-.43.49-.48-.06-.06.22-.27V472a4.33,4.33,0,0,1,.91-1.24l.16-.1.43-.59.7-.86a6.06,6.06,0,0,0,.75-.8l.43-.65c.43-.43.43-.43.91-.05.1.11.1.11.27.11s.1.16.37.21a.56.56,0,0,1,0,1l-.75.21h.05a.5.5,0,0,1-.32.16l.11.06c-.05.05-.05.27-.11.43l-.43.48-.43.54-.16.1-.26.54-.11.05a1.19,1.19,0,0,1-.81.7.92.92,0,0,1-.32.64c0,.11-.11.11-.27.22a.94.94,0,0,0-.16.43c-.21.05-.37.43-.48.64l-.64.86a10.51,10.51,0,0,0-1.08,1.39l.38-.43a15.17,15.17,0,0,0,1.29-1.18l.43-.37a4.35,4.35,0,0,0,1.07-1.07l.21-.43a.51.51,0,0,0,.22-.06.22.22,0,0,0,.11-.05.47.47,0,0,1,.37-.38H320l.53-.53a.84.84,0,0,0,.59-.27,2.53,2.53,0,0,1,.65-.43l.32-.16h0l.26-.16a.17.17,0,0,0,.06-.11,10,10,0,0,1,2.14-1,1.73,1.73,0,0,1,.43.1,1.64,1.64,0,0,1,.38.11c.05,0,.1,0,.16,0a.72.72,0,0,0,.26.11,1.84,1.84,0,0,1,.6.86,2,2,0,0,1-.27,1.45,1.43,1.43,0,0,0-.11.43l-.22.69a1.06,1.06,0,0,0,.06.22l-.65,1a.84.84,0,0,0-.1.33l-.27.59a.42.42,0,0,0-.11.26.68.68,0,0,1-.21.59v-.05a2.61,2.61,0,0,0-.16.64,1,1,0,0,1-.11.27.19.19,0,0,0,.05.16c.06,0,.06-.05.16-.05s.17-.05.27-.38h.59a1.48,1.48,0,0,1,.75-.53.21.21,0,0,0,.06-.11.46.46,0,0,1,.48-.38.37.37,0,0,1,.16-.32,2.69,2.69,0,0,1,.48-.26c.11.1.16,0,.22-.11.59-.27,1-.81,1.71-1.13a2.92,2.92,0,0,0,.7-.48,4.34,4.34,0,0,1,.48-.48l.22-.11h-.06l.38-.27a6,6,0,0,1,1.39-1c.11,0,.38-.27.7-.49l.54-.16-.06-.05.27-.22a10.84,10.84,0,0,1,1.66-.53c.06,0,.11,0,.11-.06a.56.56,0,0,1,.32-.16l1.13.06a1.59,1.59,0,0,1,1.07.37h0a.36.36,0,0,0,.21.11,4,4,0,0,1,1,1.72,1.17,1.17,0,0,1,.06.48c0,.11.05.21.05.37.16.59.16.92-.05.59-.11.43-.06.49,0,.65l.26.64v-.05a2.24,2.24,0,0,1,.33.8.22.22,0,0,0,0,.11H340a.18.18,0,0,0,.16-.06,1.67,1.67,0,0,0,.54-.16l.21-.05c.06,0,.16-.11.27-.16a2.5,2.5,0,0,1,.91-.38l.22-.1a1.38,1.38,0,0,1,1.12-.38,2,2,0,0,0,.06.54,1.4,1.4,0,0,0-.7.43,1.65,1.65,0,0,0-.27.53,4.29,4.29,0,0,1-.21.59v-.05a.59.59,0,0,1-.43.27l-.32.21-.22.11a3.29,3.29,0,0,1-.7.11,1.24,1.24,0,0,1-.43.05h-.42a1.37,1.37,0,0,0-.92-.54c-.21-.16-.32-.26-.48-.85v.05c-.1-.11-.21-.22-.27-.22a1.14,1.14,0,0,1-.48-.75l-.05-.26a.32.32,0,0,1-.06-.22,2.48,2.48,0,0,1,0-1.07,1.66,1.66,0,0,1,0-.7c-.16,0-.16-.16-.1-.43,0,0,0-.1-.11-.16s-.05-.16-.05-.27,0-.32,0-.43a3.12,3.12,0,0,0-.65-.05c-.21.05-.75.27-1,.38l-.75.32a.38.38,0,0,0-.16.21c-1.23.54-1.61.7-1.88.86h.06l-.65.48-.37.33-.22.1-.48.32-.16.17V475l-.27.38c-.21.05-.43.16-.48.32l-.75.59-.27.11a2,2,0,0,0-.37.26h0l-.22.22-.48.32h.06l-.7.54a2,2,0,0,1-.32.16c-.16.1-.27.32-.43.43l-.11.1a2.73,2.73,0,0,0-.64.38l-.54.32-.43.11-.59.11a1.37,1.37,0,0,1-1.07-.43l-.27-.22-.54-.27a2.89,2.89,0,0,1-.21-1.44A.66.66,0,0,1,322.46,476.7Z" transform="translate(-81.06 -75.02)" style="fill: #fff"/>
      <path d="M353.14,472.9c-.16,0-.16,0-.21.37v.06a1.9,1.9,0,0,0-.38.75,1.39,1.39,0,0,0-.21,1.23c.21.43.16,1.07.59,1.34-.05.32.32.32.37.48s.27.22.54,0c.11,0,.16-.05.21-.05a6.65,6.65,0,0,0,3.22-.91,11.72,11.72,0,0,0,3-2,.76.76,0,0,0,.69-.37c.54-.48,1.67-1.24,2.52-1.83.59-.05.86-1,1.45-1.18.16-.37.59-.48.91-.64v.11l-.53.91-.7.64-2.84,2.74-2.25,2h-.17c-.1,0-.42,0-.48.16a1.43,1.43,0,0,1-.59.54,2.41,2.41,0,0,0-.7.43,14.68,14.68,0,0,1-2.94,1,2.72,2.72,0,0,1-1.94-.22c-.37-.16-.85-.38-.91-1a.56.56,0,0,0-.27-.1c-.64-.11-.69-.59-.85-1.13a.23.23,0,0,0-.16-.21.19.19,0,0,0-.27.1c-.38.54-1,.81-1.34,1.34l-.16.17-.33.16c-.16.05-.26.32-.42.48s-.33.05-.6.16c0,.16-.32.22-.48.22s-.27.1-.27.26-.1.16-.26.16c-.7,0-1.45.22-1.88-.48-.22-.32-.65-.64-.75-1.13a4,4,0,0,1,.05-.85c.05-.33.27-.49.27-.7a1.28,1.28,0,0,1,.05-.27,4.23,4.23,0,0,0,.54-1,2,2,0,0,1,1-1.13,1.19,1.19,0,0,1,.37-.91,20.55,20.55,0,0,1,1.83-2l1.28-1.07a2.88,2.88,0,0,1,1.88-.32c.75.1,1.18.75,1.83,1.07.05,0,.05.11.16.11.53.21.59.8.8,1.18C353.79,471.93,353.84,472.84,353.14,472.9Zm-1.5-2c-.21-.22-.48-.38-.75-.22s-.7-.05-.86.49c-.32,0-.59.32-.8.53s-.43.49-.59.49c-.32,0-.38.05-.43.21a1.18,1.18,0,0,1-.48.7c-.27.1-.27.21-.38.48l-.53.8a14,14,0,0,0-1.45,3,.25.25,0,0,0,.26.27c.11,0,.17-.17.22-.17.7-.48,1.5-.69,2.09-1.18l.32-.16h.06c0-.21.05-.37.32-.37.05,0,.21,0,.21-.05.06-.27.27-.38.54-.43s.27-.27.32-.43a.46.46,0,0,1,.38-.32c.05,0,.1-.17.27-.22.1-.21.16-.27.16-.43s.42-.48.32-.59c0-.59.37-.91.48-1.34l.37-1A0,0,0,0,0,351.64,470.86Zm-3.43,6.49s0,0-.16.1c.11,0,.11.17.16.17a.2.2,0,0,1,.21-.22A.31.31,0,0,0,348.21,477.35Z" transform="translate(-81.06 -75.02)" style="fill: #fff"/>
      <path d="M363.28,473.54c.27,0,.32-.16.22-.32l-.16-.06h.16l-.06-.48h.11l.81-2.41.26-.54c.32-.27.22-.64.38-1.12a45.93,45.93,0,0,1,2.2-4.4c.16,0,.26-.7.26-.7.43-.48.49-.48.54-.48l.11,0c-.38-.27-.11-.49-.11-.65s.22-.32.27-.54,0-.42.38-.37l.16-.05c-.27-.7.1-.76.32-1.08,0-.21.37-.53.27-.69s.16-.22.32-.65c-.32.06-.59,0-1.07.06-.11.1-.43.05-.81.05l-.59.11c-.8.16-1.56.21-2.47.43-.69.16-1.55.21-2.36.37a4.72,4.72,0,0,1-1.55.22,1.11,1.11,0,0,1-1-.27c-.21-.27-.48-.43-.64-.65s-.05-.32.27-.32a3.13,3.13,0,0,1,1.23-.21c.06,0,.06-.06.27-.11a3.88,3.88,0,0,1,.75-.11c.16,0,.38,0,.64,0,0-.05.11-.11.17-.11a1.28,1.28,0,0,0,.91,0,8.22,8.22,0,0,1,1-.16.93.93,0,0,0,.42-.05c.27-.06.54-.27.81-.16a6.15,6.15,0,0,0,1.5-.22,11.26,11.26,0,0,1,1.88-.21,2,2,0,0,0,.53-.11.61.61,0,0,0,.22-.05c.27.16.59.05.8.05l.54-.86c.11-.27.21-.48.43-.43,0-.16.37-.21.27-.48a6.66,6.66,0,0,1,1-2.31v.11c.05,0,.05,0,.05-.11h-.05c-.11-.1-.06-.42,0-.42.32,0,.59-.06.64-.49v-.27l1.29-1.82,1.18-1.34,1.55-2,.59-.75,1.4-1.77c.32-.22.8-.27,1.18-.49h.1c.27.65.81.06,1,.32.32.11.64.11.59.38a1.82,1.82,0,0,1,.32.59c0,.21-.11.43,0,.59l.05.32c-.64.81-.85,2.31-1.82,3.17-.16,0-.32.53-.37.75s-.43.21-.43.75a1.46,1.46,0,0,1-.11.37s-.06.22-.22.22c-.1-.22-.32.91-.64,1-.75.8-.7,2.14-1.66,2.68,0,.21-1,.59-1,.8l.06.16c.48.54-.11.54-.43.65l-.11.1c.16,0,.32,0,.32.06.22.21.59-.06.7.11,0,0,.16,0,.21-.06.32-.43,1-.16,1.45-.27a2.17,2.17,0,0,1,.59-.05h.22c.32.27.75-.05,1.18.21.16-.32.48-.1.91-.16a.7.7,0,0,1,.8.16s.16,0,.16-.05.32-.16.43-.11a3.61,3.61,0,0,1,1.5,0c.06.06.27-.05.38,0a21.92,21.92,0,0,1,2.73.49,1.73,1.73,0,0,1,.49.21c.1.05.05.16-.06.16l-.91.16a.66.66,0,0,1-.48,0c-.22-.32-.75-.1-1-.16a1.32,1.32,0,0,0-.7.06c-.27,0-.43.1-.53-.06s-.27-.05-.27.06-.22.16-.43.1-.59,0-.75-.16c0-.05-.11,0-.16,0,.05.27-.33.06-.54.16s-.27.11-.27-.1v-.11h-.16c-.75.27-1,.43-1.39.32-.06,0-.06-.05-.11-.05s0-.06.05-.06l.27-.1s-.27-.11-.32-.06a2.28,2.28,0,0,0-.64.06,2.36,2.36,0,0,0-.33.05.51.51,0,0,0-.58.11l-.33.16c-.1.05-.16,0-.21,0s0-.11.05-.11.16-.11.11-.21a1.07,1.07,0,0,0-.43-.06c-.16,0-.48.06-.64.06s-.16.1-.16.05c-.54-.11-.59.11-.86.11-.05,0-.27.05-.27.1s-.11.16-.27.11-.21,0-.21,0,.1.17-.11.17a.43.43,0,0,1-.21-.11.17.17,0,0,1-.11-.06v.06c0,.21-.11.27-.22.48a2.7,2.7,0,0,0-.69,1.29l-.59.48c-.16.21-.43.43-.38.81l-.59.69-.54.43-.32.65-.64.58c0,.22-.38.33-.22.59-.05.22-.16.22-.16.22.06.8-2.36,2.63-2.68,2.84-.43.38-.11.65-.32,1.07a5.1,5.1,0,0,1-.7.92l-.91,1.23-.27,1.34-.37.48-.11,1.08c-.11.16-.37.32-.32.59,0,.64-.38,1.18-.38,1.82,0,0,0,.16-.1.05a10.39,10.39,0,0,1-.22,1.83,7.31,7.31,0,0,0,.16.91c.43.8.59,1.77,1.88,1.93a7.69,7.69,0,0,0,2.2-.22c.59-.26,1.18-.37,1.77-.59l.8-.37.91-.32.16.05-.58.48c-.17.06-.65-.1-.43.22-.27.1-.43.16-.43.32h-.16l-.16.11c.1,0,.16.16.16.16.16.05.16.16,0,.27a1.54,1.54,0,0,1-.59.16l-.65.21c-.16.16-.48.38-.64.32,0,0-.21,0-.21.06-.27.43-.92.1-1.35.27-.21,0-.42.1-.59-.22h-.58c-.38-.27-.76-.32-1.13-.75,0-.22-.16-.22-.43-.38a2.55,2.55,0,0,1-.54-.32c-.16-.48-.75-.91-.91-1.45s-.37-1.12-.11-1.71l-.1-.65c0-.1.16-.32.1-.48s-.16-.27-.1-.32-.06-.27,0-.27l.21-.21a.39.39,0,0,0-.05-.32l.05-1.08.17-.05ZM371,461.9a16,16,0,0,0,2.09-3.32c-.1.05-.21,0-.32,0-.38,0-.75.05-1.13.05-1.28,2.31-3.27,6.33-2.73,5.79Zm5.52-8c.49-.11.6-.8.6-.8-.43-.27.05-1,.53-1a4.25,4.25,0,0,0,1-1.23l.75-1.13c1.07-1.71.59-1.88,1-1.93.05,0-.38-.59.05-.75l.27-.32.11-.86A21.06,21.06,0,0,0,378,449l-.75,1a16.56,16.56,0,0,0-3.75,5c-.22.37-.33,1.23-1,1.34l-.17.64s-.26,0,0,.11c0,.05-.05.05-.05.11h.05c.16.05.38-.06.65-.06h.37c.16-.21.32-.37.32-.05.16,0,.27-.05.43-.05a2,2,0,0,0,1-.7C375.56,455.57,375.56,454.55,376.47,453.91Zm-3.86,4.72c.06,0,0,.27.11.27,0,.16-.11.16-.11.16Z" transform="translate(-81.06 -75.02)" style="fill: #fff"/>
      <path d="M373.1,473.65a5.18,5.18,0,0,1,.43-.32c.21-.33.75-1.51,1-1.77s.16-.27.38-.33a8.27,8.27,0,0,1,.64-.75c.22-.32.81-.64,1.07-.37s.17.53.54.91a3.89,3.89,0,0,1-.86,1.5c-.48.38-.59,1.23-1,1.72-.33.27-.33.59-.49.86a6,6,0,0,0-.75,1.82c0,.05-.05.11-.05.16s.11.21.21.27c.38-.16.75.1,1.18,0a12.7,12.7,0,0,1,1.45-.27,5.1,5.1,0,0,0,1-.48,8.57,8.57,0,0,1,1.45-.75,14.8,14.8,0,0,0,3.91-2.47,8.5,8.5,0,0,1,1.18-.91c.05-.11.05-.06.16-.11.48-.21,1-.8,1.34-1,.64-.27,1.13-.86,1.66-1.08.11-.05.17-.21.27-.05s-.05.16-.1.21c-.22.22-.43.43-.43.54.1.59-4.88,4.67-5.15,4.83-.11,0-.27.16-.22.32s-.05.16-.1.1c-.65.43-1,.76-1.5,1l-.22.22c-.05.11-.43.05-.64.16s-.33.21-.49.27a2.53,2.53,0,0,1-1,.53c-.42.17-1,.11-1.5.27a1.75,1.75,0,0,1-.86.27c-.1,0-.32-.05-.48-.05a9.83,9.83,0,0,1-1.55-.59c-.27-.11-.22-.49-.33-.65s-.05-.1-.1-.27c-.32-.32-1-1.5-.59-1.93A9.51,9.51,0,0,1,373.1,473.65Zm4.45-7.94c0,.16-.22.21-.16.48a1,1,0,0,1,.05.7c-.05.27-.05.21-.32.16a.74.74,0,0,1-.75-.54l-.21-.16a1.27,1.27,0,0,1-.43-.85c-.11-.22,0-.38.1-.38.43.11.81-.11,1.29-.11l.05.06c.27-.06.33.05.43.43Z" transform="translate(-81.06 -75.02)" style="fill: #fff"/>
      <path d="M396.86,471.61c-.32.37-.05.91-.38,1.55,2.1.54,4.72-.64,7.3-1.71,2.41-1,1.5.16.21.8-1.82.91-5.41,2.79-8.2,1.88-.06.05-.11.05-.11.11a5.85,5.85,0,0,1-.54.75.08.08,0,0,0,0,.11c-.64.26-.69,1-1,1.34s-.59.43-.81.69c-.16.06-.27.06-.37.16-.43.7-1.24,1.18-1.77,2-.06.11-.11.21-.22.21a3.29,3.29,0,0,0-1.12.7,5,5,0,0,1-2.52.86,2.06,2.06,0,0,1-1.51-.75,2.24,2.24,0,0,1-.53-1.08.12.12,0,0,1,.05-.21,1.66,1.66,0,0,1-.53-1.56,10.18,10.18,0,0,1,.69-2.94l.11-.38c.05-.16.05-.38.21-.48.43-.7.7-1.56,1.13-2.2a37.76,37.76,0,0,1,2.25-3.65,6.49,6.49,0,0,1,.43-.75.57.57,0,0,1,.38-.27,1.31,1.31,0,0,1,1.45.7c.16.38.16.54-.11.8s-.54.86-1.08,1.08c-.1.05-.15.32-.26.48-.27.48-.32,1-.86,1.23-.22.06-.22.38-.32.59a2.17,2.17,0,0,1-.59,1.08l-.06.16a2.73,2.73,0,0,1-.48,1.18,4.09,4.09,0,0,0-.7,1.12l-.05.16-.16.75c-.05.11-.16.16-.11.33s-.1.43-.1.59a.21.21,0,0,1-.11.16c.43.26.11.59.05.8a5.2,5.2,0,0,1-.16.86c0,.16-.11.37.11.43a2.54,2.54,0,0,0,.91.05,7,7,0,0,0,2.47-1.39l.64-.38c.21-.27.7-.37.75-.86,0-.05.05-.1.16-.16.75-.48,1.18-1.28,1.88-1.87.11-.16.16-.38.37-.43s.22-.16.22-.22.11-.37.37-.75a3.79,3.79,0,0,1-.85-1.12,2,2,0,0,1-.38-1.67c1.23-2.68,4.56-1.34,4.34.27a.27.27,0,0,1-.1.38l-.06.05c0,.05-.05.05-.05.11C396.91,471.66,397.18,471.45,396.86,471.61Zm-6.33-4.45a.22.22,0,0,0,.05.11c.11.1.16.32.43.26v0c0-.27-.27-.32-.43-.32Zm5.63,3.54c-.8-1.67-2.63.16-1.66,1.12a4.36,4.36,0,0,0,.48.54c.43-.59.86-1.07,1-1.07A.82.82,0,0,1,396.16,470.7Z" transform="translate(-81.06 -75.02)" style="fill: #fff"/>
      <path d="M416.49,474l-.06-.11c0,.11-.32.27-.53.32l.05.06-.37.37-.38.49-.21,0a.56.56,0,0,0-.38.27c0,.05-.21.32-.37.32l-.22.11c-.11.1-.16-.38-.32-.33l.05.11c0,.16.06.27-.16.32h0a1.81,1.81,0,0,1-.27.11l-.11.21c0,.17-.8.43-.8.49-.11.32-.59.37-1,.32-.16-.05-.21-.11-.21.21,0,0,.05.22-.06.22a1.55,1.55,0,0,1-.59.16l-.53.27c-.06,0-.11.05-.17.05s-.1,0-.21.05-.16.11-.21.11a.39.39,0,0,1-.43.38h-.11l-.37.16c-.11,0-.22-.05-.33.11v-.06c-.05.16-.27.11-.43.11a1.12,1.12,0,0,1-.59,0,2.46,2.46,0,0,1-1.82-.26.78.78,0,0,1-.7-.22l-.59-.48c-.05-.11-.16-.16-.27-.38a1.17,1.17,0,0,1-.42-.75l-.27-.21c0-.06-.11-.22-.22-.49a8.53,8.53,0,0,1,0-1.6c-.05-.38-.21-.7.54-1.4.48-.48.43-.48.48-.64v0c.38-.75.27-.32.38-.48l.8-.86.59-.54c.06,0,.11,0,.11-.1a1,1,0,0,0,.37-.27,1,1,0,0,1,.6-.27.87.87,0,0,0,.42-.11l.49-.16.21.06c.32,0,.7,0,.86.48a.26.26,0,0,1,.16.11.11.11,0,0,0,.11.1,1.39,1.39,0,0,1,.75,1.56c-.06,0-.06.11-.06.11-.16-.06-.26.05-.1.21l-.11.32a.85.85,0,0,0-.54.48l-.26.17-.27.26a1.2,1.2,0,0,1-.7.54,1.34,1.34,0,0,1-.54.75l-.16.16a3.47,3.47,0,0,1-1,.38c-.1.1-.37.1-.53.1l-.81.11c-.32-.05-.48.16-.43.32s.06.49.32.59a2.05,2.05,0,0,0,1.35.86,7.29,7.29,0,0,0,2.73-.59l.38-.11a5.16,5.16,0,0,0,1.12-.53l.43-.11a1.53,1.53,0,0,1,.65-.27c.1,0,.85.06.69-.16l.38-.32c.05-.16.21-.21.48-.21s.38-.11.43-.33l.86-.53a7.16,7.16,0,0,0,.91-.65l.7-.43a.5.5,0,0,1,.48-.26c.81.26.86-1.08,1.61-1.08.64-.53,1.88-1.55,1.93-1a11.61,11.61,0,0,1-2.57,2.52A1.94,1.94,0,0,1,416.49,474Zm-8.31-2.68-.06-.06-.53.22c-.06.21-.22.21-.27.16h-.11l-.32.11c-.27.16-.48,0-.59.37a2.31,2.31,0,0,1-.27.16c-.7.27-.7.75-1,.86s-.33.75-.11.7l.21-.06a4.57,4.57,0,0,0,1-.48l1.39-1.18.27-.32.43-.37A.17.17,0,0,0,408.18,471.29Z" transform="translate(-81.06 -75.02)" style="fill: #fff"/>
      <path d="M217.07,504.62a7.82,7.82,0,1,1-7.84,7.82A7.7,7.7,0,0,1,217.07,504.62Zm0,14.08a6.27,6.27,0,1,0-6.17-6.26A6.05,6.05,0,0,0,217.07,518.7Z" transform="translate(-81.06 -75.02)" style="fill: #fff"/>
      <path d="M236.71,504.62a7.59,7.59,0,0,1,5.75,2.55l-1.15,1a6,6,0,0,0-4.6-2,6.27,6.27,0,0,0,0,12.53,5.94,5.94,0,0,0,4.67-2.12l1.14,1a7.57,7.57,0,0,1-5.81,2.63,7.82,7.82,0,1,1,0-15.63Z" transform="translate(-81.06 -75.02)" style="fill: #fff"/>
      <path d="M247.13,504.9h8.51v1.55h-6.83v4.78h6.42v1.55h-6.42v5.62h7V520h-8.66Z" transform="translate(-81.06 -75.02)" style="fill: #fff"/>
      <path d="M266,504.9h1.29L273.61,520H271.8l-1.55-3.71H263L261.39,520h-1.81Zm3.65,9.78-3-7.17-3,7.17Z" transform="translate(-81.06 -75.02)" style="fill: #fff"/>
      <path d="M278.29,504.9h1.47L288.85,517V504.9h1.68V520h-1.36L280,507.77V520h-1.68Z" transform="translate(-81.06 -75.02)" style="fill: #fff"/>
      <path d="M307.28,516a3.92,3.92,0,0,0,3.78,2.72c2.74,0,3-1.88,3-2.66,0-1.79-1.26-2.42-3.37-3.35-2.29-1-4-1.9-4-4.34a3.81,3.81,0,0,1,4.12-3.73A4.27,4.27,0,0,1,315,507l-1.45.73a2.68,2.68,0,0,0-2.63-1.58,2.26,2.26,0,0,0-2.42,2.14c0,1.62,1.25,2.14,3.07,3,2.76,1.23,4.25,2.22,4.25,4.75s-1.64,4.23-4.73,4.23a5.22,5.22,0,0,1-5.2-3.6Z" transform="translate(-81.06 -75.02)" style="fill: #fff"/>
      <path d="M320.75,504.9h4.81a4.58,4.58,0,1,1,0,9.16h-3.13V520h-1.68Zm4.75,7.6a3,3,0,0,0,0-6.05h-3.07v6.05Z" transform="translate(-81.06 -75.02)" style="fill: #fff"/>
      <path d="M338.89,504.9h1.3L346.56,520h-1.82l-1.55-3.71h-7.3L334.33,520h-1.81Zm3.65,9.78-3-7.17-3,7.17Z" transform="translate(-81.06 -75.02)" style="fill: #fff"/>
      <path d="M357.23,504.62a7.57,7.57,0,0,1,5.75,2.55l-1.14,1a6,6,0,0,0-4.61-2,6.27,6.27,0,0,0,0,12.53,5.93,5.93,0,0,0,4.67-2.12l1.15,1a7.59,7.59,0,0,1-5.82,2.63,7.82,7.82,0,1,1,0-15.63Z" transform="translate(-81.06 -75.02)" style="fill: #fff"/>
      <path d="M367.65,504.9h8.51v1.55h-6.82v4.78h6.41v1.55h-6.41v5.62h7V520h-8.66Z" transform="translate(-81.06 -75.02)" style="fill: #fff"/>
      <path d="M381.78,516a3.92,3.92,0,0,0,3.78,2.72c2.74,0,3-1.88,3-2.66,0-1.79-1.26-2.42-3.37-3.35-2.29-1-4-1.9-4-4.34a3.82,3.82,0,0,1,4.13-3.73,4.27,4.27,0,0,1,4.06,2.4l-1.45.73a2.68,2.68,0,0,0-2.63-1.58,2.26,2.26,0,0,0-2.42,2.14c0,1.62,1.25,2.14,3.07,3,2.76,1.23,4.25,2.22,4.25,4.75s-1.64,4.23-4.73,4.23a5.22,5.22,0,0,1-5.2-3.6Z" transform="translate(-81.06 -75.02)" style="fill: #fff"/>
    </g>
    <g>
      <path d="M97,390.46c-4.89-1.9-7.27-2-7.27-4.5,0-1.43,1.38-2.47,3.63-2.47a6.45,6.45,0,0,1,5.41,2.34l4.46-3.38a11.77,11.77,0,0,0-10-4.93c-5.37,0-10,3.11-10,8.52,0,4.85,3,7.19,7.31,8.75S98,397,98,399.64c0,1.42-1.17,3-4.5,3a8.5,8.5,0,0,1-7.58-4L81.06,402c1.87,3.64,5.89,6.67,12.38,6.67,7.66,0,11.21-3.9,11.21-9.22C104.65,395.09,102.4,392.54,97,390.46Z" transform="translate(-81.06 -75.02)" style="fill: #fff"/>
      <path d="M126.32,378.05a12.06,12.06,0,1,0,12.41,12.06A12.1,12.1,0,0,0,126.32,378.05Zm0,18.18a6,6,0,0,1-6-6.12,6,6,0,1,1,6,6.12Z" transform="translate(-81.06 -75.02)" style="fill: #fff"/>
      <path d="M166.31,395.26c0,5.28-2.46,7.32-6.14,7.32s-6.19-2-6.19-7.32V378h-6.67v18c0,8.52,5.8,12.68,12.86,12.68S173,404.48,173,396V378h-6.67Z" transform="translate(-81.06 -75.02)" style="fill: #fff"/>
      <polygon points="111.95 302.97 105.28 302.97 105.28 333.14 123.72 333.14 123.72 327.08 111.95 327.08 111.95 302.97" style="fill: #fff"/>
      <path d="M252.65,402.58a9.5,9.5,0,1,1,0-19,10.24,10.24,0,0,1,7.66,3.42l4.55-3.85a16,16,0,0,0-12.21-5.63c-9,0-16.23,6.58-16.23,15.58s7.27,15.54,16.23,15.54A16,16,0,0,0,264.9,403l-4.54-3.85A10.25,10.25,0,0,1,252.65,402.58Z" transform="translate(-81.06 -75.02)" style="fill: #fff"/>
      <polygon points="215.12 314.18 202.05 314.18 202.05 302.97 195.39 302.97 195.39 333.14 202.05 333.14 202.05 320.24 215.12 320.24 215.12 333.14 221.79 333.14 221.79 302.97 215.12 302.97 215.12 314.18" style="fill: #fff"/>
      <path d="M326.74,378l-12.47,30.17h7.1l2-5.06H336l2,5.06h7.09L332.67,378Zm-1.43,19.78,4.42-10.95,4.37,10.95Z" transform="translate(-81.06 -75.02)" style="fill: #fff"/>
      <path d="M379.41,388a10.05,10.05,0,0,0-10.26-10H356.51v30.17h6.62v-10h4.46l6.28,10h7.53L374,396.52A9.14,9.14,0,0,0,379.41,388Zm-11,4.28h-5.28v-8.18H369a3.77,3.77,0,0,1,3.76,4A4,4,0,0,1,368.41,392.23Z" transform="translate(-81.06 -75.02)" style="fill: #fff"/>
      <polygon points="308.16 309.03 316.34 309.03 316.34 333.14 323.01 333.14 323.01 309.03 331.06 309.03 331.06 302.97 308.16 302.97 308.16 309.03" style="fill: #fff"/>
      <polygon points="349.02 320.63 362.04 320.63 362.04 314.7 349.02 314.7 349.02 309.03 362.95 309.03 362.95 302.97 342.35 302.97 342.35 333.14 363.26 333.14 363.26 327.08 349.02 327.08 349.02 320.63" style="fill: #fff"/>
      <path d="M479.94,388a10.05,10.05,0,0,0-10.26-10H457v30.17h6.62v-10h4.46l6.28,10h7.53l-7.36-11.64A9.14,9.14,0,0,0,479.94,388Zm-11,4.28h-5.28v-8.18h5.85a3.77,3.77,0,0,1,3.76,4A4,4,0,0,1,468.94,392.23Z" transform="translate(-81.06 -75.02)" style="fill: #fff"/>
      <path d="M506.51,390.46c-4.89-1.9-7.27-2-7.27-4.5,0-1.43,1.38-2.47,3.63-2.47a6.45,6.45,0,0,1,5.41,2.34l4.46-3.38a11.77,11.77,0,0,0-10-4.93c-5.37,0-10,3.11-10,8.52,0,4.85,3,7.19,7.31,8.75s7.58,2.21,7.58,4.85c0,1.42-1.17,3-4.5,3a8.5,8.5,0,0,1-7.58-4L490.62,402c1.86,3.64,5.89,6.67,12.38,6.67,7.66,0,11.21-3.9,11.21-9.22C514.21,395.09,512,392.54,506.51,390.46Z" transform="translate(-81.06 -75.02)" style="fill: #fff"/>
    </g>
    <rect x="38.35" y="330.49" width="13.54" height="3.16" style="fill: #fff"/>
    <path d="M385.82,160.17c-.21-21.2-11.1-42.92-30-59.69a108.31,108.31,0,0,0-14.72-11l-.06,0a99.75,99.75,0,0,0-28.73-12.2,1.79,1.79,0,0,0-.4-.09A75.86,75.86,0,0,0,294.41,75c-21.61,0-44.21,9.39-62,25.75-2.18,2-4.23,4.07-6.18,6.2a0,0,0,0,1,0,0c-13.59,14.91-21.51,32.83-22.24,50.52a1.43,1.43,0,0,0,0,.36c0,.76-.07,1.53-.07,2.3,0,1.37,0,2.74.14,4.09,0,0,0,0,0,.07V314.81l180.34.61H386V160.79A1.6,1.6,0,0,0,385.82,160.17Zm-83.14,48.68c.46-9.52-5.83-20.64-12-25.62A22.27,22.27,0,0,0,295.11,170a18.26,18.26,0,0,0-18.24-18.24,1.58,1.58,0,1,0,0,3.16A15.11,15.11,0,0,1,292,170a19.28,19.28,0,0,1-19.26,19.26,24.5,24.5,0,0,1-24.46-24.46,31,31,0,0,1,31-31,39.15,39.15,0,0,1,39.11,39.1A49.13,49.13,0,0,1,302.68,208.85Zm-30.54,13.2a29.38,29.38,0,0,0,9-31.35,22.56,22.56,0,0,0,7.53-5.06c6.8,5.37,12.7,18,10.32,26.34A48.94,48.94,0,0,1,272.14,222.05ZM239,214.38c17.18-1.63,25.91-13.46,28.06-22.6a27.5,27.5,0,0,0,5.63.58,22.79,22.79,0,0,0,5.45-.69,26.2,26.2,0,0,1-11.52,30.43A61.54,61.54,0,0,1,239,214.38ZM245.1,165c-7-.34-15.6-4.5-21.94-10.71-4.57-4.46-10-11.9-9.84-22a.24.24,0,0,0,0-.08,85.52,85.52,0,0,1,12.18-19.53c-.72,26.73,10.5,36.77,21.05,42.28a34.2,34.2,0,0,0-1.44,9.82C245.09,164.82,245.1,164.89,245.1,165ZM221,156.51c7,6.81,16.56,11.33,24.37,11.6a27.15,27.15,0,0,0,3.07,9.7c-7.59,1.93-18.6,2.35-27.39-2.33-6.66-3.55-11.32-9.55-13.87-17.83a67.29,67.29,0,0,1,3.65-19.06A35.1,35.1,0,0,0,221,156.51Zm-1.43,21.75a37.8,37.8,0,0,0,17.78,4.11,48,48,0,0,0,12.83-1.77,27.55,27.55,0,0,0,5.26,5.63c-3.43,3.46-10.93,7.25-19.75,8.28-6,.69-14.51.31-21.37-5.36a61.41,61.41,0,0,1-6.92-23A29.89,29.89,0,0,0,219.52,178.26Zm11.73,19.66a41.35,41.35,0,0,0,4.76-.28c8.82-1,17.72-4.95,22-9.57a27.16,27.16,0,0,0,6,2.87c-1.66,6.81-9.15,20.48-29,20.48h-.8a62.54,62.54,0,0,1-16.33-16.31A31.52,31.52,0,0,0,231.25,197.92ZM275.16,80.67a39.62,39.62,0,0,0-12.08,18.62c-3.63,11.48-3,25.43,1.42,34.67a34.23,34.23,0,0,0-9.81,7.1C244.3,126.87,243,108.23,251.21,90.7A91.55,91.55,0,0,1,275.16,80.67Zm36.61-.28a94.6,94.6,0,0,1,23.71,9.47c-24.18,4.71-38.89,25.06-44.55,42.43a41.65,41.65,0,0,0-10.71-1.64,1.39,1.39,0,0,0,.09-.54C279.63,116.18,288.42,86.47,311.77,80.39Zm52.17,33a84.78,84.78,0,0,1,13.62,22.38c-21.71-6-42.47-1.58-63.3,13.55a42.52,42.52,0,0,0-8.64-9.37c13.35-15.12,27.55-30.23,57.64-26.5A1.7,1.7,0,0,0,363.94,113.36Zm-42.82,54.1a52.9,52.9,0,0,1,61.67,3.65v37.73a49.85,49.85,0,0,0-22.63-21.94c-14.11-7-29.69-7.51-39.46-5.08a52.7,52.7,0,0,0,.78-8.94A42.17,42.17,0,0,0,321.12,167.46Zm61.67-6.13v5.79a56.12,56.12,0,0,0-62.24-3,42,42,0,0,0-4.63-12.1c20.78-15.15,41.42-19.27,63-12.55a65.54,65.54,0,0,1,3.73,21.36A1.62,1.62,0,0,0,382.79,161.33ZM361,110c-30.07-2.73-45,13.33-57.93,28a41.84,41.84,0,0,0-9.15-4.76c2.58-7.6,14.54-37.16,45.83-40.89a106,106,0,0,1,14,10.46C356.32,105.14,358.74,107.54,361,110ZM305.76,79.14c-10.68,4.61-17.35,13.62-21.2,20.91-6,11.36-7.76,23-7.41,30.21a1.44,1.44,0,0,0,.11.42,33.81,33.81,0,0,0-9.85,2c-4.17-8.55-4.74-21.65-1.32-32.49,2.17-6.87,7-16.1,17.41-21.24a75.92,75.92,0,0,1,10.91-.82A69.11,69.11,0,0,1,305.76,79.14Zm-71.21,24a100.76,100.76,0,0,1,12-9.42c-6.71,17.54-4.56,35.76,6,49.81a34,34,0,0,0-5,8.44C237,146.28,227,136.33,228.82,108.84,230.63,106.87,232.54,104.94,234.55,103.09Zm-27.37,77.46a65.88,65.88,0,0,0,4.34,10.17l.12.23a65.65,65.65,0,0,0,21.16,23.32,1.82,1.82,0,0,0,.23.15,64.65,64.65,0,0,0,33.82,10.84l.19,0,.13,0c.62,0,1.25,0,1.87,0a52.12,52.12,0,0,0,32.16-11.07,1.43,1.43,0,0,0,.24-.19,52.9,52.9,0,0,0,12.88-14.78c7.09,0,21.56,5.46,32.5,17.8,8.38,9.44,17.37,26.22,12.63,52.54-3.25,18-23.85,41.07-25.12,42.47l-127.15-.43ZM338.52,312.11c5.54-6.44,21.1-25.67,24-41.93,5-27.57-4.52-45.23-13.36-55.2C338.41,202.84,324.12,197,316,196.23a51.48,51.48,0,0,0,4-10.94c9.27-2.83,25.24-2.23,38.78,4.44a46.62,46.62,0,0,1,24,27.13v95.4Z" transform="translate(-81.06 -75.02)" style="fill: #fff"/>
  </g>
</svg>
