<svg width="201" height="201" viewBox="0 0 201 201" fill="none" xmlns="http://www.w3.org/2000/svg">
<g clip-path="url(#clip0)">
<path d="M101.781 62.9641C101.708 62.9641 101.635 62.9641 101.562 62.9641C101.196 62.8216 100.976 62.4655 101.122 62.1094C102.441 58.1919 99.2919 51.8528 95.9236 49.6448C95.6307 49.4311 95.4842 49.0037 95.7039 48.6476C95.9236 48.3627 96.3629 48.2203 96.7291 48.4339C100.244 50.7132 104.198 57.6221 102.514 62.4655C102.367 62.7504 102.074 62.9641 101.781 62.9641Z" fill="white"/>
<path d="M86.3311 67.8072C86.1114 67.8072 85.8185 67.6648 85.7453 67.4511C85.5256 67.095 85.6721 66.6676 86.0382 66.5252C91.2371 63.6049 93.4338 57.6219 91.3836 51.995C91.2371 51.6389 91.4568 51.2115 91.8229 51.1403C92.189 50.9979 92.6284 51.2115 92.7016 51.5677C94.9715 57.8356 92.5551 64.4596 86.7704 67.736C86.5508 67.8072 86.4775 67.8072 86.3311 67.8072Z" fill="white"/>
<path d="M71.4666 62.9645C71.2469 62.9645 71.0273 62.9645 70.8076 62.9645C70.4415 62.9645 70.0754 62.6083 70.1486 62.2522C70.1486 61.8961 70.5147 61.5399 70.8808 61.6112C81.2054 61.8961 84.6469 54.631 85.0863 51.782C85.1595 51.4258 85.5256 51.1409 85.8918 51.2122C86.2579 51.2834 86.5508 51.6395 86.4775 51.9956C85.7453 56.4117 81.2054 62.9645 71.4666 62.9645Z" fill="white"/>
<path d="M69.7094 55.4852C66.9269 55.4852 63.5586 54.8441 60.776 52.4937C60.4831 52.28 60.4099 51.7814 60.7028 51.4965C60.9957 51.2116 61.4351 51.1404 61.728 51.4253C64.9498 54.0606 68.9771 54.2743 71.7596 53.9182C76.2995 53.4196 80.1072 51.3541 81.4252 49.6446C81.6449 49.3597 82.0842 49.2885 82.4503 49.5022C82.7432 49.7159 82.8165 50.1432 82.5968 50.4993C80.8394 52.7786 76.3728 54.8441 71.9793 55.3427C71.2471 55.4139 70.5148 55.4852 69.7094 55.4852Z" fill="white"/>
<path d="M72.4918 48.433C69.7093 48.433 66.8535 47.9344 64.2175 46.5811C60.7027 44.8004 58.2863 41.7377 57.0415 37.5354C56.8951 37.1793 57.1147 36.7519 57.5541 36.6807C57.9202 36.5382 58.3596 36.7519 58.4328 37.1793C59.6044 41.0255 61.8011 43.732 64.9497 45.3702C69.4164 47.6495 75.0546 47.2221 78.5694 46.1537C78.9355 46.0113 79.3749 46.225 79.4481 46.5811C79.5945 46.9372 79.3749 47.3646 79.0087 47.4358C77.1781 48.0768 74.9082 48.433 72.4918 48.433Z" fill="white"/>
<path d="M76.5923 42.0231C72.9311 42.0231 68.318 39.9575 64.9497 36.7524C61.6546 33.6184 59.8972 29.7722 59.9705 25.7835C59.9705 25.4274 60.3366 25.1425 60.7027 25.0713C61.0688 25.0713 61.4349 25.4274 61.4349 25.7835C61.3617 30.342 63.8513 33.6896 65.9748 35.7552C69.1235 38.7467 73.5169 40.741 76.8852 40.5986C77.2513 40.5986 77.6174 40.8835 77.6174 41.2396C77.6174 41.5957 77.3245 41.9519 76.9584 41.9519C76.812 42.0231 76.6655 42.0231 76.5923 42.0231Z" fill="white"/>
<path d="M77.6908 36.3964C77.6176 36.3964 77.4711 36.3964 77.3979 36.3252C72.0526 33.7611 66.1214 29.0601 67.1465 14.8862C67.1465 14.53 67.5127 14.2451 67.8788 14.2451C68.2449 14.2451 68.5378 14.6012 68.5378 14.9574C67.5127 28.2054 72.7116 32.5502 77.9837 35.0431C78.3498 35.1856 78.4963 35.6129 78.2766 35.9691C78.2034 36.254 77.9837 36.3964 77.6908 36.3964Z" fill="white"/>
<path d="M80.5465 31.6246C80.3269 31.6246 80.1072 31.5534 79.9607 31.3397C74.2493 24.3596 73.4438 15.029 77.764 6.26814C77.9105 5.91201 78.3498 5.76956 78.7159 5.91201C79.082 6.05446 79.2285 6.48182 79.082 6.83795C75.0547 15.1002 75.787 23.9322 81.1323 30.4138C81.352 30.6987 81.352 31.126 80.9859 31.411C80.8394 31.5534 80.693 31.6246 80.5465 31.6246Z" fill="white"/>
<path d="M86.1116 27.6361C85.892 27.6361 85.5991 27.4936 85.4526 27.2799C83.1094 23.1488 82.6701 16.4536 84.4275 10.9692C85.5258 7.55031 87.9422 2.99184 93.3608 0.498924C93.7269 0.356472 94.1663 0.498924 94.3127 0.855055C94.4592 1.21118 94.3127 1.63854 93.9466 1.78099C89.0406 4.06023 86.7706 8.33379 85.7455 11.3965C84.0614 16.5248 84.4275 22.7927 86.6242 26.6389C86.8439 26.995 86.6974 27.4224 86.3313 27.5648C86.4045 27.6361 86.2581 27.6361 86.1116 27.6361Z" fill="white"/>
<path d="M91.7497 25.5701C91.3836 25.5701 91.0907 25.2851 91.0174 24.929C90.871 21.7238 91.6764 16.4531 94.459 11.3248C96.5092 7.47862 100.39 2.56402 106.907 0.997045C107.273 0.925819 107.713 1.1395 107.786 1.49563C107.859 1.85176 107.639 2.27912 107.273 2.35034C96.2896 4.98571 92.1158 18.5187 92.4819 24.8578C92.4819 25.2139 92.189 25.5701 91.7497 25.5701Z" fill="white"/>
<path d="M97.9006 27.422C97.8273 27.422 97.7541 27.422 97.6809 27.422C97.3148 27.2796 97.0951 26.9234 97.1683 26.5673C99.7312 18.0914 107.346 7.76362 120.087 6.41032C120.454 6.3391 120.82 6.624 120.893 7.05136C120.966 7.40749 120.673 7.76362 120.234 7.83484C104.271 9.54427 99.0722 25.214 98.4864 26.9946C98.4864 27.2083 98.1935 27.422 97.9006 27.422Z" fill="white"/>
<path d="M103.173 30.058C103.026 30.058 102.806 29.9868 102.733 29.9155C102.44 29.6306 102.44 29.2033 102.66 28.9184C108.957 22.0094 116.06 14.1033 131.217 15.9552C131.583 16.0265 131.876 16.3826 131.803 16.7387C131.73 17.0948 131.364 17.3797 130.998 17.3085C116.646 15.5991 110.056 22.8642 103.685 29.8443C103.539 29.9868 103.392 30.058 103.173 30.058Z" fill="white"/>
<path d="M108.079 35.1856C107.859 35.1856 107.639 35.1144 107.493 34.9007C107.273 34.6158 107.347 34.1884 107.639 33.9035C117.964 26.3536 128.215 24.3592 139.053 27.7781C139.419 27.9205 139.638 28.2767 139.492 28.6328C139.345 28.9889 138.979 29.2026 138.613 29.0602C128.289 25.855 118.403 27.7781 108.518 35.0431C108.372 35.1856 108.225 35.1856 108.079 35.1856Z" fill="white"/>
<path d="M140.81 43.7338C140.663 43.7338 140.517 43.6626 140.37 43.5914C130.558 35.6852 118.257 37.181 111.081 41.9531C110.788 42.1668 110.275 42.0956 110.056 41.7395C109.836 41.4546 109.909 40.956 110.275 40.7423C117.891 35.6852 130.851 34.047 141.249 42.4517C141.542 42.6654 141.615 43.164 141.322 43.4489C141.176 43.6626 140.956 43.7338 140.81 43.7338Z" fill="white"/>
<path d="M140.81 64.602C140.517 64.602 140.224 64.3883 140.151 64.1034C138.247 58.619 134.366 54.3454 128.947 51.71C122.504 48.5761 114.815 48.4336 110.568 49.7869C110.202 49.9294 109.763 49.7157 109.689 49.3596C109.616 49.0034 109.763 48.5761 110.129 48.5049C114.522 47.0803 122.504 47.0803 129.606 50.4992C135.391 53.277 139.492 57.8355 141.542 63.676C141.688 64.0322 141.469 64.4595 141.103 64.5307C140.956 64.602 140.883 64.602 140.81 64.602Z" fill="white"/>
<path d="M118.037 108.192C117.891 108.192 117.671 108.121 117.525 107.979C117.232 107.694 117.232 107.267 117.452 106.982C117.525 106.839 127.63 96.1553 129.167 87.7506C131.364 75.8558 127.19 68.3059 123.309 64.0323C118.037 58.263 110.935 55.8413 107.859 55.9837C107.493 55.9837 107.127 55.6988 107.127 55.3427C107.127 54.9866 107.42 54.6304 107.786 54.6304C111.227 54.4168 118.843 56.9809 124.408 63.1064C128.508 67.5936 132.902 75.5709 130.632 88.0355C129.021 96.7963 118.989 107.48 118.55 107.979C118.477 108.121 118.257 108.192 118.037 108.192Z" fill="white"/>
<path d="M60.7027 169.518H60.483C60.4098 169.518 60.3366 169.589 60.2634 169.589C60.1901 169.518 60.1169 169.518 60.1169 169.518C60.1169 169.518 59.9705 169.518 59.8972 169.518C59.824 169.518 59.7508 169.518 59.7508 169.446C59.7508 169.375 59.8972 169.375 59.8972 169.304H59.824C59.7508 169.304 59.7508 169.304 59.6776 169.304C59.3847 169.518 59.0918 169.518 58.7257 169.446C58.9453 169.233 59.0918 169.304 59.165 169.304C59.2382 169.304 59.3115 169.304 59.3847 169.304H59.2382C59.165 169.304 59.0918 169.304 59.0186 169.304C58.7989 169.233 58.5792 169.233 58.2863 169.304C58.2131 169.304 57.9934 169.304 57.847 169.304C57.6273 169.375 57.4808 169.375 57.2612 169.375C57.1147 169.375 56.9683 169.375 56.8951 169.375L56.7486 169.446C56.7486 169.446 56.6754 169.446 56.6754 169.375C56.6022 169.375 56.6022 169.304 56.6022 169.304C56.6022 169.304 56.5289 169.304 56.4557 169.304C56.3825 169.304 56.236 169.375 56.0896 169.446C55.9431 169.518 55.8699 169.66 55.7967 169.802C55.7235 169.874 55.577 170.016 55.5038 170.159C55.5038 170.159 55.4306 170.23 55.4306 170.301L55.2841 170.444C55.2841 170.515 55.2109 170.586 55.2109 170.586C54.9912 170.728 54.9912 170.8 54.9912 170.942C54.9912 171.013 54.918 171.013 54.918 171.085C54.8448 171.369 54.6983 171.583 54.5519 171.797L54.4787 171.939C54.4787 171.939 54.4054 172.01 54.3322 172.082C54.259 172.224 54.1125 172.295 54.1125 172.367C54.0393 172.438 53.9661 172.509 53.8929 172.58C53.8929 172.58 53.7464 172.652 53.7464 172.723L53.6732 172.794C53.6732 172.865 53.6732 172.936 53.6 173.008V173.079C53.5268 173.079 53.5268 173.15 53.5268 173.15C53.5268 173.221 53.5268 173.293 53.4535 173.364L53.3803 173.293C53.3071 173.506 53.2339 173.649 53.0874 173.791C52.941 173.934 52.941 174.076 52.941 174.147C52.941 174.218 52.941 174.29 52.8677 174.432H52.7213C52.7213 174.432 52.7213 174.503 52.6481 174.503C52.5748 174.575 52.5748 174.575 52.5748 174.646C52.5748 174.646 52.5748 174.717 52.5748 174.788L51.989 175.714L51.7694 175.857C51.6961 175.928 51.6229 175.999 51.5497 176.142C51.5497 176.213 51.4765 176.284 51.4765 176.355C51.5497 176.427 51.5497 176.498 51.4765 176.569L51.4033 176.64C51.1836 176.925 51.0371 177.139 50.8175 177.352H50.7442C50.5978 177.566 50.5246 177.637 50.3781 177.922L50.4513 177.851C50.4513 178.065 50.3781 178.207 50.3049 178.278C50.3049 178.278 50.2317 178.35 50.2317 178.421L50.012 178.706C50.012 178.919 49.7923 179.062 49.6459 179.133V179.204L49.4262 179.418C49.2798 179.489 49.2065 179.632 49.2065 179.845C49.0601 179.988 48.8404 180.629 48.7672 180.843C48.694 180.985 48.6207 181.056 48.5475 181.199C48.4011 181.341 48.3278 181.555 48.2546 181.697L48.0349 182.267C47.8885 182.552 47.7421 182.908 47.6688 183.193L47.5224 184.119C47.5224 184.119 47.5224 184.119 47.5224 184.261C47.5956 184.333 47.5956 184.404 47.5956 184.475L47.6688 184.618L47.3027 184.689C47.3027 184.689 47.1563 184.689 47.1563 184.618V184.546C46.9366 184.261 46.8634 183.905 46.9366 183.549C46.9366 183.478 47.0098 183.407 47.0098 183.407C47.083 183.264 47.083 183.051 47.2295 182.908C47.3027 182.766 47.3759 182.694 47.3759 182.623C47.3759 182.552 47.5224 182.481 47.5224 182.41L47.6688 181.982C47.7421 181.84 47.8153 181.697 47.8885 181.555C47.8153 181.555 47.8153 181.555 47.8153 181.626C47.7421 181.697 47.7421 181.697 47.7421 181.768L47.5956 182.053C47.5956 182.196 47.4492 182.267 47.3759 182.41H47.3027L47.3759 182.125C47.5224 181.84 47.6688 181.484 47.8153 181.199C47.9617 180.985 48.1814 180.273 48.3278 180.13L48.4011 179.917C48.4011 179.845 48.4743 179.703 48.4743 179.703C48.4743 179.703 48.5475 179.703 48.6207 179.703C48.694 179.703 48.7672 179.703 48.9136 179.56L48.9869 179.276C48.9869 179.347 48.9136 179.347 48.9136 179.347C48.9136 179.489 48.7672 179.56 48.6207 179.632C48.694 179.489 48.8404 179.347 48.8404 179.276L48.9869 179.062C49.0601 178.919 49.0601 178.848 49.1333 178.848C49.2065 178.706 49.353 178.563 49.353 178.35L49.5727 178.065L49.7923 177.637C49.7923 177.566 49.7923 177.495 49.8656 177.424C50.0852 177.352 50.1584 177.21 50.1584 176.996H50.3781C50.3781 176.996 50.3781 176.925 50.3049 176.854C50.2317 176.783 50.3049 176.711 50.3781 176.569C50.4513 176.355 50.5978 176.284 50.671 176.142C50.671 176.07 50.8175 175.928 50.8907 175.857V175.714L50.9639 175.572C50.9639 175.572 51.0371 175.501 51.1104 175.429C51.1836 175.287 51.2568 175.216 51.4033 175.144L51.4765 175.216C51.4033 175.287 51.4033 175.287 51.4033 175.358C51.4033 175.358 51.4765 175.287 51.4765 175.216C51.6962 175.002 51.7694 174.788 51.7694 174.575V174.503C51.8426 174.432 51.7694 174.432 51.8426 174.361C51.9158 174.361 51.9158 174.361 51.989 174.29L52.1355 174.219C52.2087 174.076 52.2087 174.005 52.2819 173.934C52.3552 173.862 52.4284 173.791 52.4284 173.72C52.5748 173.577 52.6481 173.506 52.7945 173.364C52.7945 173.293 52.8677 173.293 52.8677 173.221C52.941 173.079 52.941 173.008 52.941 172.936L53.0142 172.794L53.0874 172.723C53.0142 172.509 53.0874 172.509 53.2339 172.58H53.3071C53.3071 172.58 53.3071 172.509 53.3071 172.438C53.3803 172.367 53.3803 172.295 53.3803 172.224C53.3803 172.082 53.3803 172.01 53.4535 171.939C53.4535 171.868 53.5268 171.797 53.6732 171.797C53.7464 171.726 53.8929 171.654 53.8929 171.512C54.1125 171.298 54.1125 171.156 54.1858 171.013L54.3322 170.8C54.3322 170.728 54.3322 170.728 54.3322 170.657C54.4054 170.586 54.4054 170.515 54.4054 170.444C54.4054 170.301 54.4054 170.23 54.4787 170.23C54.5519 170.087 54.6251 170.016 54.6983 169.874L54.8448 169.731C54.918 169.518 55.0645 169.375 55.1377 169.233C54.918 169.233 54.6251 169.233 54.4787 169.233C54.1858 169.233 53.8196 169.304 53.4535 169.375C53.4535 169.375 53.3071 169.375 53.2339 169.375C53.2339 169.375 53.1606 169.375 53.0874 169.375C53.0142 169.375 53.0142 169.375 52.941 169.375C52.7945 169.518 52.7213 169.518 52.5748 169.518C52.4284 169.518 52.2819 169.518 52.0623 169.518C51.5497 169.589 51.0371 169.731 50.5978 169.802C50.5246 169.874 50.3781 169.802 50.3049 169.802H50.2317H50.1584C50.0852 169.874 50.012 169.874 49.9388 169.874C49.8655 169.874 49.8656 169.874 49.7191 169.874C49.6459 169.874 49.5727 169.874 49.4994 169.874C49.4994 169.874 49.4262 169.945 49.2798 170.016C49.1333 169.874 48.9869 170.087 48.7672 170.23H48.4743C48.3278 170.23 48.1082 170.23 47.9617 170.301C47.8885 170.23 47.7421 170.301 47.7421 170.372C47.6688 170.372 47.5224 170.444 47.4492 170.372H47.3759C47.1563 170.444 46.8634 170.586 46.6437 170.586L46.2776 170.657C46.2043 170.586 46.0579 170.657 45.9115 170.728H45.765C45.765 170.728 45.6186 170.8 45.5453 170.8H45.3989L45.1792 170.871C45.106 170.871 44.9595 170.942 44.8863 170.871C44.8131 170.871 44.8131 170.871 44.8131 170.942C44.6666 171.013 44.5934 171.013 44.3737 171.013C44.3737 171.013 44.3005 171.013 44.3005 171.085C44.2273 171.085 44.1541 171.156 44.0809 171.156C43.9344 171.156 43.7147 171.298 43.6415 171.298C43.4951 171.369 43.2754 171.441 43.1289 171.441H42.9093C42.7628 171.512 42.6164 171.512 42.3967 171.512C42.1038 171.583 42.0306 171.369 42.1038 171.085V171.013C42.1038 170.942 42.177 170.8 42.1038 170.8C42.1038 170.728 42.177 170.586 42.2503 170.586C42.3967 170.515 42.5431 170.444 42.6896 170.444L42.9093 170.372V170.444L43.0557 170.301C43.1289 170.301 43.1289 170.301 43.1289 170.159L43.3486 170.23H43.4218C43.6415 170.159 43.7147 170.23 43.9344 170.159H44.2273C44.3737 170.159 44.6666 170.087 44.5934 170.087L45.0328 170.016C45.106 170.016 45.1792 169.945 45.3257 169.945L45.3989 170.087L45.2524 170.23C45.106 170.23 44.9595 170.301 44.7399 170.301H44.5934C44.5934 170.301 44.5202 170.372 44.447 170.372C44.3737 170.372 44.447 170.372 44.447 170.372L45.106 170.23L45.3989 170.159C45.4721 170.159 45.5453 170.087 45.5453 170.087L45.9847 170.016C46.0579 170.016 46.2043 169.945 46.424 169.945H46.5705C46.7169 169.874 46.8634 169.874 47.0098 169.945C47.0098 169.945 47.1563 169.945 47.2295 169.874C47.2295 169.874 47.3027 169.802 47.3759 169.802C47.5224 169.731 47.7421 169.731 47.8885 169.66L48.1814 169.589C48.3278 169.589 48.6207 169.589 48.8404 169.589C49.0601 169.589 49.4262 169.518 49.5727 169.446L50.0852 169.304C50.2317 169.304 50.4513 169.233 50.5978 169.233C50.7442 169.304 50.7442 169.304 50.7442 169.375C50.8907 169.233 51.0371 169.233 51.2568 169.161L51.4033 169.09C51.9158 169.09 52.3552 169.019 52.8677 168.948C52.941 169.019 53.0142 168.948 53.0142 168.948C53.2339 168.948 53.3803 168.948 53.5268 168.948C53.6732 168.948 53.8929 168.948 54.0393 168.948C54.259 168.877 54.6251 168.877 54.8448 168.877C54.9912 168.948 55.0645 168.877 55.1377 168.805H55.2841C55.2841 168.663 55.2841 168.592 55.5038 168.307C55.577 168.378 55.7235 168.378 55.7967 168.378C55.9431 168.378 56.0896 168.449 56.236 168.592C56.3093 168.734 56.3825 168.805 56.6022 168.734C56.8218 168.663 56.9683 168.663 57.188 168.663C57.3344 168.663 57.5541 168.663 57.7005 168.663C57.7737 168.663 57.9202 168.592 58.0666 168.663H58.2131C58.2131 168.663 58.2863 168.663 58.2863 168.734C58.2863 168.734 58.3595 168.734 58.4328 168.663C58.506 168.592 58.6524 168.592 58.6524 168.663H59.3115C59.5311 168.592 59.8972 168.592 60.1169 168.592H60.4098C60.5563 168.592 60.8492 168.592 60.9956 168.663C61.0688 168.663 61.2153 168.663 61.2885 168.663H61.8011C61.9475 168.663 62.094 168.663 62.1672 168.663C62.3136 168.663 62.5333 168.663 62.8262 168.734C62.8262 168.734 62.8994 168.734 62.9727 168.734L63.3388 168.877C63.412 168.877 63.5584 168.877 63.7049 168.948C63.8513 169.019 64.071 168.877 64.1442 169.019L64.2175 169.161C64.3639 169.304 64.5836 169.518 64.6568 169.731C64.73 169.874 64.73 170.159 64.73 170.444C64.6568 170.657 64.5104 170.728 64.3639 170.871C64.2907 170.871 64.2175 170.871 64.2175 170.871C64.3639 171.227 63.1923 171.298 63.2656 171.085C63.2656 171.013 63.4852 170.871 63.4852 170.871C63.4852 170.8 63.7781 170.657 63.5584 170.657L63.7781 170.444L63.9246 170.301C63.9978 170.23 64.071 170.159 64.071 170.087C64.1442 170.016 64.071 170.016 64.071 169.945H63.9978C63.9246 169.874 63.7781 169.802 63.7049 169.731L63.6317 169.66C63.412 169.66 63.412 169.66 63.3388 169.589C63.2656 169.66 63.2655 169.66 63.1191 169.731C63.1191 169.66 63.1191 169.66 63.0459 169.66C62.9727 169.731 62.8262 169.731 62.8262 169.589C62.8262 169.589 62.8262 169.518 62.6798 169.518C62.6065 169.518 62.4601 169.446 62.2404 169.446C62.094 169.375 62.0207 169.375 61.7278 169.518V169.375C61.7278 169.304 61.7278 169.233 61.8011 169.161C61.7278 169.161 61.6546 169.161 61.5082 169.375H61.4349C61.3617 169.375 61.2153 169.375 61.0688 169.304H60.9224C60.8492 169.304 60.7759 169.304 60.7759 169.233C60.7759 169.589 60.7027 169.66 60.7027 169.518ZM44.0809 170.586C43.9344 170.657 43.788 170.657 43.6415 170.657L43.4951 170.8C43.4951 170.8 43.5683 170.8 43.5683 170.728C43.788 170.657 43.9344 170.657 44.0809 170.586ZM44.3737 170.444L44.1541 170.586L44.3737 170.444ZM57.9202 179.133L57.7737 179.204L57.5541 179.347L57.3344 179.489L57.188 179.56C57.188 179.56 57.0415 179.632 56.8951 179.56C56.7486 179.703 56.6754 179.774 56.5289 179.845C56.3093 179.917 56.1628 180.059 56.0164 180.13C55.8699 180.273 56.1628 180.201 55.9431 180.273L55.8699 180.344L55.5038 180.486V180.558C55.5038 180.629 55.5038 180.629 55.3574 180.7C55.2109 180.7 55.1377 180.771 55.1377 180.843V180.914L54.4054 181.412L54.3322 181.484V181.555L54.1125 181.697L53.8929 181.84L53.7464 182.053L53.5268 182.267L53.4535 182.338L53.3071 182.481C53.3071 182.552 53.3071 182.552 53.0874 182.623L52.941 182.837C52.7945 182.908 52.7213 182.837 52.6481 182.766L52.5748 182.694C52.5748 182.694 52.5016 182.694 52.4284 182.766C52.3552 182.694 52.2819 182.623 52.2087 182.552C52.2087 182.552 52.2087 182.552 52.2087 182.481C52.1355 182.41 52.1355 182.267 52.2087 182.125L52.5748 181.199C52.7213 181.056 52.7945 180.843 52.8677 180.7C52.941 180.486 53.0874 180.201 53.1606 179.988L53.4535 179.632C53.4535 179.632 53.4535 179.56 53.4535 179.489C53.4535 179.418 53.5268 179.347 53.5268 179.276V179.204L53.7464 178.991C53.8197 178.919 53.8196 178.777 53.8196 178.706C53.8196 178.635 53.8929 178.635 53.8929 178.563C54.1125 178.421 54.1125 178.136 54.1858 177.922C54.1858 177.851 54.259 177.709 54.3322 177.637C54.4054 177.424 54.4787 177.352 54.5519 177.21L54.6983 176.996C54.8448 176.783 54.9912 176.783 55.1377 176.925C55.2841 176.996 55.3574 177.068 55.3574 177.139C55.4306 177.352 55.3574 177.424 55.3574 177.495C55.2109 177.566 55.2109 177.709 55.1377 177.78C55.0645 177.851 55.0645 177.922 55.0645 177.922L54.918 178.207C54.8448 178.278 54.7716 178.421 54.6983 178.563C54.6251 178.635 54.6251 178.706 54.6251 178.848C54.4787 179.062 54.4054 179.204 54.259 179.347V179.418C54.259 179.489 54.259 179.56 54.1858 179.56C54.1125 179.56 54.1125 179.703 54.0393 179.845C54.0393 179.988 53.8929 180.13 53.7464 180.273C53.7464 180.273 53.7464 180.344 53.6732 180.415V180.486C53.6732 180.558 53.6732 180.558 53.6732 180.629C53.6732 180.7 53.6 180.629 53.6732 180.7C53.6 180.843 53.5268 180.914 53.4535 181.056L53.3803 181.199L53.6 181.056C53.7464 181.056 53.8196 180.914 53.8196 180.843L54.0393 180.629C54.1858 180.558 54.4054 180.415 54.4787 180.273C54.4787 180.201 54.5519 180.201 54.6983 180.13C54.8448 180.059 54.918 179.917 54.9912 179.845C55.1377 179.774 55.3574 179.56 55.5038 179.56C55.6503 179.489 55.7235 179.347 55.8699 179.276C56.0896 179.133 56.0896 179.062 56.0896 178.991C56.236 178.919 56.3093 178.848 56.3825 178.848L56.5289 178.777L56.7486 178.706C56.7486 178.635 56.8951 178.563 56.9683 178.492C56.9683 178.492 56.9683 178.492 57.0415 178.492L57.6273 178.35C57.7005 178.35 57.847 178.35 57.9934 178.421C58.1399 178.492 58.3595 178.563 58.506 178.635C58.5792 178.706 58.6524 178.706 58.5792 178.777V178.848C58.6524 178.991 58.7257 179.133 58.6524 179.133L58.506 179.276V179.347C58.4328 179.489 58.3595 179.632 58.3595 179.703L58.2863 179.845C58.2131 179.845 57.9202 179.845 57.9202 179.845C57.847 179.774 57.847 179.703 57.847 179.632C57.9202 179.56 57.9202 179.489 57.9202 179.418C57.9934 179.276 57.9934 179.204 58.0666 179.133C58.0666 179.062 58.0666 178.919 58.0666 178.919V178.777L57.9202 179.133ZM62.753 179.845C62.6798 179.845 62.6798 179.845 62.6798 179.988C62.6065 180.13 62.5333 180.201 62.5333 180.273C62.3869 180.486 62.3869 180.629 62.4601 180.771C62.5333 180.985 62.5333 181.199 62.6798 181.341C62.6798 181.484 62.8262 181.484 62.8262 181.555C62.8994 181.626 62.9727 181.626 63.0459 181.555C63.1191 181.555 63.1191 181.555 63.1191 181.555C63.6317 181.484 64.071 181.412 64.5104 181.199C64.73 180.985 65.0229 181.056 65.8284 180.344C65.9748 180.344 66.0481 180.273 66.1213 180.201C66.341 179.988 66.8535 179.703 67.2197 179.418C67.4393 179.418 67.5858 178.991 67.8787 178.919C67.9519 178.777 68.0983 178.706 68.2448 178.635V178.706L68.0251 179.062L67.7322 179.347L66.4874 180.486L65.5355 181.341H65.4623C65.389 181.341 65.2426 181.341 65.2426 181.412C65.2426 181.484 65.0962 181.626 65.0229 181.626C64.9497 181.626 64.8033 181.697 64.73 181.84C64.2907 182.053 63.9246 182.125 63.4852 182.267C63.1923 182.338 62.9727 182.338 62.6798 182.196C62.5333 182.125 62.3136 182.053 62.3136 181.768C62.3136 181.768 62.2404 181.697 62.1672 181.697C61.8743 181.626 61.8743 181.484 61.8011 181.199C61.8011 181.127 61.7278 181.127 61.7278 181.127C61.6546 181.127 61.6546 181.127 61.5814 181.199C61.4349 181.412 61.1421 181.555 60.9956 181.768L60.9224 181.84L60.7759 181.911C60.7027 181.911 60.6295 182.053 60.5563 182.125C60.5563 182.125 60.4098 182.125 60.3366 182.196C60.3366 182.267 60.1901 182.267 60.1169 182.267C60.0437 182.267 59.9705 182.338 59.9705 182.41C59.9705 182.481 59.8972 182.481 59.824 182.481C59.5311 182.481 59.165 182.552 59.0186 182.267C58.9453 182.125 58.7257 181.982 58.7257 181.768C58.7257 181.626 58.7257 181.484 58.7257 181.412C58.7257 181.27 58.8721 181.199 58.8721 181.127C58.8721 181.056 58.8721 181.056 58.8721 180.985C58.9453 180.843 59.0918 180.7 59.0918 180.558C59.165 180.344 59.3115 180.201 59.5311 180.059C59.5311 179.917 59.6043 179.774 59.6776 179.703C59.8972 179.418 60.1901 179.133 60.483 178.848L61.0688 178.421C61.2885 178.278 61.6546 178.278 61.8743 178.278C62.1672 178.35 62.3869 178.563 62.6798 178.706C62.6798 178.706 62.6798 178.777 62.753 178.777C62.9727 178.848 62.9727 179.133 63.1191 179.276C63.0459 179.418 63.0459 179.774 62.753 179.845ZM62.1672 178.991C62.094 178.919 61.9475 178.848 61.8743 178.919C61.8011 178.991 61.5814 178.919 61.5082 179.133C61.3617 179.133 61.2885 179.276 61.1421 179.347C60.9956 179.418 60.9224 179.56 60.9224 179.56C60.7759 179.56 60.7759 179.56 60.7027 179.632C60.7027 179.774 60.5563 179.917 60.483 179.917C60.3366 179.988 60.3366 179.988 60.3366 180.13L60.1169 180.486C59.8972 180.843 59.6776 181.27 59.4579 181.768C59.4579 181.84 59.4579 181.911 59.6043 181.911C59.6776 181.911 59.6776 181.84 59.6776 181.84C59.9705 181.626 60.3366 181.555 60.5563 181.341L60.7027 181.27C60.7027 181.199 60.7027 181.127 60.8492 181.127H60.9224C60.9224 180.985 61.0688 180.985 61.1421 180.914C61.2153 180.914 61.2885 180.771 61.2885 180.7C61.2885 180.629 61.3617 180.558 61.4349 180.558C61.4349 180.558 61.5082 180.486 61.5814 180.486C61.6546 180.415 61.6546 180.344 61.6546 180.273C61.7278 180.201 61.8743 180.059 61.8011 180.059C61.8011 179.845 61.9475 179.703 62.0207 179.489L62.1672 178.991ZM59.9705 169.375C60.1169 169.446 60.1901 169.446 60.4098 169.375C60.2634 169.304 60.1901 169.375 60.1169 169.375H59.9705ZM60.6295 181.697C60.6295 181.768 60.6295 181.84 60.6295 181.84C60.6295 181.768 60.7027 181.768 60.7027 181.768C60.7027 181.697 60.7027 181.697 60.6295 181.697ZM78.5694 181.056C78.6426 180.985 78.6426 180.985 78.6426 180.914V180.843V180.771V180.629C78.6426 180.629 78.5694 180.558 78.5694 180.486C78.4962 180.415 78.4229 180.344 78.4961 180.201L78.3497 179.774C78.3497 179.774 78.3497 179.703 78.3497 179.632L78.2765 178.919C78.2765 178.848 78.2765 178.492 78.3497 178.35C77.3246 179.489 75.9333 181.412 74.2492 181.911L74.1027 181.982L73.883 182.125C73.6634 182.196 73.4437 182.267 73.2972 182.267H73.0776C72.9311 182.267 72.8579 182.267 72.6382 182.267H72.565C72.565 182.267 72.4918 182.267 72.4918 182.196L72.4186 182.125C72.4186 182.125 72.4186 182.125 72.3453 182.125C72.3453 182.125 72.3453 182.053 72.2721 182.053C72.2721 182.053 72.1989 182.053 72.0524 182.053C72.0524 181.982 71.9792 181.982 71.9792 181.911C72.0524 181.84 71.9792 181.768 71.9792 181.697L71.7595 181.341C71.6863 181.27 71.6863 181.199 71.5399 181.199V181.056L71.4666 180.7L71.3934 180.558C71.3934 180.415 71.3934 180.344 71.3202 180.273C71.3202 180.201 71.3202 180.201 71.3934 180.13C71.4666 179.988 71.3934 179.917 71.3202 179.774V179.56C71.3202 179.347 71.6131 178.706 71.4666 178.777L71.1737 178.848C71.0273 178.848 70.8076 178.991 70.8076 178.991L70.3683 179.276L70.0754 179.489L69.9289 179.632L69.7093 179.845L69.5628 179.917C69.4896 179.988 69.1967 180.273 69.4164 179.988L69.0503 180.344C68.977 180.415 68.9038 180.415 68.8306 180.558C68.7574 180.629 68.6841 180.629 68.6109 180.7V180.771C68.5377 180.843 68.4645 180.843 68.4645 180.843C68.4645 180.843 68.3912 180.914 68.3912 180.985C68.318 181.056 68.2448 181.199 68.0983 181.199C68.0251 181.27 67.8787 181.199 67.8787 181.412V181.484C67.659 181.626 67.5125 181.697 67.2929 181.84L67.0732 181.982L66.9268 182.125V182.196C66.7803 182.338 66.7071 182.409 66.4874 182.552C66.341 182.623 66.341 182.694 66.2677 182.766C66.1945 182.908 65.9748 182.908 65.9016 182.766C65.8284 182.623 65.8284 182.623 65.7552 182.552L65.6087 182.338C65.6087 182.267 65.6087 182.267 65.6087 182.196C65.6819 182.053 65.7552 181.84 65.8284 181.697C65.9016 181.555 65.9016 181.484 65.9016 181.484L66.0481 181.341L66.1213 181.199C66.1945 181.127 66.2677 180.914 66.341 180.771C66.341 180.771 66.341 180.7 66.4142 180.7L66.4874 180.629C66.5606 180.486 66.6339 180.201 66.7071 180.13L66.7803 180.059C66.8535 179.988 66.8535 179.917 66.9268 179.845L67.1464 179.489C67.2196 179.347 67.2929 179.204 67.3661 179.062L67.5125 178.777L67.659 178.563L67.8054 178.421C67.8054 178.35 67.8054 178.35 67.8054 178.35L67.8787 178.278C67.9519 178.207 67.9519 178.136 67.9519 178.136C67.9519 178.065 68.0251 177.993 68.0251 177.922L68.0983 177.78L68.2448 177.637H68.1716C68.2448 177.495 68.318 177.495 68.3912 177.566C68.5377 177.495 68.6841 177.566 68.7574 177.709V177.78V177.851C68.8306 177.922 68.7574 178.065 68.7574 178.065C68.6841 178.136 68.6109 178.207 68.6109 178.278V178.421L68.3912 178.635C68.3912 178.635 68.3912 178.706 68.3912 178.777C68.3912 178.991 68.2448 179.133 68.1716 179.204C68.0251 179.276 68.0251 179.418 67.9519 179.489L67.8787 179.632C67.8787 179.632 67.8054 179.774 67.7322 179.845L67.659 179.988C67.5125 180.13 67.3661 180.344 67.2929 180.558V180.629C67.1464 180.7 67.1464 180.843 67.0732 180.914L67 181.056L67.1464 180.914L67.4393 180.7C67.5125 180.7 67.4393 180.629 67.659 180.629L67.7322 180.558C67.7322 180.558 67.8054 180.486 67.8054 180.415C67.8054 180.344 67.8787 180.344 67.9519 180.344C67.9519 180.201 68.0251 180.13 68.0983 180.13H68.1716C68.1716 180.059 68.318 179.988 68.3912 179.988C68.3912 179.988 68.5377 179.917 68.6109 179.774C68.6841 179.703 68.7574 179.632 68.8306 179.56L69.0503 179.418C69.1235 179.347 69.1967 179.347 69.1967 179.347L69.2699 179.276H69.3431L69.4896 179.133C69.4896 179.133 69.5628 179.062 69.7093 179.062C69.7093 178.919 69.8557 178.848 69.9289 178.848L70.0754 178.777H70.1486C70.1486 178.777 70.1486 178.777 70.1486 178.706L70.2951 178.563C70.3683 178.492 70.4415 178.421 70.588 178.421L71.0273 178.207C71.1737 178.065 71.3202 178.065 71.3934 178.065H71.4666H71.5399C71.6131 178.136 71.4666 178.207 71.5399 178.207H71.6131C71.6863 178.278 71.7595 178.278 71.7595 178.35L71.906 178.492C72.0524 178.563 71.9792 179.276 71.9792 179.418C71.9792 179.489 71.9792 179.56 71.9792 179.632L72.0524 179.845V180.13C71.9792 180.273 72.0524 180.415 72.0524 180.486V180.558C71.9792 180.843 72.1257 181.127 72.2721 181.199C72.4918 181.341 72.6382 181.341 72.7847 181.341C72.9311 181.341 73.0043 181.341 73.0776 181.27C73.1508 181.27 73.2972 181.199 73.4437 181.27C73.5169 181.27 73.5901 181.199 73.5901 181.199C73.6634 181.127 73.7366 181.127 73.7366 181.127C73.883 181.056 73.9563 181.056 74.1027 181.056C74.1027 181.056 74.1027 181.056 74.1759 180.985C74.2492 180.914 74.3956 180.843 74.5421 180.843C75.2743 180.486 76.9584 179.133 78.3497 177.637V177.495C78.4229 177.281 78.2765 176.925 79.0087 176.64C79.741 175.999 79.5213 177.352 79.3016 177.424C79.3016 177.566 79.2284 177.637 79.1552 177.78C79.0819 177.851 79.0819 177.993 79.0819 177.993C79.0819 178.207 79.0087 178.919 79.2284 179.347L79.3016 179.774L79.3748 180.415L79.4481 180.629C79.6677 180.558 79.8142 180.486 79.9606 180.486H80.1071L80.3267 180.273H80.4L80.6196 180.344H80.8393C80.9125 180.344 80.9858 180.201 81.059 180.13C81.1322 180.059 81.2054 180.13 81.2787 180.059C81.3519 179.917 81.4251 179.917 81.4983 179.917C82.4502 179.56 82.4502 179.56 82.9628 179.276C82.9628 179.204 83.5486 178.991 83.6218 178.991C83.6951 178.919 83.7683 178.919 83.8415 178.777L84.0612 178.706C84.0612 178.706 84.1344 178.563 84.2076 178.563L84.3541 178.492C84.5005 178.421 84.5737 178.492 84.5737 178.492C84.4273 178.706 84.3541 178.706 84.2808 178.777L84.1344 178.919H84.0612C83.988 179.062 83.6218 179.347 83.4022 179.56L83.1825 179.632C83.1825 179.632 83.1093 179.703 83.036 179.703C83.036 179.703 82.9628 179.703 82.9628 179.774L82.4502 180.13L82.3038 180.201C82.2306 180.201 82.1574 180.273 82.0841 180.273L81.4983 180.558V180.629H81.3519C81.2054 180.7 81.059 180.843 80.8393 180.985C80.7661 180.985 80.6196 180.985 80.5464 181.127H80.2535C80.1803 181.199 80.0339 181.27 79.8874 181.27L79.741 181.341C79.741 181.412 79.6677 181.412 79.5945 181.484H79.6677C79.5945 181.484 79.4481 181.555 79.3748 181.555C79.3748 181.626 79.3748 181.626 79.3748 181.697L79.3016 181.84L79.3748 181.911C79.3016 181.911 79.3016 181.982 79.3016 181.982L79.0819 182.125H79.0087C79.0819 182.267 79.0087 182.409 78.8623 182.552L78.5694 182.694V182.766C78.4962 182.837 78.4229 182.837 78.3497 182.908V182.979L78.13 183.193C78.0568 183.264 77.9836 183.335 77.9104 183.335L77.6907 183.407L77.5442 183.549C77.5442 183.62 77.5442 183.62 77.471 183.62C77.3246 183.692 77.0317 183.763 76.8852 183.763H76.812C76.7388 183.763 76.6655 183.763 76.5923 183.763H76.4459H76.153C76.153 183.763 76.0798 183.62 76.153 183.549L76.0798 183.335V183.193C76.0065 183.122 75.9333 182.979 76.0065 182.908L76.0798 182.766C76.0798 182.694 76.153 182.552 76.2994 182.481V182.41L76.3727 182.196L76.5191 182.125C76.6656 181.982 76.812 181.911 77.0317 181.768C77.0317 181.768 77.1781 181.626 77.2513 181.626C77.3246 181.626 77.3246 181.626 77.3978 181.555L77.5442 181.412C77.5442 181.412 77.6175 181.412 77.6907 181.412L77.7639 181.341L78.2033 181.127L78.5694 181.056ZM78.4961 181.697C78.4961 181.626 78.4961 181.626 78.4961 181.697H78.2765L78.0568 181.911C77.9836 181.982 77.9104 182.053 77.8371 182.053L77.7639 182.125C77.7639 182.125 77.6907 182.196 77.471 182.196H77.3246C77.2513 182.196 77.1781 182.196 77.1049 182.338L76.9584 182.41C76.812 182.481 76.6655 182.766 76.5923 182.837L76.5191 183.051L76.5923 183.122C76.6655 183.122 76.812 183.122 76.9584 183.051H77.1781H77.2513C77.3246 183.051 77.471 182.979 77.5442 182.837C77.6175 182.766 77.8371 182.552 77.9836 182.41L78.13 182.196L78.3497 182.053V181.982C78.4962 181.84 78.4961 181.768 78.4961 181.697ZM82.7431 179.845V179.703V179.632C82.7431 179.632 82.7431 179.632 82.8164 179.632C82.8896 179.56 82.9628 179.56 83.036 179.56C83.1093 179.56 83.4754 179.703 83.4754 179.632C83.6218 179.632 83.6951 179.56 83.8415 179.418H84.0612C84.0612 179.204 84.2076 178.777 84.4273 178.635C84.4273 178.421 84.4273 178.278 84.5737 178.136C84.647 177.993 84.647 177.922 84.7934 177.851C84.7934 177.709 84.8666 177.637 84.9399 177.566C84.9399 177.495 85.0131 177.424 85.0131 177.352C85.1595 177.21 85.2328 177.068 85.306 176.925L85.5257 176.569C85.5257 176.427 85.5989 176.284 85.6721 176.213V176.142C85.8186 176.07 85.8186 175.928 85.8918 175.928L85.965 175.714L86.0382 175.643C86.0382 175.501 86.1114 175.429 86.1847 175.429C86.1847 175.358 86.2579 175.216 86.3311 175.144C86.2579 175.144 86.3311 175.073 86.3311 175.002L86.4043 174.86C86.5508 174.646 86.624 174.646 86.624 174.575C86.5508 174.432 86.6972 174.29 86.6972 174.219L86.8437 174.147H86.9901C86.9901 174.147 86.9901 174.076 86.9169 174.005C86.9901 173.934 86.9901 173.934 87.0634 173.862C87.0634 173.862 87.0634 173.72 87.1366 173.649C87.1366 173.577 87.2098 173.435 87.283 173.364L87.7224 172.723L87.7956 172.509C87.8688 172.367 87.942 172.295 88.0153 172.295L88.0885 172.153C88.0885 172.01 88.1617 171.939 88.2349 171.868C88.2349 171.797 88.3082 171.654 88.4546 171.512C88.5278 171.441 88.6743 171.369 88.6743 171.227L88.8207 171.013V170.942C88.8207 170.942 88.894 170.871 88.8207 170.8L88.894 170.657C89.1136 170.586 89.1136 170.515 89.1869 170.372C89.1869 170.372 89.1869 170.301 89.2601 170.23C89.4065 170.159 89.4798 170.016 89.553 169.945C89.6994 169.731 89.7726 169.518 89.8459 169.446C89.9923 169.304 90.0655 169.233 90.1388 168.948L90.3584 168.734C90.3584 168.663 90.4317 168.663 90.5781 168.592C90.5781 168.592 90.5781 168.592 90.5781 168.52L90.7978 168.164L91.2371 167.523C91.4568 167.238 91.53 166.882 91.9694 166.669H92.1158C92.189 166.811 92.2623 166.811 92.4087 166.811C92.4819 166.811 92.5552 166.953 92.5552 167.025V167.096C92.5552 167.238 92.4819 167.31 92.3355 167.381C92.189 167.452 92.189 167.523 92.189 167.594C92.0426 167.737 91.9694 167.808 91.8961 167.879C91.8229 167.951 91.8229 167.879 91.7497 168.164C91.7497 168.236 91.6765 168.307 91.6032 168.378L90.7978 169.518L90.6513 169.731C90.5781 169.731 90.5049 169.874 90.4317 170.016V170.159C90.4317 170.23 90.3584 170.372 90.212 170.444V170.515L90.1388 170.657C89.8459 170.942 89.6262 171.298 89.4798 171.583L89.3333 171.868L89.1869 172.082V172.153C89.1136 172.224 89.1136 172.367 88.9672 172.367L88.894 172.58C88.7475 172.865 88.6743 173.008 88.6011 173.079C88.4546 173.079 88.4546 173.15 88.4546 173.15C88.3814 173.364 88.3082 173.435 88.2349 173.577C88.2349 173.649 88.1617 173.72 88.1617 173.791C88.0153 174.076 87.7956 174.361 87.6492 174.646C87.5759 174.717 87.5027 174.86 87.4295 174.931C87.3563 175.073 87.3563 175.144 87.283 175.287L87.1366 175.501C87.1366 175.572 86.9901 175.714 86.9901 175.785C86.9901 175.928 86.9169 175.999 86.7705 176.142H86.6972C86.6972 176.142 86.624 176.213 86.624 176.284C86.624 176.498 86.4776 176.64 86.4043 176.64C86.3311 176.711 86.3311 176.783 86.3311 176.854L86.1847 177.139C86.1847 177.139 86.1847 177.21 86.1115 177.21C86.1115 177.281 86.1115 177.352 86.0382 177.424C85.965 177.495 85.8918 177.637 85.8918 177.709C85.8186 177.709 85.8186 177.78 85.8186 177.78L85.7453 177.922C85.7453 178.065 85.6721 178.136 85.5989 178.207L85.5257 178.492L85.306 178.919C85.306 178.991 85.2328 179.062 85.2328 179.133C85.1595 179.204 85.2328 179.347 85.1595 179.347C85.1595 179.418 85.1595 179.418 85.2328 179.418L85.1595 179.489L85.306 179.56L85.5257 179.703C85.5989 179.774 85.7453 179.917 85.8186 179.988L85.8918 180.059L86.0382 180.201H86.1115C86.2579 180.273 86.2579 180.273 86.3311 180.201L86.4776 180.13C86.624 180.201 86.6972 180.13 86.8437 180.059L86.9901 179.988H87.4295H87.5759L87.6492 179.917C87.7224 179.845 87.7224 179.845 87.7956 179.845C87.8688 179.917 88.0153 179.845 88.0885 179.774L88.1617 179.703C88.1617 179.703 88.1617 179.703 88.3082 179.703C88.6743 179.56 88.9672 179.489 89.2601 179.418H89.3333C89.3333 179.418 89.3333 179.347 89.4065 179.347C89.4065 179.276 89.4065 179.204 89.4798 179.276H89.553C89.553 179.276 89.6994 179.276 89.6994 179.204L89.9191 179.133L89.9923 179.062C90.0655 179.062 90.0655 179.062 90.1388 179.062C90.212 179.062 90.2852 179.062 90.2852 179.062C90.3584 178.991 90.4317 178.991 90.5049 178.991C90.6513 178.919 90.7246 178.919 90.7246 178.848C90.7978 178.777 90.871 178.777 90.9442 178.777H91.0907C91.0907 178.777 91.1639 178.919 91.1639 178.991C91.0907 178.991 91.0175 178.991 90.9442 178.991L91.0175 179.062V179.133L90.871 179.276L90.6513 179.418C90.5781 179.418 90.5049 179.489 90.4317 179.56C90.3584 179.56 90.2852 179.56 90.2852 179.56C90.212 179.632 90.1388 179.489 90.1388 179.489L90.0655 179.632L89.8459 179.774H89.7726C89.6994 179.845 89.6994 179.774 89.6262 179.845H89.553L89.4798 179.917C89.4798 179.988 89.4065 179.988 89.2601 179.988C89.2601 179.988 89.1869 179.988 89.1869 180.059C89.0404 180.059 88.9672 180.059 88.894 180.13C88.8207 180.13 88.7475 180.13 88.6743 180.13C88.6743 180.13 88.6743 180.13 88.6011 180.13C88.6011 180.201 88.4546 180.273 88.3814 180.273C88.3082 180.273 88.2349 180.273 88.1617 180.344C88.0153 180.344 88.0153 180.273 87.9421 180.344C87.9421 180.415 87.8688 180.415 87.7224 180.415H87.6492C87.5759 180.629 86.9901 180.344 86.9169 180.558L86.7705 180.629C86.6972 180.7 86.624 180.7 86.5508 180.7V180.629H86.3311L86.1115 180.7C86.2579 180.843 86.1847 181.056 86.1847 181.341C86.1847 181.412 86.2579 181.484 86.2579 181.484V181.626V181.84L86.1847 182.41C86.1847 182.552 86.1847 182.623 86.1847 182.766V182.837C86.1114 182.908 86.1847 182.979 86.1115 183.051C86.1115 183.122 86.1115 183.193 86.1115 183.264C86.0382 183.335 86.0382 183.478 86.0382 183.62V183.905C85.965 183.976 85.965 184.119 85.8918 184.261C85.8918 184.404 85.8186 184.618 85.7453 184.76C85.8186 184.76 85.8186 184.76 85.7453 184.974C85.7453 185.045 85.5257 185.472 85.5257 185.686L85.306 186.469L85.2328 186.683L85.1595 186.897C85.0863 186.968 85.0131 187.182 85.0131 187.253L84.8666 187.324L84.9399 187.395L84.8666 187.609C84.7934 187.823 84.647 187.823 84.7202 188.108C84.7202 188.108 84.7202 188.179 84.5737 188.25L84.5005 188.392C84.5005 188.535 84.5005 188.606 84.3541 188.677V188.749L84.2076 189.034L84.1344 189.176L84.0612 189.318C83.988 189.461 83.988 189.532 83.9147 189.675V189.817C83.8415 189.959 83.7683 190.102 83.6951 190.173C83.3289 190.529 83.4022 190.885 82.5235 191.526C82.4502 191.669 82.4502 191.74 81.3519 192.025C81.2787 191.954 81.1322 191.883 80.9858 191.74L80.8393 191.598V191.669L80.7661 191.455L80.6929 191.384C80.6929 191.384 80.6196 191.384 80.6196 191.242C80.5464 191.099 80.5464 191.028 80.5464 190.957L80.4732 190.814C80.4732 190.743 80.4732 190.672 80.4 190.529C80.4 190.529 80.4 190.529 80.4 190.601L80.3267 190.458C80.3267 190.387 80.3267 190.244 80.3267 190.244C80.4 190.102 80.2535 189.959 80.3267 189.675L80.4 189.532V189.461C80.4 189.461 80.3267 189.39 80.3267 189.247V189.105C80.3267 189.034 80.3267 188.891 80.3267 188.749C80.4 188.535 80.4 188.179 80.4732 187.823C80.4732 187.823 80.4732 187.751 80.5464 187.609C80.5464 187.538 80.5464 187.538 80.5464 187.538C80.4732 187.395 80.5464 187.324 80.6196 187.11C80.6196 187.11 80.6929 187.039 80.6929 186.968C80.7661 186.683 80.7661 186.469 80.8393 186.327L80.9858 185.971C80.9858 185.9 81.059 185.757 81.059 185.686L81.1322 185.401C81.059 185.401 81.2054 185.259 81.2054 185.259C81.2054 185.116 81.2787 184.974 81.3519 184.902C81.4251 184.831 81.4251 184.689 81.4251 184.689L81.4983 184.475C81.4983 184.333 81.5716 184.119 81.718 184.119L81.6448 184.048C81.6448 184.048 81.6448 184.048 81.6448 183.976L81.718 183.692C81.718 183.549 81.7912 183.549 81.7912 183.478L81.9377 183.335L81.8645 183.193C81.8645 183.193 81.8645 183.122 81.9377 182.979C81.9377 182.979 81.9377 182.979 82.0109 182.908C82.0109 182.908 82.0841 182.766 82.1573 182.766C82.0841 182.694 82.0841 182.694 82.0841 182.694L82.2306 182.338L82.377 182.196C82.377 182.125 82.377 182.125 82.4502 182.053C82.4502 181.982 82.4502 181.84 82.5235 181.768L82.5967 181.626C82.5967 181.412 82.6699 181.412 82.7431 181.412C82.7431 181.412 82.7431 181.27 82.8164 181.199L83.036 180.629L83.3289 180.201C83.1825 180.201 83.1093 180.13 83.036 179.988C82.7431 179.988 82.7431 179.917 82.7431 179.845ZM83.8415 180.771L83.7683 180.914C83.6951 180.914 83.6951 180.985 83.6951 181.127C83.6218 181.27 83.5486 181.412 83.4022 181.626V181.697C83.3289 181.911 83.1093 182.125 83.1825 182.196C83.1825 182.196 83.1825 182.196 83.1825 182.267C83.1093 182.338 83.036 182.338 83.1093 182.481C83.1093 182.552 83.1093 182.552 83.036 182.623L82.8896 182.979C82.8896 183.122 82.8164 183.335 82.5967 183.478V183.549C82.5967 183.62 82.5235 183.976 82.4502 184.048L82.3038 184.404C82.2306 184.618 82.1574 184.76 82.0841 185.045C82.0841 185.116 82.0841 185.187 82.0109 185.259V185.401L81.8645 185.686C81.8645 185.686 81.8645 185.757 81.7912 185.828C81.7912 185.971 81.718 186.113 81.6448 186.184C81.5716 186.256 81.6448 186.398 81.4983 186.469V186.541C81.4983 186.683 81.4983 186.683 81.4251 186.754V186.897C81.4251 186.968 81.3519 187.182 81.2787 187.253L81.2054 187.395V187.609C81.2054 187.751 81.1322 187.965 81.059 188.108L80.9858 188.535C80.9858 188.606 80.9125 188.677 80.9125 188.749C80.9125 188.891 80.9125 189.034 80.9125 189.105C80.8393 189.176 80.8393 189.318 80.9125 189.461C80.9125 189.532 80.9125 189.532 80.9125 189.675C80.9125 189.817 80.9125 190.102 80.9125 190.173V190.316C80.8393 190.316 80.8393 190.387 80.9125 190.458V190.672C80.8393 190.885 80.9125 190.743 80.9125 190.885V190.957L80.9858 191.028C81.059 191.099 81.059 191.242 81.1322 191.242L81.2054 191.455H81.2787H81.3519C81.3519 191.455 81.4251 191.455 81.4983 191.526H81.5716C81.6448 191.455 81.718 191.384 81.718 191.384L81.7912 191.313H81.718C81.8645 191.242 81.9377 191.313 82.7431 190.173L83.1093 189.461V189.532C83.1825 189.39 83.1825 189.318 83.3289 189.105C83.4022 189.034 83.4754 188.962 83.4754 188.891L83.6218 188.677C83.6218 188.606 83.6218 188.535 83.7683 188.464C83.9147 188.179 83.9879 188.036 83.9879 187.751C84.0612 187.538 84.2808 186.897 84.3541 186.612C84.3541 186.541 84.5005 186.469 84.5005 186.398C84.5005 186.113 84.5737 186.113 84.7202 186.184C84.7202 185.971 84.7202 185.828 84.8666 185.615C84.8666 185.472 84.8666 185.472 84.8666 185.472C84.8666 185.33 84.8666 185.187 85.0131 185.045C85.0131 185.045 85.0863 185.045 85.0863 184.974C85.0863 184.902 85.0863 184.902 85.0863 184.902L85.1595 184.689C85.1595 184.404 85.2328 184.261 85.306 183.976C85.306 183.834 85.3792 183.692 85.3792 183.62C85.4524 183.478 85.4524 183.264 85.4524 183.193C85.4524 183.122 85.4524 183.051 85.4524 182.979C85.4524 182.979 85.4524 182.908 85.4524 182.837C85.4524 182.837 85.4524 182.766 85.4524 182.694C85.3792 182.196 85.6721 181.697 85.5257 181.27H85.4524C85.3792 181.27 85.306 181.27 85.306 181.27H85.0863C85.0131 181.27 85.0131 181.27 84.9399 181.27H84.7202H84.647H84.5737C84.5737 181.27 84.5005 181.27 84.5005 181.199L84.4273 181.127C84.2808 180.985 84.2076 180.985 83.8415 180.771ZM83.1093 180.415C83.1093 180.415 83.1825 180.344 83.1093 180.415V180.415ZM83.1825 180.344C83.2557 180.415 83.1825 180.415 83.1825 180.344V180.344ZM83.6951 180.7H83.6218H83.6951ZM84.1344 180.13C84.1344 180.273 84.1344 180.344 84.2808 180.344L84.5005 180.415V180.486L84.7202 180.558C84.7934 180.629 84.8666 180.629 84.9399 180.558C85.0131 180.558 85.0863 180.486 85.1595 180.558L85.0863 180.415V180.486C85.0131 180.344 84.8666 180.344 84.7202 180.273C84.647 180.273 84.5737 180.273 84.5005 180.273C84.4273 180.273 84.4273 180.273 84.4273 180.201L84.2808 180.13C84.2808 179.988 84.1344 179.988 84.1344 180.13ZM99.8043 179.062L99.5847 179.204L99.2918 179.347L99.1453 179.418C99.0721 179.418 99.0721 179.418 98.9989 179.418C98.9257 179.418 98.9257 179.418 98.9257 179.418H98.7792C98.706 179.489 98.6328 179.56 98.5595 179.56L98.8524 179.418L98.6328 179.56C98.5595 179.56 98.5595 179.56 98.4131 179.703C98.1934 179.774 98.047 179.917 97.9005 179.988C97.7541 180.13 97.6076 180.201 97.4612 180.273L97.3879 180.344L97.0218 180.486V180.558C97.0218 180.629 97.0218 180.629 96.8754 180.7C96.7289 180.7 96.6557 180.771 96.6557 180.843V180.914L95.9235 181.412L95.8502 181.484V181.555L95.6306 181.697L95.4109 181.84L95.2645 182.053L95.0448 182.267L95.1912 182.338L95.0448 182.481C95.0448 182.552 95.0448 182.552 94.8251 182.623L94.6787 182.837C94.5322 182.908 94.459 182.837 94.3858 182.766L94.3125 182.694C94.3125 182.694 94.2393 182.694 94.1661 182.766C94.0929 182.694 94.0196 182.623 93.9464 182.552C93.9464 182.552 93.9464 182.552 93.9464 182.481C93.8732 182.41 93.8732 182.267 93.9464 182.125L94.3125 181.199C94.459 181.056 94.5322 180.843 94.6054 180.7C94.6787 180.486 94.8251 180.201 94.8983 179.988L95.1912 179.632C95.1912 179.632 95.1912 179.56 95.1912 179.489C95.1912 179.418 95.2645 179.347 95.2645 179.276V179.204L95.4841 178.991C95.5573 178.919 95.5573 178.777 95.5573 178.706C95.5573 178.635 95.6306 178.635 95.6306 178.563C95.8503 178.421 95.8502 178.136 95.9235 177.922C95.9235 177.851 95.9967 177.709 96.0699 177.637C96.1431 177.424 96.2164 177.352 96.2896 177.21H96.2164C96.2164 177.21 96.2164 177.139 96.2896 177.068C95.1912 177.281 93.8732 178.777 92.9945 178.563V178.635C92.9945 178.706 93.0677 178.706 93.0677 178.777L92.9213 179.276L92.4087 180.273C92.3355 180.486 92.3355 180.558 92.1158 180.771C91.8961 180.914 91.8229 181.056 91.6765 181.341C91.6032 181.412 91.53 181.555 91.3836 181.626C91.2371 181.697 91.0175 181.768 90.9442 181.84C90.7246 182.053 90.4317 182.125 90.212 182.053C90.212 181.982 90.1388 181.982 90.0655 181.982C89.8459 182.053 89.6994 181.982 89.6994 181.697C89.4798 181.626 89.4798 181.412 89.4798 181.341C89.4065 181.056 89.4798 180.843 89.553 180.558C89.6262 180.201 89.7726 179.917 90.0655 179.56C90.4317 178.991 90.7978 178.563 91.3104 178.136C91.6032 177.922 91.8961 177.709 92.1158 177.566C92.189 177.495 92.2623 177.566 92.3355 177.566C92.5552 177.637 92.7748 177.78 92.9945 177.78C93.2142 177.78 93.2142 177.851 93.3606 177.922C93.4338 177.922 93.4338 177.993 93.4338 177.993C94.0929 177.78 95.118 176.925 95.5573 176.783C96.1431 176.569 96.8022 176.498 97.0951 176.996C97.1683 177.21 97.0951 177.281 97.0951 177.352C96.9486 177.424 96.9486 177.566 96.8754 177.637C96.8022 177.709 96.8022 177.78 96.8022 177.78L96.6557 178.065C96.5825 178.136 96.5093 178.278 96.436 178.421C96.3628 178.492 96.3628 178.563 96.3628 178.706C96.2164 178.919 96.1431 179.062 95.9967 179.204V179.276C95.9967 179.347 95.9967 179.418 95.9235 179.418C95.8502 179.418 95.8502 179.56 95.777 179.703C95.777 179.845 95.6306 179.988 95.4841 180.13C95.4841 180.13 95.4841 180.201 95.4109 180.273V180.344C95.4109 180.415 95.4109 180.415 95.4109 180.486C95.4109 180.558 95.3377 180.486 95.4109 180.558C95.3377 180.7 95.2645 180.771 95.1912 180.914L95.118 181.056L95.3377 180.914C95.4841 180.914 95.5573 180.771 95.5573 180.7L95.777 180.486C95.9235 180.415 96.1431 180.273 96.2164 180.13C96.2164 180.059 96.2896 180.059 96.436 179.988C96.5825 179.917 96.6557 179.774 96.7289 179.703C96.8754 179.632 97.0951 179.418 97.2415 179.418C97.388 179.347 97.4612 179.204 97.6076 179.133L97.8273 178.919L98.047 178.848C98.1202 178.777 98.1202 178.777 98.1934 178.777C98.2666 178.777 98.3399 178.777 98.3399 178.635C98.4131 178.563 98.5595 178.492 98.6328 178.492L98.7792 178.35V178.421L98.9989 178.35C98.9989 178.278 99.1453 178.207 99.2186 178.207L99.2918 178.136C99.2918 178.136 99.2918 178.136 99.365 178.136L99.9508 177.993C100.024 177.993 100.17 177.993 100.244 178.065C100.39 178.136 100.61 178.207 100.756 178.278C100.829 178.35 100.903 178.35 100.903 178.421V178.492C100.976 178.635 101.049 178.777 100.976 178.777L100.829 178.919C100.829 178.919 100.829 178.991 100.756 178.991C100.756 179.133 100.61 179.276 100.61 179.347L100.463 179.489C100.39 179.489 100.097 179.489 100.097 179.489C100.097 179.418 100.097 179.347 100.024 179.276C100.097 179.204 100.097 179.133 100.097 179.062C100.097 178.919 100.17 178.848 100.244 178.777C100.244 178.706 100.244 178.563 100.244 178.563V178.421H100.097L99.8043 179.062ZM90.1388 181.27C90.212 181.199 90.4317 181.412 90.5049 181.412C90.5781 181.412 90.871 181.127 90.9442 181.056C91.2371 180.7 91.2371 180.629 91.6032 180.344C91.8961 180.13 91.9694 179.418 92.189 179.133C92.189 179.062 92.2623 178.991 92.2623 178.991C92.189 178.919 92.189 178.848 92.1158 178.848C92.0426 178.848 91.8961 178.919 91.8961 178.919C91.8229 179.133 91.2371 179.204 91.1639 179.347C91.0175 179.489 90.7978 179.703 90.7246 179.845C90.5781 180.059 90.4317 180.201 90.4317 180.344C90.212 180.558 90.2852 180.914 90.1388 181.127C90.0655 181.127 90.1388 181.199 90.1388 181.27ZM98.706 178.848C98.6328 178.919 98.5595 178.919 98.5595 178.919C98.5595 178.919 98.6328 178.919 98.706 178.848ZM98.7792 178.777L98.706 178.848C98.706 178.777 98.706 178.777 98.7792 178.777ZM98.9257 178.777C98.9257 178.777 98.8524 178.777 98.706 178.848H98.7792C98.8524 178.777 98.8524 178.777 98.9257 178.777ZM99.8043 179.062C99.8043 179.133 99.8043 179.062 99.8043 179.062V179.062ZM103.832 181.412C103.832 181.341 103.905 181.341 103.905 181.27L103.978 180.985L104.125 180.629L104.344 180.415C104.271 180.344 104.344 180.201 104.417 180.13C104.417 180.059 104.417 179.988 104.417 179.988L104.491 179.917L104.564 179.845C104.564 179.703 104.637 179.632 104.71 179.489C104.784 179.347 104.857 179.276 104.857 179.276H104.784C104.71 179.276 104.564 179.418 104.564 179.418C104.564 179.418 104.491 179.489 104.417 179.56H104.271C104.198 179.56 104.051 179.632 104.051 179.703C104.051 179.774 104.051 179.845 103.978 179.845C103.832 179.917 103.758 179.917 103.685 179.988L103.466 180.13C103.466 180.201 103.392 180.201 103.319 180.201C103.319 180.273 103.173 180.344 103.099 180.415L102.953 180.629L102.733 180.771L102.514 180.914C102.44 180.985 102.294 181.056 102.294 181.056C102.148 181.127 102.001 181.27 102.001 181.27C102.001 181.341 101.781 181.484 101.708 181.484C101.708 181.484 101.635 181.484 101.635 181.555C101.635 181.626 101.488 181.697 101.415 181.768L101.342 181.84C101.269 181.911 101.196 181.982 101.122 182.125L101.049 182.196C100.903 182.196 100.829 182.267 100.829 182.338H100.756V182.481C100.61 182.481 100.537 182.552 100.537 182.623C100.39 182.837 100.317 182.837 100.097 182.837C99.9508 182.837 99.8776 182.837 99.8776 182.623V182.552V182.481C99.7311 182.41 99.8776 182.125 99.9508 182.053L100.024 181.982L99.9508 181.911C100.024 181.768 100.097 181.697 100.097 181.626V181.555L100.244 181.341L100.317 181.27C100.39 181.199 100.463 181.127 100.463 181.056C100.463 180.985 100.463 180.985 100.463 180.914L100.683 180.7L100.756 180.629C100.829 180.558 100.903 180.415 100.976 180.344V180.273L101.122 180.059L101.269 179.845L101.488 179.632L101.562 179.489C101.635 179.276 101.781 179.062 101.928 178.991L102.001 178.919L102.221 178.706L102.514 178.35C102.66 178.207 102.733 178.136 102.807 177.993L103.026 177.709C103.246 177.495 103.246 177.495 103.392 177.709C103.466 177.78 103.466 177.78 103.539 177.78C103.539 177.851 103.612 177.851 103.685 177.851C103.905 177.993 103.905 178.207 103.685 178.278L103.392 178.35C103.319 178.421 103.246 178.421 103.246 178.421H103.319C103.319 178.421 103.319 178.563 103.246 178.635L103.026 178.848L102.807 179.062L102.733 179.133L102.587 179.347H102.514C102.44 179.489 102.367 179.56 102.148 179.632C102.148 179.703 102.074 179.845 102.001 179.917C102.001 179.988 101.928 179.988 101.855 179.988C101.855 179.988 101.781 180.059 101.781 180.201C101.708 180.201 101.635 180.415 101.562 180.486L101.269 180.843C101.122 180.985 100.976 181.199 100.829 181.412L100.976 181.199C101.196 180.985 101.488 180.771 101.562 180.7L101.781 180.558C101.928 180.486 102.148 180.201 102.221 180.13L102.294 179.917H102.367H102.44C102.44 179.845 102.514 179.774 102.587 179.774L102.807 179.56C102.953 179.56 103.026 179.489 103.026 179.418C103.173 179.276 103.246 179.276 103.319 179.204L103.466 179.133L103.612 179.062C103.612 179.062 103.612 179.062 103.612 178.991C103.978 178.777 104.271 178.635 104.564 178.563C104.564 178.563 104.71 178.563 104.784 178.635C104.857 178.635 104.857 178.635 104.93 178.706H105.003C105.076 178.706 105.076 178.777 105.15 178.777C105.296 178.848 105.369 178.991 105.369 179.133C105.369 179.347 105.369 179.56 105.223 179.774C105.223 179.845 105.15 179.917 105.15 179.988L105.076 180.273V180.344L104.784 180.771L104.71 180.914L104.564 181.127C104.564 181.127 104.491 181.199 104.491 181.27C104.491 181.341 104.491 181.412 104.417 181.484C104.344 181.555 104.344 181.697 104.344 181.768C104.344 181.768 104.344 181.84 104.271 181.911V181.982C104.271 181.982 104.271 181.982 104.344 181.982C104.344 181.982 104.417 181.982 104.491 181.84H104.71C104.784 181.768 104.93 181.626 105.003 181.626C105.003 181.626 105.003 181.626 105.003 181.555C105.003 181.412 105.15 181.412 105.223 181.412C105.223 181.412 105.223 181.341 105.296 181.27C105.369 181.199 105.516 181.127 105.516 181.127C105.589 181.199 105.589 181.127 105.589 181.056C105.809 180.914 106.028 180.7 106.321 180.558C106.468 180.486 106.541 180.415 106.614 180.344C106.687 180.273 106.761 180.201 106.834 180.13L106.907 180.059L107.054 179.917C107.273 179.774 107.42 179.632 107.639 179.489C107.713 179.489 107.786 179.347 107.932 179.276L108.152 179.204L108.298 179.133C108.518 179.062 108.738 178.991 109.031 178.919H109.104C109.104 178.919 109.177 178.848 109.25 178.848H109.763C109.982 178.848 110.129 178.919 110.202 178.991L110.275 179.062C110.422 179.204 110.641 179.489 110.715 179.774C110.715 179.845 110.715 179.917 110.715 179.988C110.715 180.059 110.715 180.059 110.715 180.13C110.788 180.344 110.788 180.486 110.715 180.344C110.641 180.558 110.715 180.558 110.715 180.629L110.861 180.914C110.934 180.985 111.008 181.127 111.008 181.27V181.341H111.081H111.154C111.227 181.341 111.301 181.341 111.374 181.27H111.447C111.447 181.27 111.52 181.199 111.593 181.199C111.74 181.127 111.813 181.056 111.96 181.056L112.033 180.985C112.106 180.843 112.326 180.771 112.545 180.843C112.545 180.914 112.545 180.914 112.545 181.056C112.472 181.056 112.326 181.127 112.252 181.27C112.179 181.341 112.179 181.412 112.106 181.484C112.106 181.555 112.033 181.697 112.033 181.697C111.96 181.768 111.886 181.84 111.813 181.84L111.667 181.911L111.593 181.982C111.52 181.982 111.374 182.053 111.301 182.053C111.227 182.053 111.154 182.053 111.081 182.053H111.301C111.227 181.982 111.081 181.84 110.934 181.84C110.861 181.768 110.788 181.697 110.715 181.484C110.641 181.412 110.642 181.412 110.568 181.412C110.422 181.341 110.422 181.199 110.349 181.127V180.985C110.349 180.985 110.349 180.985 110.349 180.914C110.275 180.843 110.275 180.629 110.349 180.486C110.349 180.415 110.349 180.273 110.349 180.201C110.275 180.201 110.275 180.13 110.275 179.988C110.275 179.988 110.275 179.917 110.202 179.917C110.202 179.917 110.202 179.845 110.202 179.774C110.202 179.703 110.202 179.632 110.202 179.56C110.129 179.56 109.982 179.56 109.909 179.56C109.836 179.56 109.616 179.703 109.47 179.703L109.177 179.845C109.177 179.845 109.104 179.845 109.104 179.917C108.591 180.13 108.445 180.201 108.298 180.273L108.005 180.486L107.859 180.629L107.786 180.7L107.566 180.843L107.493 180.914L107.346 181.056C107.273 181.056 107.127 181.127 107.127 181.199L106.834 181.412L106.687 181.484C106.614 181.484 106.541 181.555 106.541 181.626L106.468 181.697L106.248 181.84L105.955 182.053C105.882 182.125 105.809 182.125 105.809 182.125C105.735 182.196 105.662 182.267 105.589 182.338C105.589 182.338 105.589 182.338 105.516 182.41C105.369 182.481 105.296 182.552 105.223 182.552L105.003 182.694L104.784 182.766L104.564 182.837C104.417 182.837 104.198 182.766 104.125 182.623L103.978 182.552L103.758 182.41C103.685 182.196 103.612 182.125 103.685 181.768C103.832 181.484 103.832 181.484 103.832 181.412ZM117.085 179.845C117.012 179.845 117.012 179.845 117.012 179.988C116.939 180.13 116.866 180.201 116.866 180.273C116.719 180.486 116.719 180.629 116.792 180.771C116.866 180.985 116.866 181.199 117.012 181.341C117.012 181.484 117.158 181.484 117.158 181.555C117.232 181.626 117.305 181.626 117.378 181.555C117.451 181.555 117.451 181.555 117.451 181.555C117.964 181.484 118.403 181.412 118.843 181.199C119.062 180.985 119.355 181.056 120.161 180.344C120.307 180.344 120.38 180.273 120.454 180.201C120.673 179.988 121.186 179.703 121.552 179.418C121.772 179.418 121.918 178.991 122.211 178.919C122.284 178.777 122.431 178.706 122.577 178.635V178.706L122.357 179.062L122.064 179.347L120.82 180.486L119.868 181.341H119.795C119.721 181.341 119.575 181.341 119.575 181.412C119.575 181.484 119.428 181.626 119.355 181.626C119.282 181.626 119.135 181.697 119.062 181.84C118.623 182.053 118.257 182.125 117.817 182.267C117.525 182.338 117.305 182.338 117.012 182.196C116.866 182.125 116.646 182.053 116.646 181.768C116.646 181.768 116.573 181.697 116.499 181.697C116.207 181.626 116.207 181.484 116.133 181.199C116.133 181.127 116.06 181.127 116.06 181.127C115.987 181.127 115.987 181.127 115.914 181.199C115.767 181.412 115.474 181.555 115.328 181.768L115.255 181.84L115.108 181.911C115.035 181.911 114.962 182.053 114.888 182.125C114.888 182.125 114.742 182.125 114.669 182.196C114.669 182.267 114.522 182.267 114.449 182.267C114.376 182.267 114.303 182.338 114.303 182.41C114.303 182.481 114.229 182.481 114.156 182.481C113.863 182.481 113.497 182.552 113.351 182.267C113.278 182.125 113.058 181.982 113.058 181.768C113.058 181.626 113.058 181.484 113.058 181.412C113.058 181.27 113.204 181.199 113.204 181.127C113.204 181.056 113.204 181.056 113.204 180.985C113.278 180.843 113.424 180.7 113.424 180.558C113.497 180.344 113.644 180.201 113.863 180.059C113.863 179.917 113.937 179.774 114.01 179.703C114.229 179.418 114.522 179.133 114.815 178.848L115.401 178.421C115.621 178.278 115.987 178.278 116.207 178.278C116.499 178.35 116.719 178.563 117.012 178.706C117.012 178.706 117.012 178.777 117.085 178.777C117.305 178.848 117.305 179.133 117.451 179.276C117.305 179.418 117.378 179.774 117.085 179.845ZM116.426 178.991C116.353 178.919 116.207 178.848 116.133 178.919C116.06 178.991 115.84 178.919 115.767 179.133C115.621 179.133 115.548 179.276 115.401 179.347C115.255 179.418 115.181 179.56 115.181 179.56C115.035 179.56 115.035 179.56 114.962 179.632C114.962 179.774 114.815 179.917 114.742 179.917C114.596 179.988 114.596 179.988 114.596 180.13L114.376 180.486C114.156 180.843 113.937 181.27 113.717 181.768C113.717 181.84 113.717 181.911 113.863 181.911C113.937 181.911 113.937 181.84 113.937 181.84C114.229 181.626 114.596 181.555 114.815 181.341L114.962 181.27C114.962 181.199 114.962 181.127 115.108 181.127H115.181C115.181 180.985 115.328 180.985 115.401 180.914C115.474 180.914 115.548 180.771 115.548 180.7C115.548 180.629 115.621 180.558 115.694 180.558C115.694 180.558 115.767 180.486 115.84 180.486C115.914 180.415 115.914 180.344 115.914 180.273C115.987 180.201 116.133 180.059 116.06 180.059C116.06 179.845 116.207 179.703 116.28 179.489L116.426 178.991ZM114.962 181.697C114.962 181.697 114.888 181.697 114.962 181.697C114.962 181.768 114.962 181.84 114.962 181.84C114.962 181.768 115.035 181.768 115.035 181.768C114.962 181.697 114.962 181.697 114.962 181.697ZM121.405 180.059C121.552 180.059 121.552 179.988 121.479 179.917H121.405H121.479V179.703H121.552L121.918 178.706L122.064 178.492C122.211 178.35 122.138 178.207 122.211 177.993C122.577 177.21 122.797 176.711 123.163 176.142C123.236 176.142 123.309 175.857 123.309 175.857C123.529 175.643 123.529 175.643 123.529 175.643H123.602C123.456 175.501 123.529 175.429 123.529 175.358C123.529 175.287 123.602 175.216 123.675 175.144C123.675 175.002 123.675 174.931 123.822 175.002H123.895C123.749 174.717 123.968 174.717 124.041 174.575C124.041 174.503 124.188 174.361 124.188 174.29C124.115 174.218 124.261 174.219 124.334 174.005C124.188 174.005 124.115 174.005 123.895 174.005C123.822 174.076 123.675 174.005 123.529 174.005L123.309 174.076C122.943 174.147 122.65 174.147 122.284 174.29C121.991 174.361 121.625 174.361 121.259 174.432C121.039 174.503 120.82 174.503 120.6 174.503C120.454 174.503 120.307 174.503 120.161 174.361C120.087 174.219 119.941 174.147 119.868 174.076C119.868 173.934 119.868 173.934 120.014 173.934C120.234 173.862 120.38 173.791 120.527 173.862C120.527 173.862 120.527 173.862 120.673 173.791C120.82 173.791 120.893 173.72 120.966 173.72C121.039 173.72 121.113 173.72 121.259 173.72L121.332 173.649C121.552 173.72 121.625 173.649 121.698 173.649C121.845 173.649 121.991 173.577 122.138 173.577C122.211 173.577 122.284 173.577 122.357 173.577C122.504 173.577 122.577 173.435 122.723 173.506C122.943 173.506 123.163 173.435 123.382 173.435C123.602 173.364 123.895 173.364 124.188 173.364C124.261 173.364 124.334 173.364 124.408 173.293C124.481 173.293 124.481 173.293 124.481 173.293C124.627 173.364 124.701 173.293 124.847 173.293L125.067 172.936C125.14 172.794 125.14 172.723 125.286 172.723C125.286 172.652 125.433 172.652 125.433 172.509C125.506 172.153 125.652 171.868 125.872 171.512V171.583C125.872 171.583 125.872 171.583 125.872 171.512C125.799 171.441 125.872 171.298 125.872 171.298C126.019 171.298 126.092 171.298 126.165 171.085V170.942L126.751 170.159L127.263 169.589L127.922 168.734L128.142 168.449L128.728 167.737C128.874 167.666 129.094 167.594 129.24 167.523H129.314C129.46 167.808 129.68 167.523 129.753 167.666C129.899 167.737 130.046 167.737 129.973 167.808C129.973 167.808 130.046 167.951 130.119 168.022C130.119 168.093 130.046 168.236 130.119 168.236V168.378C129.826 168.734 129.753 169.375 129.314 169.731C129.24 169.731 129.167 169.945 129.167 170.016C129.167 170.159 128.948 170.087 128.948 170.301C128.948 170.301 128.948 170.444 128.874 170.444C128.874 170.444 128.874 170.515 128.801 170.515C128.728 170.444 128.655 170.871 128.508 170.942C128.215 171.298 128.215 171.868 127.776 172.082C127.776 172.153 127.337 172.295 127.337 172.438V172.509C127.556 172.723 127.263 172.723 127.117 172.794L127.044 172.865C127.117 172.865 127.19 172.865 127.19 172.865C127.263 172.936 127.41 172.865 127.483 172.936H127.556C127.703 172.723 127.996 172.865 128.215 172.794C128.288 172.794 128.362 172.794 128.435 172.794H128.508C128.655 172.936 128.801 172.794 129.021 172.865C129.094 172.723 129.24 172.794 129.387 172.794C129.46 172.794 129.607 172.723 129.753 172.865H129.826C129.826 172.794 129.973 172.794 130.046 172.794C130.266 172.794 130.485 172.723 130.705 172.794H130.851C131.291 172.865 131.657 172.936 132.023 173.008C132.096 173.008 132.169 173.079 132.243 173.079C132.316 173.079 132.243 173.15 132.243 173.15L131.876 173.221C131.803 173.221 131.73 173.221 131.657 173.221C131.584 173.079 131.364 173.15 131.217 173.15C131.071 173.15 130.998 173.15 130.925 173.15C130.778 173.15 130.705 173.221 130.705 173.15H130.558C130.558 173.221 130.485 173.221 130.339 173.221C130.192 173.221 130.119 173.221 130.046 173.15H129.973C129.973 173.293 129.826 173.15 129.753 173.221C129.68 173.293 129.607 173.293 129.607 173.15V173.079H129.533C129.24 173.221 129.094 173.293 128.948 173.221C128.948 173.221 128.948 173.221 128.874 173.221L129.021 173.15C129.021 173.15 128.874 173.079 128.874 173.15C128.728 173.15 128.728 173.15 128.581 173.15C128.508 173.15 128.435 173.15 128.435 173.15C128.288 173.079 128.215 173.15 128.215 173.221L128.069 173.293C127.996 173.293 127.996 173.293 127.996 173.293V173.221L128.069 173.15C127.996 173.15 127.922 173.15 127.849 173.15C127.776 173.15 127.629 173.15 127.556 173.15C127.556 173.15 127.483 173.221 127.483 173.15C127.263 173.079 127.263 173.221 127.117 173.221C127.117 173.221 126.97 173.221 126.97 173.293C126.97 173.364 126.897 173.364 126.824 173.364H126.751C126.751 173.364 126.824 173.435 126.678 173.435C126.678 173.435 126.604 173.435 126.604 173.364H126.531C126.531 173.435 126.458 173.506 126.458 173.577C126.311 173.72 126.238 173.934 126.165 174.147L125.945 174.361C125.872 174.432 125.726 174.575 125.799 174.717L125.579 175.002L125.36 175.216L125.213 175.501L124.92 175.714C124.92 175.785 124.774 175.857 124.847 175.928C124.847 175.999 124.774 175.999 124.774 175.999C124.774 176.355 123.749 177.068 123.602 177.21C123.382 177.352 123.529 177.495 123.456 177.637C123.382 177.78 123.309 177.851 123.163 177.993L122.797 178.492L122.65 179.062L122.504 179.276L122.431 179.703C122.357 179.774 122.284 179.845 122.284 179.917C122.284 180.201 122.138 180.415 122.138 180.7C122.138 180.7 122.138 180.771 122.064 180.7C121.991 180.914 122.064 181.199 121.991 181.484C121.991 181.555 122.064 181.768 122.064 181.84C122.284 182.196 122.284 182.552 122.87 182.623C123.236 182.623 123.456 182.623 123.822 182.552C124.042 182.409 124.334 182.41 124.554 182.338L124.92 182.196L125.286 182.053H125.36L125.14 182.267C125.067 182.267 124.847 182.196 124.92 182.338C124.774 182.41 124.701 182.41 124.701 182.481H124.627C124.627 182.481 124.627 182.481 124.554 182.552C124.627 182.552 124.627 182.623 124.627 182.623C124.701 182.623 124.701 182.694 124.627 182.766C124.554 182.837 124.408 182.837 124.408 182.837L124.115 182.908C124.041 182.979 123.895 183.051 123.822 183.051H123.749C123.602 183.264 123.382 183.122 123.163 183.193C123.09 183.193 122.943 183.264 122.943 183.122H122.723C122.577 182.979 122.431 182.979 122.211 182.837C122.211 182.766 122.138 182.766 121.991 182.694C121.918 182.694 121.845 182.623 121.772 182.552C121.698 182.338 121.479 182.196 121.405 181.911C121.332 181.626 121.259 181.412 121.332 181.199L121.259 180.914C121.259 180.843 121.332 180.771 121.332 180.7C121.332 180.629 121.259 180.558 121.259 180.558C121.259 180.486 121.259 180.415 121.259 180.415L121.332 180.344C121.332 180.273 121.332 180.201 121.332 180.201L121.405 180.059ZM124.701 175.216C124.774 175.144 125.36 174.29 125.579 173.791C125.506 173.791 125.506 173.791 125.433 173.791C125.286 173.791 125.14 173.791 124.92 173.791C124.334 174.788 123.529 176.427 123.749 176.213L124.701 175.216ZM127.117 171.868C127.337 171.797 127.337 171.512 127.337 171.512C127.117 171.369 127.337 171.085 127.556 171.085C127.776 170.942 127.776 170.871 127.996 170.586L128.288 170.087C128.728 169.375 128.508 169.304 128.728 169.304C128.728 169.304 128.581 169.09 128.728 169.019L128.874 168.877L128.948 168.52C128.728 168.663 128.069 169.375 127.776 169.802L127.41 170.23C126.531 171.013 126.385 171.298 125.799 172.367C125.726 172.509 125.652 172.865 125.36 172.936L125.286 173.221C125.286 173.221 125.14 173.221 125.286 173.293C125.286 173.293 125.286 173.293 125.286 173.364C125.36 173.364 125.433 173.364 125.579 173.364H125.726C125.799 173.293 125.872 173.221 125.872 173.364C125.945 173.364 126.019 173.364 126.092 173.364C126.311 173.221 126.385 173.221 126.531 173.079C126.678 172.58 126.678 172.153 127.117 171.868ZM125.652 180.13C125.726 180.059 125.799 180.059 125.872 179.988C125.945 179.845 126.165 179.347 126.311 179.276C126.385 179.204 126.385 179.133 126.458 179.133C126.531 179.062 126.604 178.919 126.751 178.848C126.824 178.706 127.117 178.563 127.19 178.706C127.337 178.777 127.263 178.919 127.41 179.062C127.41 179.133 127.117 179.632 127.044 179.703C126.824 179.845 126.824 180.201 126.604 180.415C126.458 180.558 126.458 180.629 126.385 180.771C126.238 180.985 126.092 181.27 126.092 181.555V181.626C126.092 181.697 126.165 181.697 126.165 181.768C126.311 181.697 126.458 181.84 126.678 181.768C126.897 181.697 127.044 181.697 127.337 181.626C127.41 181.626 127.703 181.484 127.776 181.412C127.996 181.27 128.142 181.199 128.435 181.127C129.094 180.843 129.46 180.629 130.119 180.13C130.266 179.988 130.485 179.845 130.632 179.774C130.632 179.703 130.632 179.774 130.705 179.703C130.925 179.632 131.144 179.347 131.291 179.276C131.584 179.133 131.803 178.919 132.023 178.848C132.096 178.848 132.096 178.777 132.169 178.848C132.243 178.919 132.169 178.919 132.096 178.919C132.023 178.991 131.876 179.133 131.876 179.133C131.95 179.347 129.753 181.056 129.68 181.127C129.607 181.127 129.533 181.199 129.607 181.27C129.607 181.27 129.607 181.341 129.533 181.341C129.24 181.555 129.094 181.626 128.874 181.768L128.801 181.84C128.801 181.911 128.581 181.84 128.508 181.911C128.362 181.911 128.362 181.982 128.288 182.053C128.142 182.125 128.069 182.267 127.849 182.267C127.629 182.338 127.41 182.338 127.19 182.41C127.044 182.481 126.97 182.552 126.824 182.552C126.751 182.552 126.678 182.552 126.604 182.552C126.385 182.481 126.165 182.41 125.945 182.338C125.799 182.267 125.872 182.125 125.799 182.053C125.799 182.053 125.799 181.982 125.726 181.911C125.579 181.768 125.286 181.27 125.506 181.127C125.433 180.629 125.506 180.415 125.652 180.13ZM125.433 173.862C125.433 173.862 125.433 174.005 125.506 174.005C125.506 174.076 125.433 174.076 125.433 174.076V173.862ZM127.556 176.783C127.556 176.854 127.483 176.854 127.483 176.996C127.556 177.068 127.556 177.21 127.483 177.281C127.41 177.352 127.483 177.352 127.337 177.352C127.19 177.352 127.117 177.281 127.044 177.139L126.97 177.068C126.824 176.925 126.824 176.854 126.751 176.711C126.678 176.64 126.751 176.569 126.824 176.569C127.044 176.64 127.19 176.498 127.41 176.498C127.556 176.498 127.556 176.498 127.629 176.711L127.556 176.783ZM144.617 180.843C144.617 180.985 144.398 181.199 144.251 181.27L143.958 181.555H143.739C143.592 181.697 143.373 181.768 143.299 181.768L143.08 181.84C142.933 181.84 142.64 182.053 142.421 182.053H142.348C142.274 182.053 142.274 182.053 142.274 181.982L142.201 181.911C142.201 181.911 142.201 181.911 142.128 181.911C142.128 181.911 142.128 181.84 142.055 181.84C141.981 181.84 141.981 181.84 141.835 181.84C141.835 181.84 141.762 181.768 141.762 181.697C141.762 181.626 141.762 181.626 141.688 181.555L141.542 181.199C141.469 181.127 141.396 181.056 141.322 181.056H141.249L141.176 180.7L141.103 180.558C141.103 180.415 141.103 180.344 141.029 180.273C141.029 180.201 141.029 180.201 141.103 180.13C141.103 179.988 141.103 179.917 141.103 179.774V179.56C141.103 179.347 141.396 178.706 141.249 178.777L140.956 178.848C140.81 178.848 140.517 178.991 140.59 178.991L140.151 179.276L139.785 179.489L139.638 179.632L139.419 179.845L139.272 179.917C139.199 179.988 138.833 180.273 139.126 179.988L138.686 180.344C138.613 180.415 138.54 180.415 138.467 180.558C138.32 180.629 138.247 180.629 138.247 180.7V180.771C138.174 180.843 138.101 180.843 138.101 180.843C138.101 180.843 138.027 180.914 138.027 180.985C137.954 181.056 137.881 181.199 137.734 181.199C137.661 181.27 137.515 181.199 137.515 181.412L137.441 181.484C137.222 181.626 137.002 181.697 136.856 181.84L136.636 181.982L136.49 182.125L136.416 182.196C136.27 182.338 136.123 182.409 135.977 182.552C135.831 182.623 135.757 182.694 135.757 182.766C135.611 182.908 135.464 182.908 135.391 182.766C135.318 182.623 135.245 182.623 135.245 182.552L135.098 182.338C134.952 182.338 134.952 182.267 135.025 182.196C135.098 182.053 135.245 181.84 135.245 181.697C135.245 181.555 135.318 181.484 135.391 181.412L135.538 181.27L135.611 181.127C135.684 181.056 135.757 180.843 135.831 180.771L135.904 180.7L135.977 180.629C136.05 180.486 136.197 180.201 136.197 180.13L136.27 180.059C136.343 179.988 136.416 179.917 136.49 179.845L136.709 179.489C136.782 179.347 136.929 179.204 136.929 179.062L137.075 178.777L137.222 178.635C137.222 178.563 137.222 178.563 137.222 178.563L137.295 178.492C137.368 178.421 137.368 178.35 137.368 178.35C137.368 178.278 137.441 178.207 137.441 178.136H137.368C137.368 178.136 137.368 178.065 137.441 177.993C136.343 178.207 134.513 179.204 133.634 178.991V179.062C133.634 179.133 133.634 179.133 133.707 179.204L133.561 179.703L133.121 180.7C133.121 180.914 133.048 180.985 132.902 181.127C132.682 181.27 132.609 181.412 132.462 181.626C132.462 181.697 132.316 181.84 132.169 181.84C132.023 181.911 131.803 181.982 131.73 182.053C131.51 182.196 131.217 182.196 130.998 182.196C130.998 182.125 130.998 182.125 130.925 182.125C130.705 182.125 130.558 182.053 130.558 181.84C130.339 181.697 130.412 181.555 130.339 181.484C130.266 181.199 130.339 181.056 130.412 180.771C130.485 180.415 130.632 180.13 130.851 179.917C131.144 179.347 131.51 179.133 131.95 178.706C132.243 178.563 132.535 178.278 132.828 178.136C132.902 178.065 132.975 178.136 133.048 178.136C133.268 178.207 133.487 178.35 133.707 178.35C133.927 178.35 133.927 178.421 134.073 178.492C134.146 178.492 134.146 178.563 134.146 178.563C134.805 178.35 136.343 177.993 136.782 177.851C137.368 177.637 138.027 177.566 138.32 178.065V178.136V178.207C138.393 178.278 138.32 178.421 138.32 178.421C138.247 178.492 138.174 178.563 138.101 178.635V178.777L137.881 178.991C137.881 178.991 137.881 179.062 137.881 179.133C137.881 179.347 137.954 179.204 137.808 179.276C137.661 179.347 137.661 179.489 137.588 179.632L137.515 179.774C137.515 179.774 137.442 179.917 137.368 179.988L137.295 180.13C137.075 180.273 137.002 180.486 136.856 180.7V180.771C136.709 180.843 136.636 180.985 136.636 181.056L136.563 181.199L136.709 181.056L137.002 180.843C137.075 180.843 137.002 180.771 137.222 180.771L137.295 180.7C137.295 180.7 137.295 180.629 137.295 180.558C137.368 180.486 137.368 180.415 137.515 180.415C137.515 180.273 137.661 180.201 137.734 180.201H137.808C137.808 180.13 137.954 180.059 138.027 180.059H137.954C137.954 180.059 138.101 179.988 138.174 179.845C138.247 179.774 138.32 179.703 138.393 179.632L138.613 179.489C138.686 179.418 138.76 179.418 138.76 179.418L138.833 179.347H138.906L139.052 179.204C139.052 179.204 139.199 179.133 139.272 179.133C139.272 178.991 139.419 178.919 139.565 178.919L139.711 178.848H139.785C139.785 178.848 139.785 178.848 139.785 178.777L139.931 178.635C140.004 178.563 140.078 178.492 140.224 178.492L140.737 178.278C140.883 178.136 141.029 178.136 141.103 178.136H141.176C141.249 178.136 141.249 178.136 141.322 178.136C141.396 178.207 141.249 178.278 141.322 178.278H141.396C141.469 178.35 141.542 178.35 141.615 178.421L141.835 178.563C141.981 178.635 141.908 179.347 141.908 179.489C141.908 179.56 141.908 179.632 141.908 179.703L141.981 179.917L141.908 180.201C141.908 180.344 141.908 180.486 141.981 180.629L141.908 180.7C141.835 180.985 141.981 181.127 142.128 181.27C142.348 181.341 142.494 181.27 142.714 181.199C142.787 181.199 142.86 181.127 142.933 181.127C143.007 181.056 143.153 181.127 143.299 181.127C143.373 181.127 143.373 181.056 143.446 181.056C143.446 181.056 143.519 180.985 143.519 180.914C143.592 180.771 143.666 180.771 143.812 180.771V180.7C143.885 180.629 144.032 180.486 144.105 180.486L144.178 180.415L144.325 180.201C144.398 180.201 144.471 180.059 144.617 180.059C144.691 180.059 144.691 179.988 144.691 179.917L144.837 179.774L145.057 179.632C145.057 179.632 145.13 179.632 145.203 179.774C145.13 179.774 145.13 179.774 145.057 179.774L144.984 179.845V179.917L144.91 180.059C144.837 180.13 144.764 180.13 144.764 180.273C144.764 180.415 144.764 180.415 144.764 180.486L144.617 180.843ZM131.291 181.199C131.364 181.199 131.584 181.412 131.657 181.341C131.73 181.341 131.95 181.056 132.023 181.056C132.316 180.7 132.316 180.7 132.609 180.486C132.828 180.273 132.902 179.632 133.121 179.347C133.121 179.276 133.121 179.204 133.121 179.204C133.121 179.133 133.048 179.062 132.975 179.062C132.902 179.062 132.755 179.133 132.755 179.133C132.609 179.347 132.096 179.418 132.023 179.56C131.876 179.703 131.73 179.845 131.657 179.917C131.51 180.059 131.364 180.201 131.364 180.344C131.144 180.558 131.291 180.843 131.144 181.056C131.217 181.056 131.291 181.127 131.291 181.199ZM148.498 179.845C148.425 179.845 148.425 179.845 148.425 179.988C148.352 180.13 148.279 180.201 148.279 180.273C148.132 180.486 148.132 180.629 148.205 180.771C148.279 180.985 148.279 181.199 148.425 181.341C148.425 181.484 148.572 181.484 148.572 181.555C148.645 181.626 148.718 181.626 148.791 181.555C148.864 181.555 148.864 181.555 148.864 181.555C149.377 181.484 149.816 181.412 150.256 181.199C150.475 180.985 150.768 181.056 151.574 180.344C151.72 180.344 151.793 180.273 151.867 180.201C152.086 179.988 152.599 179.703 152.965 179.418C153.185 179.418 153.331 178.991 153.624 178.919C153.697 178.777 153.844 178.706 153.99 178.635V178.706L153.77 179.062L153.478 179.347L152.233 180.486L151.281 181.341H151.208C151.134 181.341 150.988 181.341 150.988 181.412C150.988 181.484 150.841 181.626 150.768 181.626C150.695 181.626 150.549 181.697 150.475 181.84C150.036 182.053 149.67 182.125 149.231 182.267C148.938 182.338 148.718 182.338 148.425 182.196C148.279 182.125 148.059 182.053 148.059 181.768C148.059 181.768 147.986 181.697 147.913 181.697C147.62 181.626 147.62 181.484 147.546 181.199C147.546 181.127 147.473 181.127 147.473 181.127C147.4 181.127 147.4 181.127 147.327 181.199C147.18 181.412 146.887 181.555 146.741 181.768L146.668 181.84L146.521 181.911C146.448 181.911 146.375 182.053 146.302 182.125C146.302 182.125 146.155 182.125 146.082 182.196C146.082 182.267 145.935 182.267 145.862 182.267C145.789 182.267 145.716 182.338 145.716 182.41C145.716 182.481 145.643 182.481 145.569 182.481C145.276 182.481 144.91 182.552 144.764 182.267C144.691 182.125 144.471 181.982 144.471 181.768C144.471 181.626 144.471 181.484 144.471 181.412C144.471 181.27 144.617 181.199 144.617 181.127C144.617 181.056 144.617 181.056 144.617 180.985C144.691 180.843 144.837 180.7 144.837 180.558C144.91 180.344 145.057 180.201 145.276 180.059C145.276 179.917 145.35 179.774 145.423 179.703C145.643 179.418 145.935 179.133 146.228 178.848L146.814 178.421C147.034 178.278 147.4 178.278 147.62 178.278C147.913 178.35 148.132 178.563 148.425 178.706C148.425 178.706 148.425 178.777 148.498 178.777C148.718 178.848 148.718 179.133 148.864 179.276C148.718 179.418 148.791 179.774 148.498 179.845ZM147.839 178.991C147.766 178.919 147.62 178.848 147.546 178.919C147.473 178.991 147.254 178.919 147.18 179.133C147.034 179.133 146.961 179.276 146.814 179.347C146.668 179.418 146.595 179.56 146.595 179.56C146.448 179.56 146.448 179.56 146.375 179.632C146.375 179.774 146.228 179.917 146.155 179.917C146.009 179.988 146.009 179.988 146.009 180.13L145.789 180.486C145.569 180.843 145.35 181.27 145.13 181.768C145.13 181.84 145.13 181.911 145.276 181.911C145.35 181.911 145.35 181.84 145.35 181.84C145.643 181.626 146.009 181.555 146.228 181.341L146.375 181.27C146.375 181.199 146.375 181.127 146.521 181.127H146.595C146.595 180.985 146.741 180.985 146.814 180.914C146.887 180.914 146.961 180.771 146.961 180.7C146.961 180.629 147.034 180.558 147.107 180.558C147.107 180.558 147.18 180.486 147.254 180.486C147.327 180.415 147.327 180.344 147.327 180.273C147.4 180.201 147.546 180.059 147.473 180.059C147.473 179.845 147.62 179.703 147.693 179.489L147.839 178.991ZM146.375 181.697C146.375 181.697 146.302 181.697 146.375 181.697C146.375 181.768 146.375 181.84 146.375 181.84C146.375 181.768 146.448 181.768 146.448 181.768C146.375 181.697 146.375 181.697 146.375 181.697ZM153.77 177.139L154.063 176.569C154.063 176.569 154.137 176.569 154.21 176.498C154.137 176.427 154.283 176.213 154.356 176.07L154.722 175.287L154.942 174.931L155.162 174.717L155.235 174.575C155.235 174.575 155.455 174.29 155.455 174.219C155.455 174.147 155.528 174.005 155.674 173.862C155.748 173.791 155.894 173.435 155.894 173.506C155.967 173.435 155.967 173.364 156.114 173.221L156.48 172.58C156.48 172.438 156.699 172.367 156.699 172.224C156.846 172.082 156.846 172.082 156.919 172.153V172.082C156.919 172.082 156.919 172.082 156.992 172.01C156.773 171.939 156.992 171.726 157.066 171.583C157.212 171.369 157.432 171.013 157.505 170.942L157.651 170.728L157.725 170.444C157.944 170.087 158.237 169.589 158.53 169.233L158.676 169.09C158.823 168.877 159.116 168.378 159.262 168.164C159.409 167.879 159.628 167.594 159.848 167.238C159.848 167.238 160.068 166.953 160.141 166.882C160.214 166.811 160.214 166.811 160.287 166.811C160.507 166.526 160.727 166.099 161.02 165.814L161.239 165.458C161.313 165.173 161.459 164.959 161.679 164.888L161.898 164.603L162.484 164.033L162.704 163.748C162.923 163.606 163.216 163.677 163.363 163.748C163.509 163.891 163.875 163.748 163.949 164.033V164.176C164.022 164.247 164.168 164.247 164.168 164.389L164.022 164.532L163.949 165.102C163.949 165.102 163.875 165.102 163.875 165.244C163.875 165.244 163.875 165.315 163.875 165.386C163.802 165.529 163.802 165.529 163.802 165.6C163.802 165.671 163.656 165.814 163.582 165.885L163.509 166.17L163.436 166.241C163.436 166.312 163.509 166.455 163.436 166.526C163.216 166.811 162.997 167.167 162.85 167.523C162.85 167.666 162.631 167.737 162.631 167.879H162.777L162.557 168.164C162.484 168.307 162.338 168.449 162.338 168.52V168.663C162.338 168.663 162.191 168.877 162.118 169.019L161.898 169.161C161.752 169.161 161.898 169.233 161.752 169.304C161.752 169.375 161.679 169.446 161.605 169.518C161.605 169.66 161.605 169.731 161.459 169.802C161.313 169.945 161.239 170.016 161.166 170.159C161.239 170.372 161.166 170.444 160.946 170.586L160.507 171.085C160.434 171.156 160.434 171.156 160.287 171.298C160.287 171.369 160.287 171.512 160.068 171.512L160.141 171.583C160.141 171.726 160.068 171.797 160.068 171.868C159.921 172.01 159.848 172.01 159.848 172.01C159.848 172.01 159.775 172.153 159.848 172.224C159.775 172.224 159.628 172.367 159.628 172.367C159.555 172.438 159.555 172.438 159.555 172.509C159.555 172.652 159.335 172.865 159.262 172.936C159.189 173.079 158.969 173.221 158.896 173.364L158.676 173.649C158.603 173.72 158.53 173.72 158.603 173.934L158.384 174.076C158.164 174.29 158.164 174.361 157.871 174.575L157.725 174.646C157.725 174.717 157.578 174.717 157.578 174.717C157.578 174.931 157.505 174.931 157.358 175.144C157.212 175.287 157.139 175.429 157.066 175.501C156.919 175.643 156.699 175.928 156.48 176.142C156.48 176.142 156.48 176.213 156.48 176.284L156.333 176.355C156.333 176.427 156.187 176.498 156.187 176.498C156.114 176.64 156.04 176.711 155.894 176.925L155.967 176.854L155.748 177.068C155.674 177.068 155.674 177.139 155.748 177.21L155.528 177.637V177.709C155.235 177.922 154.649 178.848 154.503 179.062C154.503 179.062 154.503 179.133 154.503 179.204C154.503 179.276 154.429 179.276 154.283 179.418C154.356 179.489 154.21 179.56 154.137 179.632L154.063 179.703C154.137 179.703 154.21 179.845 154.137 179.917C154.063 180.059 153.99 180.201 153.99 180.273C153.99 180.344 153.917 180.558 153.77 180.7V180.914C153.77 180.985 153.697 181.056 153.697 181.127C153.697 181.27 153.697 181.27 153.624 181.412V181.484V181.555V181.626V181.84C153.624 181.911 153.624 181.911 153.697 182.053C153.697 182.338 153.844 182.481 153.917 182.623H153.99C154.21 182.623 154.283 182.694 154.503 182.694C154.722 182.694 155.674 182.481 155.967 182.338H156.04C156.04 182.338 156.114 182.338 156.187 182.338C156.187 182.267 156.26 182.196 156.407 182.196C156.407 182.196 156.48 182.196 156.48 182.125C156.553 182.125 156.919 181.84 157.066 181.768C157.066 181.768 157.432 181.555 158.091 181.056L158.31 180.914C158.384 180.843 158.457 180.7 158.53 180.7L158.603 180.629L158.75 180.486C158.75 180.486 158.75 180.558 158.823 180.558L158.896 180.415C158.969 180.344 159.335 180.059 159.482 179.988L159.921 179.56C160.068 179.56 161.093 178.35 160.946 179.062L160.434 179.418C160.507 179.347 159.921 179.988 159.995 179.988C159.921 180.13 159.409 180.486 159.335 180.629C159.189 180.771 159.116 180.771 159.043 180.843C158.969 180.985 158.603 181.341 158.457 181.484L158.164 181.697L157.944 181.911C158.017 181.84 157.725 182.053 157.578 182.196C157.578 182.267 157.358 182.267 157.358 182.41C156.773 182.908 156.626 182.908 155.821 183.335C155.674 183.407 155.455 183.478 155.235 183.478L155.015 183.549C154.942 183.549 154.869 183.549 154.796 183.62C154.722 183.692 154.503 183.692 154.356 183.62L153.99 183.549C153.99 183.62 153.917 183.62 153.917 183.62C153.917 183.549 153.844 183.478 153.697 183.478C153.624 183.478 153.551 183.478 153.551 183.407L153.404 183.335L153.185 183.051L153.038 182.908V182.766V182.694C152.892 182.623 152.892 182.552 152.892 182.481C152.892 182.196 152.819 181.911 152.745 181.555C152.745 181.412 152.819 181.412 152.819 181.412C152.745 181.412 152.745 181.27 152.819 181.199L152.892 180.914L153.038 180.486L153.111 179.774L153.258 179.418L153.331 179.347V179.276L153.404 179.062L153.77 177.139ZM159.482 168.734L159.555 169.019C159.482 169.233 159.335 169.304 159.335 169.304C159.262 169.304 159.189 169.375 159.189 169.446C159.116 169.66 159.116 169.731 158.896 169.874C158.896 170.159 158.823 170.23 158.676 170.372C158.53 170.586 158.457 170.657 158.457 170.871C158.237 171.013 158.164 171.298 158.091 171.441L157.725 172.01V172.153C157.505 172.367 157.432 172.652 157.066 173.008C156.919 173.293 156.699 173.791 156.48 173.934C156.407 174.005 156.333 174.147 156.187 174.575L156.04 174.931C155.894 175.144 155.821 175.216 155.674 175.287H155.748L155.455 175.643C155.455 175.857 155.381 175.999 155.308 176.213L155.015 176.711L154.576 177.637L155.015 177.068L155.235 176.711L155.748 176.07L156.187 175.501L156.626 174.931L156.846 174.503L157.651 173.364C157.725 173.15 157.944 173.079 158.017 173.079V173.008C157.871 172.58 158.603 172.794 159.189 171.298C159.262 171.227 159.409 171.156 159.409 171.013L159.628 170.657L159.921 170.23C160.068 170.087 160.507 169.518 160.727 169.233C161.093 168.592 161.239 168.236 161.386 168.236C161.459 168.164 161.459 168.093 161.605 167.951C161.605 167.879 161.605 167.808 161.752 167.737C161.972 167.523 162.045 167.096 162.264 166.811C162.338 166.597 162.631 166.384 162.777 166.099L162.997 165.6C163.07 165.386 163.143 165.244 163.216 164.959L163.29 164.532C163.216 164.603 163.363 164.461 163.143 164.461C163.143 164.461 163.07 164.532 162.997 164.532C162.923 164.603 162.85 164.603 162.85 164.674L162.631 164.959C162.484 165.102 162.484 165.102 162.411 165.102C162.338 165.244 162.264 165.386 162.264 165.458C161.972 166.028 161.605 166.312 161.239 166.669C161.239 166.74 161.02 166.882 161.02 166.953C161.239 167.025 160.946 167.31 160.8 167.381H160.727L160.507 167.594C160.361 167.808 160.141 168.093 159.995 168.378C159.775 168.592 159.775 168.663 159.482 168.734Z" fill="white"/>
<path d="M57.481 197.438C57.481 196.441 57.8471 195.586 58.5061 194.945C59.2383 194.304 60.117 193.948 61.0689 193.948C62.0941 193.948 62.9728 194.304 63.6318 194.945C64.364 195.586 64.7301 196.441 64.7301 197.438C64.7301 198.435 64.364 199.29 63.6318 199.931C62.8995 200.572 62.0941 200.928 61.0689 200.928C60.0438 200.928 59.1651 200.572 58.5061 199.931C57.8471 199.29 57.481 198.435 57.481 197.438ZM58.2864 197.438C58.2864 198.222 58.5793 198.934 59.0919 199.504C59.6777 200.074 60.3367 200.287 61.1422 200.287C61.9476 200.287 62.6799 200.002 63.1924 199.504C63.705 198.934 63.9979 198.293 63.9979 197.438C63.9979 196.655 63.705 195.943 63.1924 195.444C62.6799 194.874 61.9476 194.661 61.1422 194.661C60.3367 194.661 59.6044 194.945 59.0919 195.444C58.5793 196.014 58.2864 196.655 58.2864 197.438Z" fill="white"/>
<path d="M73.2975 195.087L72.785 195.586C72.2724 194.945 71.5402 194.66 70.6615 194.66C69.856 194.66 69.1238 194.945 68.6112 195.444C68.0986 196.013 67.8057 196.654 67.8057 197.438C67.8057 198.221 68.0986 198.934 68.6112 199.503C69.1238 200.073 69.856 200.287 70.6615 200.287C71.5402 200.287 72.2724 199.931 72.8582 199.361L73.3708 199.86C72.6385 200.643 71.7598 201.07 70.6615 201.07C69.6363 201.07 68.7576 200.714 68.0986 200.073C67.3664 199.432 67.0735 198.578 67.0735 197.58C67.0735 196.583 67.4396 195.729 68.0986 195.087C68.8309 194.446 69.7096 194.09 70.6615 194.09C71.6866 193.948 72.5653 194.304 73.2975 195.087Z" fill="white"/>
<path d="M75.7871 200.857V194.02H79.7412V194.732H76.5926V196.869H79.5947V197.581H76.5926V200.145H79.8144V200.857H75.7871Z" fill="white"/>
<path d="M81.938 200.857L84.867 194.02H85.4528L88.3817 200.857H87.503L86.7708 199.148H83.4757L82.7435 200.857H81.938ZM83.8418 198.507H86.6243L85.2331 195.302L83.8418 198.507Z" fill="white"/>
<path d="M91.0176 200.857V194.02H91.6766L95.9236 199.433V194.02H96.7291V200.857H96.07L91.823 195.373V200.857H91.0176Z" fill="white"/>
<path d="M105.15 199.077C105.516 199.931 106.102 200.287 106.907 200.287C107.493 200.287 107.932 200.074 108.079 199.789C108.225 199.504 108.298 199.29 108.298 199.077C108.298 198.72 108.152 198.435 107.932 198.222C107.713 198.008 107.273 197.794 106.687 197.581C106.028 197.296 105.589 197.011 105.296 196.797C105.003 196.584 104.857 196.156 104.857 195.658C104.857 195.159 105.003 194.803 105.369 194.447C105.736 194.091 106.175 193.948 106.761 193.948C107.639 193.948 108.225 194.304 108.664 195.017L108.005 195.373C107.713 194.874 107.346 194.661 106.761 194.661C106.102 194.661 105.662 195.088 105.662 195.658C105.662 196.014 105.736 196.227 106.102 196.512C106.248 196.655 106.395 196.726 106.541 196.797L107.127 197.082C107.859 197.367 108.372 197.652 108.664 198.008C108.957 198.293 109.104 198.72 109.104 199.219C109.104 199.789 108.884 200.216 108.518 200.572C108.152 200.928 107.566 201.142 106.907 201.142C105.809 201.142 104.857 200.572 104.491 199.504L105.15 199.077Z" fill="white"/>
<path d="M111.813 200.857V194.02H114.083C114.669 194.02 115.182 194.233 115.621 194.589C116.06 194.945 116.207 195.444 116.207 196.085C116.207 196.726 115.987 197.153 115.621 197.581C115.182 197.937 114.669 198.151 114.083 198.151H112.619V200.786H111.813V200.857ZM112.545 197.51H113.937C114.303 197.51 114.669 197.367 114.889 197.153C115.182 196.869 115.255 196.584 115.255 196.156C115.255 195.729 115.108 195.444 114.889 195.159C114.596 194.874 114.303 194.803 113.937 194.803H112.545V197.51Z" fill="white"/>
<path d="M117.598 200.857L120.527 194.02H121.113L124.042 200.857H123.163L122.431 199.148H119.062L118.33 200.857H117.598ZM119.429 198.507H122.211L120.82 195.302L119.429 198.507Z" fill="white"/>
<path d="M132.096 195.087L131.584 195.586C131.071 194.945 130.339 194.66 129.46 194.66C128.655 194.66 127.923 194.945 127.41 195.444C126.897 196.013 126.605 196.654 126.605 197.438C126.605 198.221 126.897 198.934 127.41 199.503C127.923 200.073 128.655 200.287 129.46 200.287C130.339 200.287 131.071 199.931 131.657 199.361L132.17 199.86C131.437 200.643 130.559 201.07 129.46 201.07C128.435 201.07 127.556 200.714 126.897 200.073C126.165 199.432 125.872 198.578 125.872 197.58C125.872 196.583 126.238 195.729 126.897 195.087C127.63 194.446 128.508 194.09 129.46 194.09C130.485 193.948 131.364 194.304 132.096 195.087Z" fill="white"/>
<path d="M134.659 200.857V194.02H138.613V194.732H135.465V196.869H138.467V197.581H135.465V200.145H138.686V200.857H134.659Z" fill="white"/>
<path d="M141.542 199.077C141.908 199.931 142.494 200.287 143.299 200.287C143.885 200.287 144.325 200.074 144.471 199.789C144.617 199.504 144.691 199.29 144.691 199.077C144.691 198.72 144.544 198.435 144.325 198.222C144.105 198.008 143.666 197.794 143.08 197.581C142.421 197.296 141.981 197.011 141.689 196.797C141.396 196.584 141.249 196.156 141.249 195.658C141.249 195.159 141.396 194.803 141.762 194.447C142.128 194.091 142.567 193.948 143.153 193.948C144.032 193.948 144.617 194.304 145.057 195.017L144.398 195.373C144.105 194.874 143.739 194.661 143.153 194.661C142.494 194.661 142.055 195.088 142.055 195.658C142.055 196.014 142.128 196.227 142.494 196.512C142.64 196.655 142.787 196.726 142.933 196.797L143.519 197.082C144.251 197.367 144.764 197.652 145.057 198.008C145.35 198.293 145.496 198.72 145.496 199.219C145.496 199.789 145.276 200.216 144.91 200.572C144.544 200.928 143.958 201.142 143.299 201.142C142.201 201.142 141.249 200.572 140.883 199.504L141.542 199.077Z" fill="white"/>
<path d="M2.27 146.085C3.00224 147.296 4.17382 147.866 5.78475 147.866C7.17601 147.866 7.90825 147.225 7.90825 146.513C7.90825 146.014 7.61536 145.658 7.17601 145.373C6.88311 145.231 6.37055 144.946 6.00443 144.874C5.63831 144.732 4.83284 144.518 4.46672 144.305C2.27 143.521 1.09842 142.382 1.09842 140.387C1.09842 139.248 1.53776 138.25 2.41645 137.609C3.29514 136.897 4.3935 136.541 5.71153 136.541C7.7618 136.541 9.29951 137.253 10.3979 138.749L8.3476 140.245C7.7618 139.533 6.95634 139.176 5.85798 139.176C4.83284 139.176 4.17382 139.675 4.17382 140.316C4.17382 140.743 4.32027 141.028 4.68639 141.313C4.90607 141.456 5.12574 141.527 5.34541 141.598L6.37055 141.954C6.80989 142.097 7.24923 142.239 7.54213 142.382C10.105 143.307 11.1301 144.447 11.1301 146.441C11.1301 148.934 9.37273 150.573 5.9312 150.573C3.07546 150.573 1.09842 149.362 0.219727 147.581L2.27 146.085Z" fill="white"/>
<path d="M21.0152 136.825C17.7933 136.825 15.2305 139.247 15.2305 142.238C15.2305 145.23 17.7933 147.652 21.0152 147.652C24.237 147.652 26.7999 145.23 26.7999 142.238C26.7999 139.247 24.237 136.825 21.0152 136.825ZM23.7977 142.238C23.7977 143.805 22.5529 145.016 21.0152 145.016C19.4042 145.016 18.2327 143.805 18.2327 142.238C18.2327 140.671 19.4775 139.461 21.0152 139.461C22.5529 139.461 23.7977 140.671 23.7977 142.238Z" fill="white"/>
<path d="M30.7542 136.753H33.8296V144.588C33.8296 146.796 34.7815 147.864 36.6853 147.864C38.5891 147.864 39.541 146.796 39.541 144.588V136.753H42.6165V144.873C42.6165 146.725 42.0307 148.149 40.9323 149.146C39.8339 150.143 38.3695 150.642 36.6853 150.642C34.9279 150.642 33.5367 150.143 32.4383 149.146C31.3399 148.149 30.7542 146.725 30.7542 144.873V136.753Z" fill="white"/>
<path d="M48.8406 150.357V136.753H51.916V147.651H57.4078V150.357H48.8406Z" fill="white"/>
<path d="M85.306 139.104L83.1825 140.813C82.2306 139.745 81.059 139.246 79.5945 139.246C78.3497 139.246 77.3246 139.674 76.4459 140.457C75.5672 141.241 75.1279 142.309 75.1279 143.52C75.1279 144.731 75.5672 145.799 76.3727 146.583C77.2514 147.366 78.2765 147.794 79.5213 147.794C80.9858 147.794 82.1574 147.295 83.1093 146.227L85.2328 147.936C83.8415 149.574 81.7913 150.5 79.5213 150.5C77.3978 150.5 75.6405 149.859 74.176 148.506C72.7115 147.153 71.9792 145.514 71.9792 143.449C71.9792 141.454 72.7115 139.745 74.176 138.392C75.6405 137.038 77.3978 136.397 79.5213 136.397C81.8645 136.54 83.8415 137.537 85.306 139.104Z" fill="white"/>
<path d="M90.6514 150.357V136.753H93.7268V141.81H99.8043V136.753H102.88V150.357H99.8043V144.588H93.7268V150.428H90.6514V150.357Z" fill="white"/>
<path d="M108.225 150.357L114.01 136.753H116.792L122.577 150.357H119.282L118.33 148.078H112.472L111.52 150.357H108.225ZM113.351 145.727H117.451L115.401 140.813L113.351 145.727Z" fill="white"/>
<path d="M127.776 150.357V136.753H133.634C134.952 136.753 136.05 137.18 137.002 138.035C137.954 138.89 138.394 139.958 138.394 141.24C138.394 142.95 137.442 144.517 135.904 145.086L139.345 150.357H135.831L132.902 145.799H132.829H130.778V150.357H127.776ZM130.852 143.163H133.268C134.439 143.163 135.245 142.451 135.245 141.24C135.245 140.172 134.513 139.46 133.488 139.46H130.778V143.163H130.852Z" fill="white"/>
<path d="M146.814 150.357V139.46H143.007V136.753H153.624V139.46H149.89V150.357H146.814Z" fill="white"/>
<path d="M158.896 150.357V136.753H168.415V139.46H161.972V142.024H168.049V144.73H161.972V147.651H168.562V150.357H158.896Z" fill="white"/>
<path d="M174.493 150.357V136.753H180.351C181.669 136.753 182.767 137.18 183.719 138.035C184.671 138.89 185.11 139.958 185.11 141.24C185.11 142.95 184.158 144.517 182.621 145.086L186.062 150.357H182.548L179.619 145.799H179.545H177.495V150.357H174.493ZM177.568 143.163H179.985C181.156 143.163 181.962 142.451 181.962 141.24C181.962 140.172 181.23 139.46 180.204 139.46H177.495V143.163H177.568Z" fill="white"/>
<path d="M192.286 146.084C193.019 147.295 194.19 147.865 195.801 147.865C197.192 147.865 197.925 147.224 197.925 146.512C197.925 146.013 197.632 145.657 197.192 145.372C196.899 145.23 196.387 144.945 196.021 144.873C195.655 144.731 194.849 144.517 194.483 144.304C192.286 143.52 191.115 142.381 191.115 140.386C191.115 139.247 191.554 138.249 192.433 137.608C193.311 136.896 194.41 136.54 195.728 136.54C197.778 136.54 199.316 137.252 200.414 138.748L198.364 140.244C197.778 139.532 196.973 139.175 195.874 139.175C194.849 139.175 194.19 139.674 194.19 140.315C194.19 140.742 194.337 141.027 194.703 141.312C194.922 141.455 195.142 141.526 195.362 141.597L196.387 141.953C196.826 142.096 197.266 142.238 197.558 142.381C200.121 143.307 201.146 144.446 201.146 146.44C201.146 148.933 199.389 150.572 195.948 150.572C193.092 150.572 191.115 149.361 190.236 147.58L192.286 146.084Z" fill="white"/>
<path d="M24.0907 149.219H17.7935V150.643H24.0907V149.219Z" fill="white"/>
<path d="M141.469 38.6758C141.469 28.989 136.416 19.0886 127.556 11.4674C119.209 4.27357 108.591 0 99.0721 0C89.0404 0 78.5694 4.20234 70.2951 11.6099C61.8743 19.1598 57.1147 28.9178 57.1147 38.3909C57.1147 38.9607 57.1147 39.5305 57.188 40.0291C57.188 40.1003 57.1147 40.1715 57.1147 40.2427V108.192L140.81 108.477H141.542L141.469 38.6758ZM140.078 107.124L58.506 106.839V47.3653C62.3869 59.1889 73.8098 67.8072 87.2831 67.8072C100.683 67.8072 111.593 57.1945 111.593 44.1602C111.593 33.6187 102.807 25.0716 91.9694 25.0716C83.2557 25.0716 76.153 31.9805 76.153 40.4564C76.153 47.2941 81.8645 52.921 88.9672 52.921C94.6787 52.921 99.365 48.3625 99.365 42.8069C99.365 38.2484 95.5574 34.6159 90.9443 34.6159C90.5781 34.6159 90.212 34.9008 90.212 35.3281C90.212 35.7555 90.5049 36.0404 90.9443 36.0404C94.8251 36.0404 97.9738 39.1031 97.9738 42.8781C97.9738 47.6502 93.9464 51.5677 89.0404 51.5677C82.7432 51.5677 77.6907 46.5819 77.6907 40.5276C77.6907 32.8352 84.1344 26.4961 92.1158 26.4961C102.148 26.4961 110.275 34.4022 110.275 44.1602C110.275 56.4111 100.024 66.4539 87.3563 66.4539C71.4667 66.4539 58.5792 53.9181 58.5792 38.4621C58.5792 29.3451 63.2656 19.9433 71.3202 12.6782C79.3016 5.55563 89.4065 1.42452 99.1453 1.42452C108.298 1.42452 118.623 5.55563 126.678 12.5358C135.245 19.9433 140.151 29.4164 140.151 38.6758V107.124H140.078Z" fill="white"/>
</g>
<defs>
<clipPath id="clip0">
<rect width="201" height="201" fill="white"/>
</clipPath>
</defs>
</svg>
