<svg width="200" height="14" viewBox="0 0 200 14" fill="none" xmlns="http://www.w3.org/2000/svg">
<path d="M2.04082 9.46437C2.76968 10.6474 3.93586 11.2041 5.53936 11.2041C6.9242 11.2041 7.65306 10.5778 7.65306 9.88191C7.65306 9.39477 7.36152 9.04683 6.9242 8.76846C6.63266 8.62928 6.12245 8.35091 5.75802 8.28131C5.39359 8.14213 4.59184 7.93337 4.22741 7.7246C2.04082 6.95909 0.874636 5.84564 0.874636 3.89709C0.874636 2.78363 1.31195 1.80935 2.18659 1.18303C3.06123 0.487116 4.15452 0.13916 5.46647 0.13916C7.50729 0.13916 9.0379 0.835075 10.1312 2.29649L8.09038 3.75789C7.50729 3.06198 6.70554 2.71403 5.61225 2.71403C4.59184 2.71403 3.93586 3.20117 3.93586 3.82749C3.93586 4.24504 4.08163 4.5234 4.44607 4.80176C4.66472 4.94094 4.88338 5.01054 5.10204 5.08013L6.12245 5.42809C6.55977 5.56727 6.99709 5.70645 7.28863 5.84563C9.83965 6.75031 10.8601 7.86378 10.8601 9.81233C10.8601 12.248 9.11079 13.8486 5.68513 13.8486C2.84257 13.8486 0.874636 12.6656 0 10.9258L2.04082 9.46437Z" fill="white"/>
<path d="M30.3936 0.348022H33.4548V8.00304C33.4548 10.1604 34.4023 11.2042 36.2973 11.2042C38.1924 11.2042 39.1399 10.1604 39.1399 8.00304V0.348022H42.2011V8.2814C42.2011 10.0908 41.618 11.4826 40.5248 12.4569C39.4315 13.4311 37.9737 13.9183 36.2973 13.9183C34.5481 13.9183 33.1632 13.4311 32.0699 12.4569C30.9766 11.4826 30.3936 10.0908 30.3936 8.2814V0.348022Z" fill="white"/>
<path d="M48.3965 13.6398V0.3479H51.4577V10.9953H56.9242V13.6398H48.3965Z" fill="white"/>
<path d="M84.6938 2.64446L82.5801 4.31464C81.6326 3.27078 80.4664 2.78364 79.0086 2.78364C77.7696 2.78364 76.7492 3.20119 75.8745 3.96669C74.9999 4.73219 74.5626 5.77606 74.5626 6.95911C74.5626 8.14216 74.9999 9.18602 75.8017 9.95153C76.6763 10.717 77.6967 11.1346 78.9358 11.1346C80.3935 11.1346 81.5597 10.6474 82.5072 9.60357L84.6209 11.2738C83.2361 12.8743 81.1952 13.779 78.9358 13.779C76.8221 13.779 75.0728 13.1527 73.6151 11.8305C72.1573 10.5083 71.4285 8.90765 71.4285 6.88951C71.4285 4.94096 72.1573 3.27078 73.6151 1.94855C75.0728 0.626322 76.8221 0 78.9358 0C81.2681 0.139182 83.2361 1.11346 84.6938 2.64446Z" fill="white"/>
<path d="M90.0146 13.6398V0.3479H93.0759V5.28887H99.1254V0.3479H102.187V13.6398H99.1254V8.00292H93.0759V13.7094H90.0146V13.6398Z" fill="white"/>
<path d="M107.507 13.6398L113.265 0.3479H116.035L121.793 13.6398H118.513L117.566 11.4129H111.735L110.787 13.6398H107.507ZM112.609 9.11638H116.691L114.65 4.31459L112.609 9.11638Z" fill="white"/>
<path d="M126.968 13.6398V0.3479H132.799C134.111 0.3479 135.204 0.765449 136.151 1.60054C137.099 2.43563 137.536 3.4795 137.536 4.73214C137.536 6.40233 136.589 7.93332 135.058 8.49005L138.484 13.6398H134.985L132.07 9.18596H131.997H129.956V13.6398H126.968ZM130.029 6.6111H132.434C133.6 6.6111 134.402 5.91519 134.402 4.73214C134.402 3.68827 133.673 2.99236 132.653 2.99236H129.956V6.6111H130.029Z" fill="white"/>
<path d="M145.918 13.6398V2.99236H142.128V0.3479H152.697V2.99236H148.979V13.6398H145.918Z" fill="white"/>
<path d="M157.945 13.6398V0.3479H167.42V2.99236H161.006V5.49763H167.055V8.1421H161.006V10.9953H167.566V13.6398H157.945Z" fill="white"/>
<path d="M173.469 13.6398V0.3479H179.3C180.612 0.3479 181.705 0.765449 182.653 1.60054C183.6 2.43563 184.038 3.4795 184.038 4.73214C184.038 6.40233 183.09 7.93332 181.56 8.49005L184.985 13.6398H181.487L178.571 9.18596H178.498H176.458V13.6398H173.469ZM176.53 6.6111H178.936C180.102 6.6111 180.904 5.91519 180.904 4.73214C180.904 3.68827 180.175 2.99236 179.154 2.99236H176.458V6.6111H176.53Z" fill="white"/>
<path d="M191.181 9.46418C191.91 10.6472 193.076 11.204 194.679 11.204C196.064 11.204 196.793 10.5776 196.793 9.88172C196.793 9.39458 196.501 9.04663 196.064 8.76827C195.773 8.62909 195.262 8.35071 194.898 8.28112C194.534 8.14194 193.732 7.93318 193.367 7.7244C191.181 6.9589 190.015 5.84545 190.015 3.8969C190.015 2.78344 190.452 1.80916 191.326 1.18284C192.201 0.486932 193.294 0.138977 194.606 0.138977C196.647 0.138977 198.178 0.834891 199.271 2.2963L197.23 3.75771C196.647 3.0618 195.845 2.71384 194.752 2.71384C193.732 2.71384 193.076 3.20098 193.076 3.8273C193.076 4.24485 193.222 4.52321 193.586 4.80157C193.805 4.94075 194.023 5.01035 194.242 5.07994L195.262 5.4279C195.7 5.56708 196.137 5.70626 196.429 5.84544C198.98 6.75012 200 7.86359 200 9.81213C200 12.2478 198.251 13.8484 194.825 13.8484C191.982 13.8484 190.015 12.6654 189.14 10.9256L191.181 9.46418Z" fill="white"/>
<path d="M23.7609 12.5264H17.4927V13.9182H23.7609V12.5264Z" fill="white"/>
<path d="M20.6997 0.417542C17.4927 0.417542 14.9417 2.78363 14.9417 5.70646C14.9417 8.62928 17.4927 10.9954 20.6997 10.9954C23.9067 10.9954 26.4577 8.62928 26.4577 5.70646C26.4577 2.78363 23.9067 0.417542 20.6997 0.417542ZM23.4693 5.70646C23.4693 7.23746 22.2303 8.42052 20.6997 8.42052C19.0962 8.42052 17.93 7.23746 17.93 5.70646C17.93 4.17545 19.1691 2.99241 20.6997 2.99241C22.2303 2.99241 23.4693 4.17545 23.4693 5.70646Z" fill="white"/>
</svg>
